<?xml version="1.0" encoding="utf-8"?>
<!-- Generator: Adobe Illustrator 23.0.0, SVG Export Plug-In . SVG Version: 6.00 Build 0)  -->
<svg version="1.1" id="Capa_1" xmlns="http://www.w3.org/2000/svg" xmlns:xlink="http://www.w3.org/1999/xlink" x="0px" y="0px"
	 viewBox="0 0 512 512" style="enable-background:new 0 0 512 512;" xml:space="preserve">
<style type="text/css">
	.st0{opacity:0.17;fill:#1D1B30;enable-background:new    ;}
	.st1{fill:url(#XMLID_5_);}
	.st2{fill:url(#XMLID_7_);}
	.st3{fill:url(#XMLID_9_);}
	.st4{fill:url(#SVGID_1_);}
	.st5{fill:url(#SVGID_2_);}
	.st6{fill:#3F00FC;}
	.st7{fill:#7F00FF;}
	.st8{fill:url(#XMLID_10_);}
	.st9{fill:url(#XMLID_18_);}
	.st10{fill:url(#SVGID_3_);}
	.st11{fill:url(#SVGID_4_);}
	.st12{fill:url(#SVGID_5_);}
	.st13{fill:url(#SVGID_6_);}
	.st14{fill:url(#SVGID_7_);}
	.st15{fill:url(#SVGID_8_);}
	.st16{fill:url(#SVGID_9_);}
	.st17{fill:url(#SVGID_10_);}
	.st18{fill:#2270B8;}
	.st19{fill:url(#SVGID_11_);}
	.st20{fill:url(#XMLID_19_);}
	.st21{fill:url(#XMLID_21_);}
	.st22{fill:url(#XMLID_22_);}
	.st23{fill:url(#SVGID_12_);}
	.st24{fill:url(#SVGID_13_);}
	.st25{fill:url(#XMLID_23_);}
	.st26{fill:url(#XMLID_24_);}
	.st27{fill:url(#SVGID_14_);}
	.st28{fill:url(#SVGID_15_);}
	.st29{fill:url(#SVGID_16_);}
	.st30{fill:url(#SVGID_17_);}
	.st31{fill:url(#SVGID_18_);}
	.st32{fill:url(#SVGID_19_);}
	.st33{fill:url(#SVGID_20_);}
	.st34{fill:url(#SVGID_21_);}
	.st35{fill:url(#SVGID_22_);}
	.st36{fill:url(#XMLID_25_);}
	.st37{fill:url(#XMLID_26_);}
	.st38{fill:url(#XMLID_27_);}
	.st39{fill:url(#SVGID_23_);}
	.st40{fill:url(#SVGID_24_);}
	.st41{fill:url(#XMLID_28_);}
	.st42{fill:url(#XMLID_29_);}
	.st43{fill:url(#SVGID_25_);}
	.st44{fill:url(#SVGID_26_);}
	.st45{fill:url(#SVGID_27_);}
	.st46{fill:url(#SVGID_28_);}
	.st47{fill:url(#SVGID_29_);}
	.st48{fill:url(#SVGID_30_);}
	.st49{fill:url(#SVGID_31_);}
	.st50{fill:url(#SVGID_32_);}
	.st51{fill:url(#SVGID_33_);}
</style>
<g>
	<path class="st0" d="M348.6,389.6L468.7,366l5.3-72.6l-22.1-19.6l-190,65.8L348.6,389.6z"/>
	<path class="st0" d="M170.4,418.7l120.1-23.6l5.3-72.6l-22.2-19.6L83.7,368.7L170.4,418.7z M170.4,287l120.1-23.6l5.3-72.6
		l-22.2-19.6L83.7,237L170.4,287z"/>
	
		<linearGradient id="XMLID_5_" gradientUnits="userSpaceOnUse" x1="142.3951" y1="16956.5195" x2="192.3798" y2="16769.9746" gradientTransform="matrix(1 0 0 1 0 -16676)">
		<stop  offset="0" style="stop-color:#3F91FF"/>
		<stop  offset="0.526" style="stop-color:#053268"/>
		<stop  offset="1" style="stop-color:#0051BF"/>
	</linearGradient>
	<path id="XMLID_17_" class="st1" d="M81,237.3V137.2l86.1-50l86.7,50v100l-86.1,50.1L81,237.3z"/>
	
		<linearGradient id="XMLID_7_" gradientUnits="userSpaceOnUse" x1="154.9204" y1="16859.7754" x2="179.8796" y2="16766.625" gradientTransform="matrix(1 0 0 1 0 -16676)">
		<stop  offset="0" style="stop-color:#4F3E90"/>
		<stop  offset="1" style="stop-color:#171A31"/>
	</linearGradient>
	<path id="XMLID_16_" class="st2" d="M167.1,87.2l86.7,50l-86.1,50l-86.7-50L167.1,87.2z"/>
	
		<linearGradient id="XMLID_9_" gradientUnits="userSpaceOnUse" x1="194.8712" y1="16828.9902" x2="226.6288" y2="16947.5098" gradientTransform="matrix(1 0 0 1 0 -16676)">
		<stop  offset="0" style="stop-color:#3F91FF"/>
		<stop  offset="0.526" style="stop-color:#053268"/>
		<stop  offset="1" style="stop-color:#0051BF"/>
	</linearGradient>
	<path id="XMLID_15_" class="st3" d="M167.7,287.3V187.2l86.1-50v100L167.7,287.3z"/>
	
		<linearGradient id="SVGID_1_" gradientUnits="userSpaceOnUse" x1="202.859" y1="295.55" x2="225.019" y2="295.55" gradientTransform="matrix(1 0 0 -1 0 514)">
		<stop  offset="0" style="stop-color:#00FF99"/>
		<stop  offset="2.400000e-02" style="stop-color:#02FD9E"/>
		<stop  offset="0.213" style="stop-color:#14EBC1"/>
		<stop  offset="0.406" style="stop-color:#22DDDC"/>
		<stop  offset="0.6" style="stop-color:#2BD4F0"/>
		<stop  offset="0.796" style="stop-color:#31CEFB"/>
		<stop  offset="1" style="stop-color:#33CCFF"/>
	</linearGradient>
	<path class="st4" d="M225,170.1l-22.1,13.4v83.3l22.1-13.4V170.1z"/>
	
		<linearGradient id="SVGID_2_" gradientUnits="userSpaceOnUse" x1="110.1436" y1="439.0269" x2="132.8564" y2="354.2611" gradientTransform="matrix(1 0 0 1 0 -178.044)">
		<stop  offset="0" style="stop-color:#00FF99"/>
		<stop  offset="2.400000e-02" style="stop-color:#02FD9E"/>
		<stop  offset="0.213" style="stop-color:#14EBC1"/>
		<stop  offset="0.406" style="stop-color:#22DDDC"/>
		<stop  offset="0.6" style="stop-color:#2BD4F0"/>
		<stop  offset="0.796" style="stop-color:#31CEFB"/>
		<stop  offset="1" style="stop-color:#33CCFF"/>
	</linearGradient>
	<path class="st5" d="M132.6,267l-22.2-13.5v-83.3l22.2,13.5V267z"/>
	<path class="st6" d="M225,253.9l-22.1,12.9l22.1-13.4V253.9z"/>
	<path class="st7" d="M110.4,254.2v-0.7l22.2,13.5L110.4,254.2z"/>
	
		<linearGradient id="XMLID_10_" gradientUnits="userSpaceOnUse" x1="154.2613" y1="16884.5195" x2="181.0454" y2="16784.5566" gradientTransform="matrix(1 0 0 1 0 -16676)">
		<stop  offset="0" style="stop-color:#4F3E90"/>
		<stop  offset="1" style="stop-color:#171A31"/>
	</linearGradient>
	<path id="XMLID_14_" class="st8" d="M167.4,104.9l92.9,53.6L168,212.2l-93-53.6L167.4,104.9z"/>
	
		<linearGradient id="XMLID_18_" gradientUnits="userSpaceOnUse" x1="154.2613" y1="16859.0195" x2="181.0454" y2="16759.0566" gradientTransform="matrix(1 0 0 1 0 -16676)">
		<stop  offset="0" style="stop-color:#3F91FF"/>
		<stop  offset="0.526" style="stop-color:#053268"/>
		<stop  offset="1" style="stop-color:#0051BF"/>
	</linearGradient>
	<path id="XMLID_13_" class="st9" d="M167.4,79.4l92.9,53.6L168,186.7l-93-53.6L167.4,79.4z"/>
	
		<linearGradient id="SVGID_3_" gradientUnits="userSpaceOnUse" x1="207.354" y1="366.7137" x2="220.9601" y2="315.9337" gradientTransform="matrix(1 0 0 -1 0 514)">
		<stop  offset="0" style="stop-color:#3F91FF"/>
		<stop  offset="0.526" style="stop-color:#053268"/>
		<stop  offset="1" style="stop-color:#0051BF"/>
	</linearGradient>
	<path class="st10" d="M168,186.7v25.5l92.3-53.6v-25.5L168,186.7z"/>
	
		<linearGradient id="SVGID_4_" gradientUnits="userSpaceOnUse" x1="108.4975" y1="389.8757" x2="134.5025" y2="292.8243" gradientTransform="matrix(1 0 0 -1 0 514)">
		<stop  offset="0" style="stop-color:#4F3E90"/>
		<stop  offset="1" style="stop-color:#171A31"/>
	</linearGradient>
	<path class="st11" d="M75,133.1v25.5l93,53.6v-25.5L75,133.1z"/>
	
		<linearGradient id="SVGID_5_" gradientUnits="userSpaceOnUse" x1="204.4" y1="341.95" x2="226.56" y2="341.95" gradientTransform="matrix(1 0 0 -1 0 514)">
		<stop  offset="0" style="stop-color:#00FF99"/>
		<stop  offset="2.400000e-02" style="stop-color:#02FD9E"/>
		<stop  offset="0.213" style="stop-color:#14EBC1"/>
		<stop  offset="0.406" style="stop-color:#22DDDC"/>
		<stop  offset="0.6" style="stop-color:#2BD4F0"/>
		<stop  offset="0.796" style="stop-color:#31CEFB"/>
		<stop  offset="1" style="stop-color:#33CCFF"/>
	</linearGradient>
	<path class="st12" d="M204.4,191.1v-25.5l22.2-12.6v25.2L204.4,191.1z"/>
	
		<linearGradient id="SVGID_6_" gradientUnits="userSpaceOnUse" x1="108.129" y1="342.55" x2="130.289" y2="342.55" gradientTransform="matrix(1 0 0 -1 0 514)">
		<stop  offset="0" style="stop-color:#00FF99"/>
		<stop  offset="2.400000e-02" style="stop-color:#02FD9E"/>
		<stop  offset="0.213" style="stop-color:#14EBC1"/>
		<stop  offset="0.406" style="stop-color:#22DDDC"/>
		<stop  offset="0.6" style="stop-color:#2BD4F0"/>
		<stop  offset="0.796" style="stop-color:#31CEFB"/>
		<stop  offset="1" style="stop-color:#33CCFF"/>
	</linearGradient>
	<path class="st13" d="M108.1,152.4v25.5l22.2,12.6v-25.2L108.1,152.4z"/>
	
		<linearGradient id="SVGID_7_" gradientUnits="userSpaceOnUse" x1="110.4" y1="381.4" x2="226.6" y2="381.4" gradientTransform="matrix(1 0 0 -1 0 514)">
		<stop  offset="0" style="stop-color:#00FF99"/>
		<stop  offset="2.400000e-02" style="stop-color:#02FD9E"/>
		<stop  offset="0.213" style="stop-color:#14EBC1"/>
		<stop  offset="0.406" style="stop-color:#22DDDC"/>
		<stop  offset="0.6" style="stop-color:#2BD4F0"/>
		<stop  offset="0.796" style="stop-color:#31CEFB"/>
		<stop  offset="1" style="stop-color:#33CCFF"/>
	</linearGradient>
	<path class="st14" d="M204.4,165.6l-94-53.1l22.2-12.9l94,53.4"/>
	
		<linearGradient id="SVGID_8_" gradientUnits="userSpaceOnUse" x1="108.1" y1="382.25" x2="221.8" y2="382.25" gradientTransform="matrix(1 0 0 -1 0 514)">
		<stop  offset="0" style="stop-color:#00FF99"/>
		<stop  offset="2.400000e-02" style="stop-color:#02FD9E"/>
		<stop  offset="0.213" style="stop-color:#14EBC1"/>
		<stop  offset="0.406" style="stop-color:#22DDDC"/>
		<stop  offset="0.6" style="stop-color:#2BD4F0"/>
		<stop  offset="0.796" style="stop-color:#31CEFB"/>
		<stop  offset="1" style="stop-color:#33CCFF"/>
	</linearGradient>
	<path class="st15" d="M108.1,152.4l91.5-54.2l22.2,12.6l-91.5,54.5"/>
	
		<linearGradient id="SVGID_9_" gradientUnits="userSpaceOnUse" x1="155.839" y1="401.851" x2="192.152" y2="401.851" gradientTransform="matrix(1 0 0 -1 0 514)">
		<stop  offset="0" style="stop-color:#00FF99"/>
		<stop  offset="2.400000e-02" style="stop-color:#02FD9E"/>
		<stop  offset="0.213" style="stop-color:#14EBC1"/>
		<stop  offset="0.406" style="stop-color:#22DDDC"/>
		<stop  offset="0.6" style="stop-color:#2BD4F0"/>
		<stop  offset="0.796" style="stop-color:#31CEFB"/>
		<stop  offset="1" style="stop-color:#33CCFF"/>
	</linearGradient>
	<path class="st16" d="M192.2,95.4c-2.4-0.8-5.5-0.4-9.2,1.6c-11.9,6.6-11.4,21.1-11.7,31.1c-0.1,4.4-0.3,7.9-1.9,9.4
		c0,0-0.4,0.3-0.7,0.6l-12.9-9.7c2.1-2,1.8-7.7,2-14.2c0.3-9.4,1.4-20.7,11.6-26.3c5.8-3.2,9.4-1.3,12.8,0.9
		C184.4,90.2,190,93.9,192.2,95.4L192.2,95.4z"/>
	
		<linearGradient id="SVGID_10_" gradientUnits="userSpaceOnUse" x1="155.839" y1="387.3" x2="171.256" y2="387.3" gradientTransform="matrix(1 0 0 -1 0 514)">
		<stop  offset="0" style="stop-color:#A300FF"/>
		<stop  offset="0.223" style="stop-color:#A000FF"/>
		<stop  offset="0.394" style="stop-color:#9600FF"/>
		<stop  offset="0.548" style="stop-color:#8600FE"/>
		<stop  offset="0.691" style="stop-color:#6F00FE"/>
		<stop  offset="0.828" style="stop-color:#5100FD"/>
		<stop  offset="0.957" style="stop-color:#2D00FC"/>
		<stop  offset="1" style="stop-color:#1F00FC"/>
	</linearGradient>
	<path class="st17" d="M169.4,137.4c0,0-0.3,0.5-1.1,1.1l-2.4,0.8l-10.1-11c2.1-2,1.8-7.7,2-14.2c0,0.3,0.1,0.6,0.1,0.9
		c-0.1,11.8,13.3,16.6,13.3,16.6S171,135.9,169.4,137.4L169.4,137.4z"/>
	<path class="st18" d="M184,128.8c-21.7,14.3-14.6,8.6-14.6,8.6c2.1-2.1,1.8-7.9,2-14.6l0.9-0.6c9-6,13.3-14.1,14.1-20.9
		c0.2-2.1,0.1-4-0.3-5.8c5.3-1.7,9.1,0.3,10.9,4.3C200.3,106.9,197.1,120.2,184,128.8L184,128.8z"/>
	<path class="st18" d="M186.4,101.4c0.2-2.1,0.1-4-0.3-5.8c5.3-1.7,9.1,0.3,10.9,4.3C193.5,100.3,189.7,100.9,186.4,101.4
		L186.4,101.4z"/>
	<path class="st18" d="M170.1,137.2c-6.1-0.1-10.4-26.2-27.3-25.8c6.6,7.6,9.9,19.1,13.9,19.2c0,0,4.9-0.6-19.1,8.6
		c-3.9,1.5-7.3,2.1-10.4,2.2c4,5.9,11.9,9,23.8,4.5C175,136.6,170.1,137.2,170.1,137.2z"/>
	
		<linearGradient id="SVGID_11_" gradientUnits="userSpaceOnUse" x1="114.639" y1="388.6708" x2="149.198" y2="388.6708" gradientTransform="matrix(1 0 0 -1 0 514)">
		<stop  offset="0" style="stop-color:#00FF99"/>
		<stop  offset="2.400000e-02" style="stop-color:#02FD9E"/>
		<stop  offset="0.213" style="stop-color:#14EBC1"/>
		<stop  offset="0.406" style="stop-color:#22DDDC"/>
		<stop  offset="0.6" style="stop-color:#2BD4F0"/>
		<stop  offset="0.796" style="stop-color:#31CEFB"/>
		<stop  offset="1" style="stop-color:#33CCFF"/>
	</linearGradient>
	<path class="st19" d="M149.2,112.6c-3.3-1.4-7.1-1.8-11.8-0.3s-8.2,4.5-10.4,8.1c-4.8,8-3.6,19,3.4,24.4c-3.4-1.9-9.4-5.4-10.5-6.3
		c-5.9-5.4-6.9-15.1-3-22.6c2.2-4.1,5.8-7.5,10.9-9.1c3.9-1.2,7.3-1.2,10.2-0.3C139.9,107,146,110.6,149.2,112.6L149.2,112.6z"/>
	
		<linearGradient id="XMLID_19_" gradientUnits="userSpaceOnUse" x1="323.3078" y1="17058.8223" x2="373.2922" y2="16872.2773" gradientTransform="matrix(1 0 0 1 0 -16676)">
		<stop  offset="0" style="stop-color:#3F91FF"/>
		<stop  offset="0.526" style="stop-color:#053268"/>
		<stop  offset="1" style="stop-color:#0051BF"/>
	</linearGradient>
	<path id="XMLID_20_" class="st20" d="M261.9,339.6V239.5l86.1-50l86.7,50v100.1l-86.1,50L261.9,339.6z"/>
	
		<linearGradient id="XMLID_21_" gradientUnits="userSpaceOnUse" x1="335.82" y1="16962.0762" x2="360.7801" y2="16868.9238" gradientTransform="matrix(1 0 0 1 0 -16676)">
		<stop  offset="0" style="stop-color:#4F3E90"/>
		<stop  offset="1" style="stop-color:#171A31"/>
	</linearGradient>
	<path id="XMLID_49_" class="st21" d="M348,189.5l86.7,50l-86.1,50l-86.7-50L348,189.5z"/>
	
		<linearGradient id="XMLID_22_" gradientUnits="userSpaceOnUse" x1="375.7713" y1="16931.2891" x2="407.5287" y2="17049.8105" gradientTransform="matrix(1 0 0 1 0 -16676)">
		<stop  offset="0" style="stop-color:#3F91FF"/>
		<stop  offset="0.526" style="stop-color:#053268"/>
		<stop  offset="1" style="stop-color:#0051BF"/>
	</linearGradient>
	<path id="XMLID_50_" class="st22" d="M348.6,389.6V289.5l86.1-50v100.1L348.6,389.6z"/>
	
		<linearGradient id="SVGID_12_" gradientUnits="userSpaceOnUse" x1="383.8" y1="193.25" x2="405.96" y2="193.25" gradientTransform="matrix(1 0 0 -1 0 514)">
		<stop  offset="0" style="stop-color:#00FF99"/>
		<stop  offset="2.400000e-02" style="stop-color:#02FD9E"/>
		<stop  offset="0.213" style="stop-color:#14EBC1"/>
		<stop  offset="0.406" style="stop-color:#22DDDC"/>
		<stop  offset="0.6" style="stop-color:#2BD4F0"/>
		<stop  offset="0.796" style="stop-color:#31CEFB"/>
		<stop  offset="1" style="stop-color:#33CCFF"/>
	</linearGradient>
	<path class="st23" d="M406,272.4l-22.2,13.5v83.2l22.2-13.4V272.4z"/>
	
		<linearGradient id="SVGID_13_" gradientUnits="userSpaceOnUse" x1="291.0561" y1="541.3302" x2="313.7439" y2="456.6578" gradientTransform="matrix(1 0 0 1 0 -178.044)">
		<stop  offset="0" style="stop-color:#00FF99"/>
		<stop  offset="2.400000e-02" style="stop-color:#02FD9E"/>
		<stop  offset="0.213" style="stop-color:#14EBC1"/>
		<stop  offset="0.406" style="stop-color:#22DDDC"/>
		<stop  offset="0.6" style="stop-color:#2BD4F0"/>
		<stop  offset="0.796" style="stop-color:#31CEFB"/>
		<stop  offset="1" style="stop-color:#33CCFF"/>
	</linearGradient>
	<path class="st24" d="M313.5,369.3l-22.2-13.5v-83.2l22.2,13.4V369.3z"/>
	<path class="st6" d="M406,356.3l-22.2,12.8l22.2-13.4V356.3z"/>
	<path class="st7" d="M291.3,356.6v-0.8l22.2,13.5L291.3,356.6z"/>
	
		<linearGradient id="XMLID_23_" gradientUnits="userSpaceOnUse" x1="335.22" y1="16986.834" x2="362.005" y2="16886.873" gradientTransform="matrix(1 0 0 1 0 -16676)">
		<stop  offset="0" style="stop-color:#4F3E90"/>
		<stop  offset="1" style="stop-color:#171A31"/>
	</linearGradient>
	<path id="XMLID_3_" class="st25" d="M348.3,207.2l93,53.7l-92.4,53.6l-93-53.6L348.3,207.2z"/>
	
		<linearGradient id="XMLID_24_" gradientUnits="userSpaceOnUse" x1="335.22" y1="16961.334" x2="362.005" y2="16861.373" gradientTransform="matrix(1 0 0 1 0 -16676)">
		<stop  offset="0" style="stop-color:#3F91FF"/>
		<stop  offset="0.526" style="stop-color:#053268"/>
		<stop  offset="1" style="stop-color:#0051BF"/>
	</linearGradient>
	<path id="XMLID_1_" class="st26" d="M348.3,181.7l93,53.7L348.9,289l-93-53.6L348.3,181.7z"/>
	
		<linearGradient id="SVGID_14_" gradientUnits="userSpaceOnUse" x1="388.3073" y1="264.4008" x2="401.9134" y2="213.6218" gradientTransform="matrix(1 0 0 -1 0 514)">
		<stop  offset="0" style="stop-color:#3F91FF"/>
		<stop  offset="0.526" style="stop-color:#053268"/>
		<stop  offset="1" style="stop-color:#0051BF"/>
	</linearGradient>
	<path class="st27" d="M348.9,289v25.5l92.4-53.6v-25.5L348.9,289z"/>
	
		<linearGradient id="SVGID_15_" gradientUnits="userSpaceOnUse" x1="289.3975" y1="287.5757" x2="315.4025" y2="190.5243" gradientTransform="matrix(1 0 0 -1 0 514)">
		<stop  offset="0" style="stop-color:#4F3E90"/>
		<stop  offset="1" style="stop-color:#171A31"/>
	</linearGradient>
	<path class="st28" d="M255.9,235.4v25.5l93,53.6V289L255.9,235.4z"/>
	
		<linearGradient id="SVGID_16_" gradientUnits="userSpaceOnUse" x1="385.345" y1="239.65" x2="407.505" y2="239.65" gradientTransform="matrix(1 0 0 -1 0 514)">
		<stop  offset="0" style="stop-color:#00FF99"/>
		<stop  offset="2.400000e-02" style="stop-color:#02FD9E"/>
		<stop  offset="0.213" style="stop-color:#14EBC1"/>
		<stop  offset="0.406" style="stop-color:#22DDDC"/>
		<stop  offset="0.6" style="stop-color:#2BD4F0"/>
		<stop  offset="0.796" style="stop-color:#31CEFB"/>
		<stop  offset="1" style="stop-color:#33CCFF"/>
	</linearGradient>
	<path class="st29" d="M385.3,293.4v-25.5l22.2-12.6v25.2L385.3,293.4z"/>
	
		<linearGradient id="SVGID_17_" gradientUnits="userSpaceOnUse" x1="289.069" y1="240.25" x2="311.229" y2="240.25" gradientTransform="matrix(1 0 0 -1 0 514)">
		<stop  offset="0" style="stop-color:#00FF99"/>
		<stop  offset="2.400000e-02" style="stop-color:#02FD9E"/>
		<stop  offset="0.213" style="stop-color:#14EBC1"/>
		<stop  offset="0.406" style="stop-color:#22DDDC"/>
		<stop  offset="0.6" style="stop-color:#2BD4F0"/>
		<stop  offset="0.796" style="stop-color:#31CEFB"/>
		<stop  offset="1" style="stop-color:#33CCFF"/>
	</linearGradient>
	<path class="st30" d="M289.1,254.7v25.5l22.1,12.6v-25.2L289.1,254.7z"/>
	
		<linearGradient id="SVGID_18_" gradientUnits="userSpaceOnUse" x1="291.3" y1="279.1" x2="407.5" y2="279.1" gradientTransform="matrix(1 0 0 -1 0 514)">
		<stop  offset="0" style="stop-color:#00FF99"/>
		<stop  offset="2.400000e-02" style="stop-color:#02FD9E"/>
		<stop  offset="0.213" style="stop-color:#14EBC1"/>
		<stop  offset="0.406" style="stop-color:#22DDDC"/>
		<stop  offset="0.6" style="stop-color:#2BD4F0"/>
		<stop  offset="0.796" style="stop-color:#31CEFB"/>
		<stop  offset="1" style="stop-color:#33CCFF"/>
	</linearGradient>
	<path class="st31" d="M385.3,267.9l-94-53.1l22.2-12.9l94,53.4"/>
	
		<linearGradient id="SVGID_19_" gradientUnits="userSpaceOnUse" x1="289.1" y1="279.95" x2="402.7" y2="279.95" gradientTransform="matrix(1 0 0 -1 0 514)">
		<stop  offset="0" style="stop-color:#00FF99"/>
		<stop  offset="2.400000e-02" style="stop-color:#02FD9E"/>
		<stop  offset="0.213" style="stop-color:#14EBC1"/>
		<stop  offset="0.406" style="stop-color:#22DDDC"/>
		<stop  offset="0.6" style="stop-color:#2BD4F0"/>
		<stop  offset="0.796" style="stop-color:#31CEFB"/>
		<stop  offset="1" style="stop-color:#33CCFF"/>
	</linearGradient>
	<path class="st32" d="M289.1,254.7l91.5-54.2l22.1,12.6l-91.5,54.5"/>
	
		<linearGradient id="SVGID_20_" gradientUnits="userSpaceOnUse" x1="336.779" y1="299.5511" x2="373.093" y2="299.5511" gradientTransform="matrix(1 0 0 -1 0 514)">
		<stop  offset="0" style="stop-color:#00FF99"/>
		<stop  offset="2.400000e-02" style="stop-color:#02FD9E"/>
		<stop  offset="0.213" style="stop-color:#14EBC1"/>
		<stop  offset="0.406" style="stop-color:#22DDDC"/>
		<stop  offset="0.6" style="stop-color:#2BD4F0"/>
		<stop  offset="0.796" style="stop-color:#31CEFB"/>
		<stop  offset="1" style="stop-color:#33CCFF"/>
	</linearGradient>
	<path class="st33" d="M373.1,197.7c-2.4-0.8-5.5-0.4-9.2,1.6c-11.9,6.6-11.4,21.1-11.7,31.1c-0.1,4.4-0.3,7.9-1.9,9.4
		c0,0-0.4,0.3-0.7,0.6l-12.9-9.7c2.1-2,1.8-7.7,2-14.2c0.3-9.4,1.4-20.7,11.6-26.3c5.8-3.2,9.4-1.3,12.8,0.9
		C365.3,192.5,371,196.3,373.1,197.7L373.1,197.7z"/>
	
		<linearGradient id="SVGID_21_" gradientUnits="userSpaceOnUse" x1="336.779" y1="284.9" x2="352.196" y2="284.9" gradientTransform="matrix(1 0 0 -1 0 514)">
		<stop  offset="0" style="stop-color:#A300FF"/>
		<stop  offset="0.223" style="stop-color:#A000FF"/>
		<stop  offset="0.394" style="stop-color:#9600FF"/>
		<stop  offset="0.548" style="stop-color:#8600FE"/>
		<stop  offset="0.691" style="stop-color:#6F00FE"/>
		<stop  offset="0.828" style="stop-color:#5100FD"/>
		<stop  offset="0.957" style="stop-color:#2D00FC"/>
		<stop  offset="1" style="stop-color:#1F00FC"/>
	</linearGradient>
	<path class="st34" d="M350.4,239.8c0,0-0.3,0.5-1.1,1.1l-2.4,0.8l-10.1-11c2.1-2,1.8-7.7,2-14.2c0,0.3,0.1,0.6,0.1,0.9
		c-0.1,11.8,13.3,16.6,13.3,16.6S351.9,238.3,350.4,239.8L350.4,239.8z"/>
	<path class="st18" d="M364.9,231.1c-21.7,14.3-14.6,8.6-14.6,8.6c2.1-2.1,1.8-7.9,2-14.6l0.9-0.6c9-6,13.3-14.1,14.1-20.9
		c0.2-2.1,0.1-4-0.3-5.8c5.3-1.7,9.1,0.3,10.9,4.3C381.2,209.2,378,222.5,364.9,231.1z"/>
	<path class="st18" d="M367.3,203.7c0.2-2.1,0.1-4-0.3-5.8c5.3-1.7,9.1,0.3,10.9,4.3C374.5,202.6,370.6,203.2,367.3,203.7z"/>
	<path class="st18" d="M351,239.5c-6.1-0.1-10.4-26.2-27.3-25.8c6.6,7.6,9.9,19.1,13.9,19.2c0,0,4.9-0.6-19.1,8.6
		c-3.9,1.5-7.3,2.1-10.4,2.2c4,5.9,11.9,9,23.8,4.5C355.9,238.9,351,239.5,351,239.5z"/>
	
		<linearGradient id="SVGID_22_" gradientUnits="userSpaceOnUse" x1="295.579" y1="286.3708" x2="330.139" y2="286.3708" gradientTransform="matrix(1 0 0 -1 0 514)">
		<stop  offset="0" style="stop-color:#00FF99"/>
		<stop  offset="2.400000e-02" style="stop-color:#02FD9E"/>
		<stop  offset="0.213" style="stop-color:#14EBC1"/>
		<stop  offset="0.406" style="stop-color:#22DDDC"/>
		<stop  offset="0.6" style="stop-color:#2BD4F0"/>
		<stop  offset="0.796" style="stop-color:#31CEFB"/>
		<stop  offset="1" style="stop-color:#33CCFF"/>
	</linearGradient>
	<path class="st35" d="M330.1,214.9c-3.3-1.4-7.1-1.8-11.8-0.3c-4.7,1.5-8.2,4.5-10.4,8.1c-4.8,8-3.6,19,3.4,24.4
		c-3.4-1.9-9.4-5.4-10.5-6.3c-5.9-5.4-6.9-15.1-3-22.6c2.2-4.1,5.8-7.5,10.9-9.1c3.9-1.2,7.3-1.2,10.2-0.3
		C320.9,209.4,326.9,213,330.1,214.9L330.1,214.9z"/>
	
		<linearGradient id="XMLID_25_" gradientUnits="userSpaceOnUse" x1="145.1203" y1="17089.127" x2="195.1047" y2="16902.5801" gradientTransform="matrix(1 0 0 1 0 -16676)">
		<stop  offset="0" style="stop-color:#3F91FF"/>
		<stop  offset="0.526" style="stop-color:#053268"/>
		<stop  offset="1" style="stop-color:#0051BF"/>
	</linearGradient>
	<path id="XMLID_12_" class="st36" d="M83.7,369.9v-100l86.1-50.1l86.7,50v100.1l-86.1,50L83.7,369.9z"/>
	
		<linearGradient id="XMLID_26_" gradientUnits="userSpaceOnUse" x1="157.6075" y1="16992.4727" x2="182.5925" y2="16899.2285" gradientTransform="matrix(1 0 0 1 0 -16676)">
		<stop  offset="0" style="stop-color:#4F3E90"/>
		<stop  offset="1" style="stop-color:#171A31"/>
	</linearGradient>
	<path id="XMLID_11_" class="st37" d="M169.8,219.8l86.7,50l-86.1,50.1l-86.7-50L169.8,219.8z"/>
	
		<linearGradient id="XMLID_27_" gradientUnits="userSpaceOnUse" x1="197.5716" y1="16961.5898" x2="229.3284" y2="17080.1113" gradientTransform="matrix(1 0 0 1 0 -16676)">
		<stop  offset="0" style="stop-color:#3F91FF"/>
		<stop  offset="0.526" style="stop-color:#053268"/>
		<stop  offset="1" style="stop-color:#0051BF"/>
	</linearGradient>
	<path id="XMLID_8_" class="st38" d="M170.4,419.9v-100l86.1-50.1v100.1L170.4,419.9z"/>
	
		<linearGradient id="SVGID_23_" gradientUnits="userSpaceOnUse" x1="205.561" y1="162.9" x2="227.721" y2="162.9" gradientTransform="matrix(1 0 0 -1 0 514)">
		<stop  offset="0" style="stop-color:#00FF99"/>
		<stop  offset="2.400000e-02" style="stop-color:#02FD9E"/>
		<stop  offset="0.213" style="stop-color:#14EBC1"/>
		<stop  offset="0.406" style="stop-color:#22DDDC"/>
		<stop  offset="0.6" style="stop-color:#2BD4F0"/>
		<stop  offset="0.796" style="stop-color:#31CEFB"/>
		<stop  offset="1" style="stop-color:#33CCFF"/>
	</linearGradient>
	<path class="st39" d="M227.7,302.7l-22.1,13.5v83.3l22.1-13.5V302.7z"/>
	
		<linearGradient id="SVGID_24_" gradientUnits="userSpaceOnUse" x1="112.8562" y1="571.6303" x2="135.5438" y2="486.9577" gradientTransform="matrix(1 0 0 1 0 -178.044)">
		<stop  offset="0" style="stop-color:#00FF99"/>
		<stop  offset="2.400000e-02" style="stop-color:#02FD9E"/>
		<stop  offset="0.213" style="stop-color:#14EBC1"/>
		<stop  offset="0.406" style="stop-color:#22DDDC"/>
		<stop  offset="0.6" style="stop-color:#2BD4F0"/>
		<stop  offset="0.796" style="stop-color:#31CEFB"/>
		<stop  offset="1" style="stop-color:#33CCFF"/>
	</linearGradient>
	<path class="st40" d="M135.3,399.6l-22.2-13.4v-83.3l22.2,13.5V399.6z"/>
	<path class="st6" d="M227.7,386.6l-22.1,12.9l22.1-13.5V386.6z"/>
	<path class="st7" d="M113.1,386.9v-0.7l22.2,13.4L113.1,386.9z"/>
	
		<linearGradient id="XMLID_28_" gradientUnits="userSpaceOnUse" x1="156.9483" y1="17017.2148" x2="183.7584" y2="16917.1602" gradientTransform="matrix(1 0 0 1 0 -16676)">
		<stop  offset="0" style="stop-color:#4F3E90"/>
		<stop  offset="1" style="stop-color:#171A31"/>
	</linearGradient>
	<path id="XMLID_6_" class="st41" d="M170.1,237.5l92.9,53.7l-92.3,53.7l-93-53.7L170.1,237.5z"/>
	
		<linearGradient id="XMLID_29_" gradientUnits="userSpaceOnUse" x1="156.9483" y1="16991.7148" x2="183.7584" y2="16891.6602" gradientTransform="matrix(1 0 0 1 0 -16676)">
		<stop  offset="0" style="stop-color:#3F91FF"/>
		<stop  offset="0.526" style="stop-color:#053268"/>
		<stop  offset="1" style="stop-color:#0051BF"/>
	</linearGradient>
	<path id="XMLID_4_" class="st42" d="M170.1,212l92.9,53.7l-92.3,53.7l-93-53.7L170.1,212z"/>
	
		<linearGradient id="SVGID_25_" gradientUnits="userSpaceOnUse" x1="210.0415" y1="234.11" x2="223.6585" y2="183.29" gradientTransform="matrix(1 0 0 -1 0 514)">
		<stop  offset="0" style="stop-color:#3F91FF"/>
		<stop  offset="0.526" style="stop-color:#053268"/>
		<stop  offset="1" style="stop-color:#0051BF"/>
	</linearGradient>
	<path class="st43" d="M170.7,319.4v25.5l92.3-53.7v-25.5L170.7,319.4z"/>
	
		<linearGradient id="SVGID_26_" gradientUnits="userSpaceOnUse" x1="111.185" y1="257.2723" x2="137.215" y2="160.1276" gradientTransform="matrix(1 0 0 -1 0 514)">
		<stop  offset="0" style="stop-color:#4F3E90"/>
		<stop  offset="1" style="stop-color:#171A31"/>
	</linearGradient>
	<path class="st44" d="M77.7,265.7v25.5l93,53.7v-25.5L77.7,265.7z"/>
	
		<linearGradient id="SVGID_27_" gradientUnits="userSpaceOnUse" x1="207.1" y1="209.35" x2="229.26" y2="209.35" gradientTransform="matrix(1 0 0 -1 0 514)">
		<stop  offset="0" style="stop-color:#00FF99"/>
		<stop  offset="2.400000e-02" style="stop-color:#02FD9E"/>
		<stop  offset="0.213" style="stop-color:#14EBC1"/>
		<stop  offset="0.406" style="stop-color:#22DDDC"/>
		<stop  offset="0.6" style="stop-color:#2BD4F0"/>
		<stop  offset="0.796" style="stop-color:#31CEFB"/>
		<stop  offset="1" style="stop-color:#33CCFF"/>
	</linearGradient>
	<path class="st45" d="M207.1,323.7v-25.5l22.2-12.6v25.2L207.1,323.7z"/>
	
		<linearGradient id="SVGID_28_" gradientUnits="userSpaceOnUse" x1="110.832" y1="209.9" x2="132.992" y2="209.9" gradientTransform="matrix(1 0 0 -1 0 514)">
		<stop  offset="0" style="stop-color:#00FF99"/>
		<stop  offset="2.400000e-02" style="stop-color:#02FD9E"/>
		<stop  offset="0.213" style="stop-color:#14EBC1"/>
		<stop  offset="0.406" style="stop-color:#22DDDC"/>
		<stop  offset="0.6" style="stop-color:#2BD4F0"/>
		<stop  offset="0.796" style="stop-color:#31CEFB"/>
		<stop  offset="1" style="stop-color:#33CCFF"/>
	</linearGradient>
	<path class="st46" d="M110.8,285.1v25.5l22.2,12.5v-25.2L110.8,285.1z"/>
	
		<linearGradient id="SVGID_29_" gradientUnits="userSpaceOnUse" x1="113.1" y1="248.8" x2="229.3" y2="248.8" gradientTransform="matrix(1 0 0 -1 0 514)">
		<stop  offset="0" style="stop-color:#00FF99"/>
		<stop  offset="2.400000e-02" style="stop-color:#02FD9E"/>
		<stop  offset="0.213" style="stop-color:#14EBC1"/>
		<stop  offset="0.406" style="stop-color:#22DDDC"/>
		<stop  offset="0.6" style="stop-color:#2BD4F0"/>
		<stop  offset="0.796" style="stop-color:#31CEFB"/>
		<stop  offset="1" style="stop-color:#33CCFF"/>
	</linearGradient>
	<path class="st47" d="M207.1,298.2l-94-53.1l22.2-12.9l94,53.4"/>
	
		<linearGradient id="SVGID_30_" gradientUnits="userSpaceOnUse" x1="110.8" y1="249.65" x2="224.5" y2="249.65" gradientTransform="matrix(1 0 0 -1 0 514)">
		<stop  offset="0" style="stop-color:#00FF99"/>
		<stop  offset="2.400000e-02" style="stop-color:#02FD9E"/>
		<stop  offset="0.213" style="stop-color:#14EBC1"/>
		<stop  offset="0.406" style="stop-color:#22DDDC"/>
		<stop  offset="0.6" style="stop-color:#2BD4F0"/>
		<stop  offset="0.796" style="stop-color:#31CEFB"/>
		<stop  offset="1" style="stop-color:#33CCFF"/>
	</linearGradient>
	<path class="st48" d="M110.8,285.1l91.5-54.3l22.2,12.6L133,297.9"/>
	
		<linearGradient id="SVGID_31_" gradientUnits="userSpaceOnUse" x1="158.541" y1="269.251" x2="194.855" y2="269.251" gradientTransform="matrix(1 0 0 -1 0 514)">
		<stop  offset="0" style="stop-color:#00FF99"/>
		<stop  offset="2.400000e-02" style="stop-color:#02FD9E"/>
		<stop  offset="0.213" style="stop-color:#14EBC1"/>
		<stop  offset="0.406" style="stop-color:#22DDDC"/>
		<stop  offset="0.6" style="stop-color:#2BD4F0"/>
		<stop  offset="0.796" style="stop-color:#31CEFB"/>
		<stop  offset="1" style="stop-color:#33CCFF"/>
	</linearGradient>
	<path class="st49" d="M194.9,228c-2.4-0.8-5.5-0.4-9.2,1.6c-11.9,6.6-11.4,21.1-11.7,31.1c-0.1,4.4-0.3,7.9-1.9,9.4
		c0,0-0.4,0.3-0.7,0.6l-12.9-9.7c2.1-2,1.8-7.7,2-14.2c0.3-9.4,1.4-20.7,11.6-26.3c5.8-3.2,9.4-1.3,12.8,0.9
		C187.1,222.8,192.7,226.6,194.9,228L194.9,228z"/>
	
		<linearGradient id="SVGID_32_" gradientUnits="userSpaceOnUse" x1="158.541" y1="254.6" x2="173.958" y2="254.6" gradientTransform="matrix(1 0 0 -1 0 514)">
		<stop  offset="0" style="stop-color:#A300FF"/>
		<stop  offset="0.223" style="stop-color:#A000FF"/>
		<stop  offset="0.394" style="stop-color:#9600FF"/>
		<stop  offset="0.548" style="stop-color:#8600FE"/>
		<stop  offset="0.691" style="stop-color:#6F00FE"/>
		<stop  offset="0.828" style="stop-color:#5100FD"/>
		<stop  offset="0.957" style="stop-color:#2D00FC"/>
		<stop  offset="1" style="stop-color:#1F00FC"/>
	</linearGradient>
	<path class="st50" d="M172.1,270.1c0,0-0.3,0.5-1.1,1.1l-2.4,0.8l-10.1-11c2.1-2,1.8-7.7,2-14.2c0,0.3,0.1,0.6,0.1,0.9
		c-0.1,11.8,13.3,16.6,13.3,16.6S173.7,268.6,172.1,270.1L172.1,270.1z"/>
	<path class="st18" d="M186.7,261.5c-21.7,14.3-14.6,8.6-14.6,8.6c2.1-2.1,1.8-7.9,2-14.6l0.9-0.6c9-6,13.3-14.1,14.1-20.9
		c0.2-2.1,0.1-4-0.3-5.8c5.3-1.7,9.1,0.3,10.9,4.3C203,239.6,199.8,252.8,186.7,261.5L186.7,261.5z"/>
	<path class="st18" d="M189.1,234c0.2-2.1,0.1-4-0.3-5.8c5.3-1.7,9.1,0.3,10.9,4.3C196.2,233,192.4,233.5,189.1,234L189.1,234z"/>
	<path class="st18" d="M172.8,269.8c-6.1-0.1-10.4-26.2-27.3-25.8c6.6,7.6,9.9,19.1,13.9,19.2c0,0,4.9-0.6-19.1,8.6
		c-3.9,1.5-7.3,2.1-10.4,2.2c4,5.9,11.9,9,23.8,4.5C177.7,269.3,172.8,269.8,172.8,269.8z"/>
	
		<linearGradient id="SVGID_33_" gradientUnits="userSpaceOnUse" x1="117.341" y1="255.9708" x2="151.901" y2="255.9708" gradientTransform="matrix(1 0 0 -1 0 514)">
		<stop  offset="0" style="stop-color:#00FF99"/>
		<stop  offset="2.400000e-02" style="stop-color:#02FD9E"/>
		<stop  offset="0.213" style="stop-color:#14EBC1"/>
		<stop  offset="0.406" style="stop-color:#22DDDC"/>
		<stop  offset="0.6" style="stop-color:#2BD4F0"/>
		<stop  offset="0.796" style="stop-color:#31CEFB"/>
		<stop  offset="1" style="stop-color:#33CCFF"/>
	</linearGradient>
	<path class="st51" d="M151.9,245.3c-3.3-1.4-7.1-1.8-11.8-0.3s-8.2,4.5-10.4,8.1c-4.8,8-3.6,19,3.4,24.4c-3.4-1.9-9.4-5.4-10.5-6.3
		c-5.9-5.4-6.9-15.1-3-22.6c2.2-4.1,5.8-7.5,10.9-9.1c3.9-1.2,7.3-1.2,10.2-0.3C142.6,239.7,148.7,243.3,151.9,245.3L151.9,245.3z"
		/>
</g>
</svg>
