<?xml version="1.0" encoding="utf-8"?>
<!-- Generator: Adobe Illustrator 23.0.0, SVG Export Plug-In . SVG Version: 6.00 Build 0)  -->
<svg version="1.1" id="Capa_1" xmlns="http://www.w3.org/2000/svg" xmlns:xlink="http://www.w3.org/1999/xlink" x="0px" y="0px"
	 viewBox="0 0 512 512" style="enable-background:new 0 0 512 512;" xml:space="preserve">
<style type="text/css">
	.st0{opacity:0.17;fill:#1D1B30;enable-background:new    ;}
	.st1{fill:url(#SVGID_1_);}
	.st2{fill:url(#SVGID_2_);}
	.st3{fill:url(#SVGID_3_);}
	.st4{fill:url(#SVGID_4_);}
	.st5{fill:url(#SVGID_5_);}
	.st6{fill:url(#SVGID_6_);}
	.st7{fill:url(#SVGID_7_);}
	.st8{fill:url(#SVGID_8_);}
	.st9{fill:url(#SVGID_9_);}
	.st10{fill:url(#SVGID_10_);}
	.st11{fill:url(#SVGID_11_);}
	.st12{fill:url(#SVGID_12_);}
	.st13{fill:url(#SVGID_13_);}
	.st14{fill:url(#SVGID_14_);}
	.st15{fill:url(#SVGID_15_);}
	.st16{opacity:0.17;enable-background:new    ;}
	.st17{clip-path:url(#SVGID_17_);}
	.st18{fill:#1D1B30;}
	.st19{fill:url(#SVGID_18_);}
	.st20{fill:url(#XMLID_3_);}
	.st21{fill:url(#XMLID_4_);}
	.st22{fill:url(#SVGID_19_);}
</style>
<g>
	<path class="st0" d="M61,229.3l439,5.8l12,44l-38,70.3l-142.5,36.2L61,229.3z"/>
	
		<linearGradient id="SVGID_1_" gradientUnits="userSpaceOnUse" x1="149.7" y1="320.8" x2="420.2" y2="320.8" gradientTransform="matrix(1 0 0 -1 0 514)">
		<stop  offset="0" style="stop-color:#00FFBA"/>
		<stop  offset="0.179" style="stop-color:#11E0D1"/>
		<stop  offset="0.378" style="stop-color:#20C5E5"/>
		<stop  offset="0.581" style="stop-color:#2BB1F4"/>
		<stop  offset="0.787" style="stop-color:#31A6FC"/>
		<stop  offset="1" style="stop-color:#33A2FF"/>
	</linearGradient>
	<path class="st1" d="M149.7,177.1v-66.9l68.9,23.2l39.7-31.1l35.5,26.5l46.5-37.2L420.2,53v280.4L149.7,177.1z"/>
	
		<linearGradient id="SVGID_2_" gradientUnits="userSpaceOnUse" x1="389.6652" y1="188.7817" x2="461.1849" y2="455.6996" gradientTransform="matrix(1 0 0 -1 0 514)">
		<stop  offset="0" style="stop-color:#00FFBA"/>
		<stop  offset="0.179" style="stop-color:#11E0D1"/>
		<stop  offset="0.378" style="stop-color:#20C5E5"/>
		<stop  offset="0.581" style="stop-color:#2BB1F4"/>
		<stop  offset="0.787" style="stop-color:#31A6FC"/>
		<stop  offset="1" style="stop-color:#33A2FF"/>
	</linearGradient>
	<path class="st2" d="M420.2,333.4l11.5-6.8V50.4L420.2,53V333.4z"/>
	
		<linearGradient id="SVGID_3_" gradientUnits="userSpaceOnUse" x1="258.3" y1="400.9" x2="302.252" y2="400.9" gradientTransform="matrix(1 0 0 -1 0 514)">
		<stop  offset="0" style="stop-color:#00FFBA"/>
		<stop  offset="0.179" style="stop-color:#11E0D1"/>
		<stop  offset="0.378" style="stop-color:#20C5E5"/>
		<stop  offset="0.581" style="stop-color:#2BB1F4"/>
		<stop  offset="0.787" style="stop-color:#31A6FC"/>
		<stop  offset="1" style="stop-color:#33A2FF"/>
	</linearGradient>
	<path class="st3" d="M258.3,102.3l7.9-4.9l36.1,24.6l-8.5,6.8L258.3,102.3z"/>
	
		<linearGradient id="SVGID_4_" gradientUnits="userSpaceOnUse" x1="120.1" y1="288.5" x2="390.6" y2="288.5" gradientTransform="matrix(1 0 0 -1 0 514)">
		<stop  offset="0" style="stop-color:#3F91FF"/>
		<stop  offset="0.526" style="stop-color:#053268"/>
		<stop  offset="1" style="stop-color:#0051BF"/>
	</linearGradient>
	<path class="st4" d="M120.1,194.5v-71.9l35-22.4l73.9,36.6l69.2-14.2l46.3,24.6l46.1-42.5v246.1L120.1,194.5z"/>
	
		<linearGradient id="SVGID_5_" gradientUnits="userSpaceOnUse" x1="390.6" y1="289.4" x2="402.1" y2="289.4" gradientTransform="matrix(1 0 0 -1 0 514)">
		<stop  offset="0" style="stop-color:#3F91FF"/>
		<stop  offset="0.526" style="stop-color:#053268"/>
		<stop  offset="1" style="stop-color:#0051BF"/>
	</linearGradient>
	<path class="st5" d="M390.6,350.8l11.5-6.7V98.4l-11.5,6.3V350.8z"/>
	
		<linearGradient id="SVGID_6_" gradientUnits="userSpaceOnUse" x1="155.1" y1="397.7" x2="239.2" y2="397.7" gradientTransform="matrix(1 0 0 -1 0 514)">
		<stop  offset="0" style="stop-color:#3F91FF"/>
		<stop  offset="0.526" style="stop-color:#053268"/>
		<stop  offset="1" style="stop-color:#0051BF"/>
	</linearGradient>
	<path class="st6" d="M155.1,100.2l7.7-4.4l76.4,38.9l-10.2,2.1L155.1,100.2z"/>
	
		<linearGradient id="SVGID_7_" gradientUnits="userSpaceOnUse" x1="298.2" y1="380.75" x2="350.9" y2="380.75" gradientTransform="matrix(1 0 0 -1 0 514)">
		<stop  offset="0" style="stop-color:#3F91FF"/>
		<stop  offset="0.526" style="stop-color:#053268"/>
		<stop  offset="1" style="stop-color:#0051BF"/>
	</linearGradient>
	<path class="st7" d="M298.2,122.6l9.4-3.3l43.3,22.1l-6.4,5.8L298.2,122.6z"/>
	
		<linearGradient id="SVGID_8_" gradientUnits="userSpaceOnUse" x1="90.6" y1="273.75" x2="361.1" y2="273.75" gradientTransform="matrix(1 0 0 -1 0 514)">
		<stop  offset="0" style="stop-color:#00FF99"/>
		<stop  offset="2.400000e-02" style="stop-color:#02FD9E"/>
		<stop  offset="0.213" style="stop-color:#14EBC1"/>
		<stop  offset="0.406" style="stop-color:#22DDDC"/>
		<stop  offset="0.6" style="stop-color:#2BD4F0"/>
		<stop  offset="0.796" style="stop-color:#31CEFB"/>
		<stop  offset="1" style="stop-color:#33CCFF"/>
	</linearGradient>
	<path class="st8" d="M90.6,211.9v-51.1l68.2-39.5l65.8,28.6l41.6-14.8l27.3,21.8l67.6-44.6v255.9L90.6,211.9z"/>
	
		<linearGradient id="SVGID_9_" gradientUnits="userSpaceOnUse" x1="333.6398" y1="153.1579" x2="399.9352" y2="400.5756" gradientTransform="matrix(1 0 0 -1 0 514)">
		<stop  offset="0" style="stop-color:#00FF99"/>
		<stop  offset="3.400000e-02" style="stop-color:#08F7A9"/>
		<stop  offset="0.103" style="stop-color:#15EAC4"/>
		<stop  offset="0.183" style="stop-color:#20DFDA"/>
		<stop  offset="0.276" style="stop-color:#29D6EB"/>
		<stop  offset="0.391" style="stop-color:#2FD0F6"/>
		<stop  offset="0.552" style="stop-color:#32CDFD"/>
		<stop  offset="1" style="stop-color:#33CCFF"/>
	</linearGradient>
	<path class="st9" d="M361.1,368.2l11.5-6.7V106.1l-11.5,6.2V368.2z"/>
	
		<linearGradient id="SVGID_10_" gradientUnits="userSpaceOnUse" x1="158.8" y1="380.55" x2="235" y2="380.55" gradientTransform="matrix(1 0 0 -1 0 514)">
		<stop  offset="0" style="stop-color:#00FF99"/>
		<stop  offset="1" style="stop-color:#33CCFF"/>
	</linearGradient>
	<path class="st10" d="M158.8,121.3l7.7-4.3l68.5,29.1l-10.4,3.8L158.8,121.3z"/>
	
		<linearGradient id="SVGID_11_" gradientUnits="userSpaceOnUse" x1="266.2" y1="369.45" x2="300.063" y2="369.45" gradientTransform="matrix(1 0 0 -1 0 514)">
		<stop  offset="0" style="stop-color:#00FF99"/>
		<stop  offset="1" style="stop-color:#33CCFF"/>
	</linearGradient>
	<path class="st11" d="M266.2,135.1l6.7-2.9l27.2,20.3l-6.6,4.4L266.2,135.1z"/>
	
		<linearGradient id="SVGID_12_" gradientUnits="userSpaceOnUse" x1="61" y1="246.65" x2="331.5" y2="246.65" gradientTransform="matrix(1 0 0 -1 0 514)">
		<stop  offset="0" style="stop-color:#3F91FF"/>
		<stop  offset="0.526" style="stop-color:#053268"/>
		<stop  offset="1" style="stop-color:#0051BF"/>
	</linearGradient>
	<path class="st12" d="M61,229.3v-40.1l35.1-19.7l99,19.7l35-20.4l33.8,21.1l67.6-40.8v236.5L61,229.3z"/>
	
		<linearGradient id="SVGID_13_" gradientUnits="userSpaceOnUse" x1="331.5" y1="249.8" x2="343.1" y2="249.8" gradientTransform="matrix(1 0 0 -1 0 514)">
		<stop  offset="0" style="stop-color:#3F91FF"/>
		<stop  offset="0.526" style="stop-color:#053268"/>
		<stop  offset="1" style="stop-color:#0051BF"/>
	</linearGradient>
	<path class="st13" d="M331.5,385.6l11.6-6.7V142.8l-11.6,6.3V385.6z"/>
	
		<linearGradient id="SVGID_14_" gradientUnits="userSpaceOnUse" x1="96.1" y1="337.55" x2="206.5" y2="337.55" gradientTransform="matrix(1 0 0 -1 0 514)">
		<stop  offset="0" style="stop-color:#3F91FF"/>
		<stop  offset="0.526" style="stop-color:#053268"/>
		<stop  offset="1" style="stop-color:#0051BF"/>
	</linearGradient>
	<path class="st14" d="M96.1,169.5l10.6-5.8l99.8,18.7l-11.4,6.8L96.1,169.5z"/>
	
		<linearGradient id="SVGID_15_" gradientUnits="userSpaceOnUse" x1="230.1" y1="336.65" x2="271.757" y2="336.65" gradientTransform="matrix(1 0 0 -1 0 514)">
		<stop  offset="0" style="stop-color:#3F91FF"/>
		<stop  offset="0.526" style="stop-color:#053268"/>
		<stop  offset="1" style="stop-color:#0051BF"/>
	</linearGradient>
	<path class="st15" d="M230.1,168.8l7.6-4l34.1,20.4l-7.9,4.7L230.1,168.8z"/>
	<g id="XMLID_7_" class="st16">
		<g>
			<defs>
				<polygon id="SVGID_16_" points="53.8,390 127.7,347 202.2,390 128.2,433 				"/>
			</defs>
			<clipPath id="SVGID_17_">
				<use xlink:href="#SVGID_16_"  style="overflow:visible;"/>
			</clipPath>
			<g class="st17">
				<path class="st18" d="M165,368.5c-20.6-11.9-53.8-11.9-74.2,0s-20.3,31.1,0.2,43c20.6,11.9,53.8,11.9,74.2,0
					S185.5,380.4,165,368.5"/>
			</g>
		</g>
	</g>
	
		<linearGradient id="SVGID_18_" gradientUnits="userSpaceOnUse" x1="52.5" y1="17031.3691" x2="203.4363" y2="17031.3691" gradientTransform="matrix(1 0 0 1 0 -16676)">
		<stop  offset="0" style="stop-color:#3F91FF"/>
		<stop  offset="0.526" style="stop-color:#053268"/>
		<stop  offset="1" style="stop-color:#0051BF"/>
	</linearGradient>
	<path class="st19" d="M52.5,354.2c0,0,0,40.7,69.7,44.2c69.7,3.6,81-37.6,81-37.6s7.5-40.5-62-48c0,0-40.2-5.4-70.3,14.1
		C71,326.8,54.9,334.7,52.5,354.2z"/>
	
		<linearGradient id="XMLID_3_" gradientUnits="userSpaceOnUse" x1="4199.666" y1="-1564.4371" x2="4322.0957" y2="-1564.4371" gradientTransform="matrix(-1 0 0 1.1206 4388.957 2088.0583)">
		<stop  offset="0" style="stop-color:#3F91FF"/>
		<stop  offset="0.526" style="stop-color:#053268"/>
		<stop  offset="1" style="stop-color:#0051BF"/>
	</linearGradient>
	<path id="XMLID_5_" class="st20" d="M189,350.6c0,0-0.9-24.3-60.9-25.7c0,0-56.3-0.4-60.9,25.7c0,0-8.6-28.5,60.9-31.3
		C128,319.4,194.2,320.6,189,350.6z"/>
	
		<linearGradient id="XMLID_4_" gradientUnits="userSpaceOnUse" x1="115.4796" y1="17083.4395" x2="134.417" y2="17012.7637" gradientTransform="matrix(1 0 0 1 0 -16676)">
		<stop  offset="0" style="stop-color:#3F91FF"/>
		<stop  offset="0.526" style="stop-color:#053268"/>
		<stop  offset="1" style="stop-color:#0051BF"/>
	</linearGradient>
	<path id="XMLID_2_" class="st21" d="M52.4,355.3c0,0,1.1,40.1,75.6,42.5c0,0,69.8,0.6,75.6-42.5c0,0,10.6,47.1-75.6,51.7
		C128,407,45.9,404.9,52.4,355.3z"/>
	
		<linearGradient id="SVGID_19_" gradientUnits="userSpaceOnUse" x1="80.6" y1="17029.1895" x2="162.3" y2="17029.1895" gradientTransform="matrix(1 0 0 1 0 -16676)">
		<stop  offset="0" style="stop-color:#00FF99"/>
		<stop  offset="2.400000e-02" style="stop-color:#02FD9E"/>
		<stop  offset="0.213" style="stop-color:#14EBC1"/>
		<stop  offset="0.406" style="stop-color:#22DDDC"/>
		<stop  offset="0.6" style="stop-color:#2BD4F0"/>
		<stop  offset="0.796" style="stop-color:#31CEFB"/>
		<stop  offset="1" style="stop-color:#33CCFF"/>
	</linearGradient>
	<path class="st22" d="M157.1,345.6l5.2-2.8l-9.4-5.1l-4.8,3.2l-4.1-2.7l5.4-2.8l-9.1-5.2l-5.1,3l-6.7-3.9l-8.9,5.2l4.4,2.8
		l-29.7,17.1l-4.7-2.7l-9,5.2l6.7,3.8l-4.2,2.5l8.9,5.1l4.2-2.3l3.9,2.2l-4.2,2.4l9,5.2l4.1-2.4c10.9,5.5,22.3,3.2,22.3,3.2
		c14.3-4.5,12.6-12.1,12.6-12.1c10.4-0.7,15.2-5.6,15.2-5.6C166,351.3,157.1,345.6,157.1,345.6L157.1,345.6z M130,367.6
		c-4.1,3-10.6,1.1-10.6,1.1l-16.2-9.4l11.5-6.7l15.3,8.8C130,361.5,134.2,364.6,130,367.6z M147,355.8c-4.8,2.6-9.5,0-9.5,0
		l-13.9-8.1l9.7-5.7l14.4,8.4C147.7,350.3,151.8,353.1,147,355.8L147,355.8z"/>
</g>
</svg>
