<?xml version="1.0" encoding="utf-8"?>
<!-- Generator: Adobe Illustrator 23.0.0, SVG Export Plug-In . SVG Version: 6.00 Build 0)  -->
<svg version="1.1" id="Capa_1" xmlns="http://www.w3.org/2000/svg" xmlns:xlink="http://www.w3.org/1999/xlink" x="0px" y="0px"
	 viewBox="0 0 512 512" style="enable-background:new 0 0 512 512;" xml:space="preserve">
<style type="text/css">
	.st0{opacity:0.17;}
	.st1{enable-background:new    ;}
	.st2{clip-path:url(#SVGID_2_);fill:#1D1B30;}
	.st3{fill:url(#SVGID_3_);}
	.st4{fill:url(#XMLID_4_);}
	.st5{fill:url(#XMLID_8_);}
	.st6{fill:url(#SVGID_4_);}
	.st7{clip-path:url(#SVGID_6_);fill:#1D1B30;}
	.st8{fill:url(#SVGID_7_);}
	.st9{fill:url(#XMLID_9_);}
	.st10{fill:url(#XMLID_10_);}
	.st11{fill:url(#SVGID_8_);}
	.st12{clip-path:url(#SVGID_10_);fill:#1D1B30;}
	.st13{fill:url(#SVGID_11_);}
	.st14{fill:url(#XMLID_11_);}
	.st15{fill:url(#XMLID_15_);}
	.st16{fill:url(#SVGID_12_);}
</style>
<g>
	<g id="XMLID_26_" class="st0">
		<g class="st1">
			<g>
				<defs>
					<polygon id="SVGID_1_" points="12.5,208.8 139.4,135 267.2,208.8 140.3,282.6 					"/>
				</defs>
				<clipPath id="SVGID_2_">
					<use xlink:href="#SVGID_1_"  style="overflow:visible;"/>
				</clipPath>
				<path class="st2" d="M203.3,171.9c-35.3-20.4-92.3-20.4-127.4,0s-34.9,53.4,0.4,73.8s92.3,20.4,127.4,0S238.6,192.3,203.3,171.9
					"/>
			</g>
		</g>
	</g>
	
		<linearGradient id="SVGID_3_" gradientUnits="userSpaceOnUse" x1="23.5" y1="16831.2734" x2="256.1677" y2="16831.2734" gradientTransform="matrix(1 0 0 1 0 -16676)">
		<stop  offset="0" style="stop-color:#3F91FF"/>
		<stop  offset="0.526" style="stop-color:#053268"/>
		<stop  offset="1" style="stop-color:#0051BF"/>
	</linearGradient>
	<path class="st3" d="M23.5,153.6c0,0,0,62.7,107.4,68.1s124.9-58,124.9-58s11.6-62.4-95.5-74.1c0,0-61.9-8.4-108.3,21.7
		C52,111.4,27.2,123.6,23.5,153.6L23.5,153.6z"/>
	
		<linearGradient id="XMLID_4_" gradientUnits="userSpaceOnUse" x1="4154.6987" y1="-1752.6846" x2="4343.4731" y2="-1752.6846" gradientTransform="matrix(-1 0 0 1.1206 4388.957 2088.0583)">
		<stop  offset="0" style="stop-color:#3F91FF"/>
		<stop  offset="0.526" style="stop-color:#053268"/>
		<stop  offset="1" style="stop-color:#0051BF"/>
	</linearGradient>
	<path id="XMLID_1_" class="st4" d="M233.8,148.1c0,0-1.3-37.4-93.9-39.6c0,0-86.8-0.6-93.9,39.6c0,0-13.2-43.9,93.9-48.2
		C139.9,99.9,241.9,101.9,233.8,148.1L233.8,148.1z"/>
	
		<linearGradient id="XMLID_8_" gradientUnits="userSpaceOnUse" x1="120.5171" y1="16911.748" x2="149.7005" y2="16802.8359" gradientTransform="matrix(1 0 0 1 0 -16676)">
		<stop  offset="0" style="stop-color:#3F91FF"/>
		<stop  offset="0.526" style="stop-color:#053268"/>
		<stop  offset="1" style="stop-color:#0051BF"/>
	</linearGradient>
	<path id="XMLID_6_" class="st5" d="M23.3,155.4c0,0,1.6,61.9,116.5,65.6c0,0,107.7,0.9,116.5-65.6c0,0,16.4,72.7-116.5,79.7
		C139.8,235.1,13.4,231.8,23.3,155.4L23.3,155.4z"/>
	
		<linearGradient id="SVGID_4_" gradientUnits="userSpaceOnUse" x1="66.8" y1="16828.1289" x2="192.7" y2="16828.1289" gradientTransform="matrix(1 0 0 1 0 -16676)">
		<stop  offset="0" style="stop-color:#00FF99"/>
		<stop  offset="2.400000e-02" style="stop-color:#02FD9E"/>
		<stop  offset="0.213" style="stop-color:#14EBC1"/>
		<stop  offset="0.406" style="stop-color:#22DDDC"/>
		<stop  offset="0.6" style="stop-color:#2BD4F0"/>
		<stop  offset="0.796" style="stop-color:#31CEFB"/>
		<stop  offset="1" style="stop-color:#33CCFF"/>
	</linearGradient>
	<path class="st6" d="M184.7,140.4l8-4.3l-14.4-7.8l-7.5,4.9l-6.3-4.2l8.3-4.3l-14.1-8l-7.8,4.6l-10.4-6l-13.6,8l6.8,4.3L87.9,154
		l-7.3-4.1L66.8,158l10.4,5.9l-6.4,3.8l13.8,7.9L91,172l6,3.3l-6.5,3.7l13.9,8.1l6.3-3.8c16.8,8.5,34.4,4.9,34.4,4.9
		c22-6.9,19.4-18.7,19.4-18.7c16-1.1,23.5-8.6,23.5-8.6C198.5,149.2,184.7,140.4,184.7,140.4z M143,174.3
		c-6.3,4.7-16.3,1.7-16.3,1.7l-25-14.4l17.8-10.3l23.5,13.6C143,164.9,149.4,169.6,143,174.3z M169.2,156.1c-7.4,4.1-14.6,0-14.6,0
		l-21.5-12.6l15-8.8l22.2,12.9C170.2,147.6,176.5,152,169.2,156.1L169.2,156.1z"/>
	<g id="XMLID_7_" class="st0">
		<g class="st1">
			<g>
				<defs>
					<polygon id="SVGID_5_" points="257.8,265.2 371.8,198.9 486.5,265.2 372.5,331.4 					"/>
				</defs>
				<clipPath id="SVGID_6_">
					<use xlink:href="#SVGID_5_"  style="overflow:visible;"/>
				</clipPath>
				<path class="st7" d="M429.2,232c-31.7-18.3-82.9-18.3-114.4,0s-31.3,48,0.4,66.3s82.9,18.3,114.4,0
					C461,280,460.9,250.3,429.2,232"/>
			</g>
		</g>
	</g>
	
		<linearGradient id="SVGID_7_" gradientUnits="userSpaceOnUse" x1="255.9" y1="16887.6738" x2="488.5677" y2="16887.6738" gradientTransform="matrix(1 0 0 1 0 -16676)">
		<stop  offset="0" style="stop-color:#3F91FF"/>
		<stop  offset="0.526" style="stop-color:#053268"/>
		<stop  offset="1" style="stop-color:#0051BF"/>
	</linearGradient>
	<path class="st8" d="M255.9,210c0,0,0,62.7,107.4,68.1s124.9-58,124.9-58s11.6-62.4-95.5-74.1c0,0-61.9-8.4-108.3,21.7
		C284.3,167.8,259.5,180,255.9,210L255.9,210z"/>
	
		<linearGradient id="XMLID_9_" gradientUnits="userSpaceOnUse" x1="3922.3989" y1="-1702.3544" x2="4111.1733" y2="-1702.3544" gradientTransform="matrix(-1 0 0 1.1206 4388.957 2088.0583)">
		<stop  offset="0" style="stop-color:#3F91FF"/>
		<stop  offset="0.526" style="stop-color:#053268"/>
		<stop  offset="1" style="stop-color:#0051BF"/>
	</linearGradient>
	<path id="XMLID_5_" class="st9" d="M466.1,204.5c0,0-1.3-37.4-93.9-39.6c0,0-86.8-0.6-93.9,39.6c0,0-13.2-43.9,93.9-48.2
		C372.2,156.3,474.2,158.3,466.1,204.5z"/>
	
		<linearGradient id="XMLID_10_" gradientUnits="userSpaceOnUse" x1="352.9122" y1="16968.166" x2="382.1005" y2="16859.2363" gradientTransform="matrix(1 0 0 1 0 -16676)">
		<stop  offset="0" style="stop-color:#3F91FF"/>
		<stop  offset="0.526" style="stop-color:#053268"/>
		<stop  offset="1" style="stop-color:#0051BF"/>
	</linearGradient>
	<path id="XMLID_2_" class="st10" d="M255.7,211.8c0,0,1.6,61.9,116.5,65.6c0,0,107.7,0.9,116.5-65.6c0,0,16.4,72.7-116.5,79.7
		C372.1,291.5,245.7,288.2,255.7,211.8z"/>
	
		<linearGradient id="SVGID_8_" gradientUnits="userSpaceOnUse" x1="299.2" y1="16884.5293" x2="425.1" y2="16884.5293" gradientTransform="matrix(1 0 0 1 0 -16676)">
		<stop  offset="0" style="stop-color:#00FF99"/>
		<stop  offset="2.400000e-02" style="stop-color:#02FD9E"/>
		<stop  offset="0.213" style="stop-color:#14EBC1"/>
		<stop  offset="0.406" style="stop-color:#22DDDC"/>
		<stop  offset="0.6" style="stop-color:#2BD4F0"/>
		<stop  offset="0.796" style="stop-color:#31CEFB"/>
		<stop  offset="1" style="stop-color:#33CCFF"/>
	</linearGradient>
	<path class="st11" d="M417.1,196.8l8-4.3l-14.4-7.8l-7.5,4.9l-6.3-4.2l8.3-4.3l-14.1-8l-7.8,4.6l-10.4-6l-13.6,8l6.8,4.3
		l-45.8,26.4l-7.3-4.1l-13.8,8.1l10.4,5.9l-6.4,3.8L317,232l6.4-3.6l6,3.3l-6.5,3.7l13.9,8.1l6.3-3.8c16.8,8.5,34.4,4.9,34.4,4.9
		c22-6.9,19.4-18.7,19.4-18.7c16-1.1,23.5-8.6,23.5-8.6C430.8,205.6,417.1,196.8,417.1,196.8L417.1,196.8z M375.3,230.7
		c-6.3,4.7-16.3,1.7-16.3,1.7L334,218l17.8-10.3l23.5,13.6C375.3,221.3,381.7,226,375.3,230.7L375.3,230.7z M401.5,212.4
		c-7.4,4.1-14.6,0-14.6,0l-21.5-12.6l15-8.8l22.2,12.9C402.6,204,408.9,208.4,401.5,212.4L401.5,212.4z"/>
	<g id="XMLID_14_" class="st0">
		<g class="st1">
			<g>
				<defs>
					<polygon id="SVGID_9_" points="13.1,372.9 145.4,296.1 278.5,372.9 146.3,449.8 					"/>
				</defs>
				<clipPath id="SVGID_10_">
					<use xlink:href="#SVGID_9_"  style="overflow:visible;"/>
				</clipPath>
				<path class="st12" d="M212,334.5c-36.8-21.2-96.2-21.2-132.7,0s-36.3,55.6,0.4,76.9s96.2,21.2,132.7,0
					C248.9,390.1,248.7,355.7,212,334.5"/>
			</g>
		</g>
	</g>
	
		<linearGradient id="SVGID_11_" gradientUnits="userSpaceOnUse" x1="29.5" y1="16995.4746" x2="262.1677" y2="16995.4746" gradientTransform="matrix(1 0 0 1 0 -16676)">
		<stop  offset="0" style="stop-color:#3F91FF"/>
		<stop  offset="0.526" style="stop-color:#053268"/>
		<stop  offset="1" style="stop-color:#0051BF"/>
	</linearGradient>
	<path class="st13" d="M29.5,317.8c0,0,0,62.7,107.4,68.1s124.9-58,124.9-58s11.6-62.4-95.5-74.1c0,0-61.9-8.4-108.3,21.7
		C57.9,275.6,33.2,287.7,29.5,317.8L29.5,317.8z"/>
	
		<linearGradient id="XMLID_11_" gradientUnits="userSpaceOnUse" x1="4148.7095" y1="-1606.2451" x2="4337.4731" y2="-1606.2451" gradientTransform="matrix(-1 0 0 1.1206 4388.957 2088.0583)">
		<stop  offset="0" style="stop-color:#3F91FF"/>
		<stop  offset="0.526" style="stop-color:#053268"/>
		<stop  offset="1" style="stop-color:#0051BF"/>
	</linearGradient>
	<path id="XMLID_13_" class="st14" d="M239.8,312.2c0,0-1.3-37.4-93.9-39.6c0,0-86.8-0.6-93.9,39.6c0,0-13.2-43.9,93.9-48.2
		C145.9,264.1,247.8,266,239.8,312.2L239.8,312.2z"/>
	
		<linearGradient id="XMLID_15_" gradientUnits="userSpaceOnUse" x1="126.5098" y1="17075.877" x2="155.6999" y2="16966.9375" gradientTransform="matrix(1 0 0 1 0 -16676)">
		<stop  offset="0" style="stop-color:#3F91FF"/>
		<stop  offset="0.526" style="stop-color:#053268"/>
		<stop  offset="1" style="stop-color:#0051BF"/>
	</linearGradient>
	<path id="XMLID_12_" class="st15" d="M29.3,319.5c0,0,1.6,61.9,116.5,65.6c0,0,107.7,0.9,116.5-65.6c0,0,16.4,72.7-116.5,79.7
		C145.8,399.2,19.4,396,29.3,319.5L29.3,319.5z"/>
	<linearGradient id="SVGID_12_" gradientUnits="userSpaceOnUse" x1="72.8" y1="316.2286" x2="198.7" y2="316.2286">
		<stop  offset="0" style="stop-color:#00FF99"/>
		<stop  offset="2.400000e-02" style="stop-color:#02FD9E"/>
		<stop  offset="0.213" style="stop-color:#14EBC1"/>
		<stop  offset="0.406" style="stop-color:#22DDDC"/>
		<stop  offset="0.6" style="stop-color:#2BD4F0"/>
		<stop  offset="0.796" style="stop-color:#31CEFB"/>
		<stop  offset="1" style="stop-color:#33CCFF"/>
	</linearGradient>
	<path class="st16" d="M190.7,304.5l8-4.3l-14.4-7.8l-7.5,4.9l-6.3-4.2l8.3-4.3l-14.1-8l-7.8,4.6l-10.4-6l-13.6,8l6.8,4.3
		l-45.8,26.4l-7.3-4.1l-13.8,8.1l10.4,5.9l-6.4,3.8l13.8,7.9l6.4-3.6l6,3.3l-6.5,3.7l13.9,8.1l6.3-3.8c16.8,8.5,34.4,4.9,34.4,4.9
		c22-6.9,19.4-18.7,19.4-18.7c16-1.1,23.5-8.6,23.5-8.6C204.4,313.4,190.7,304.5,190.7,304.5L190.7,304.5z M149,338.5
		c-6.3,4.7-16.3,1.7-16.3,1.7l-25-14.4l17.8-10.3l23.5,13.6C149,329.1,155.3,333.8,149,338.5L149,338.5z M175.1,320.2
		c-7.4,4.1-14.6,0-14.6,0L139,307.6l15-8.8l22.2,12.9C176.2,311.7,182.5,316.1,175.1,320.2L175.1,320.2z"/>
</g>
</svg>
