<?xml version="1.0" encoding="utf-8"?>
<!-- Generator: Adobe Illustrator 23.0.0, SVG Export Plug-In . SVG Version: 6.00 Build 0)  -->
<svg version="1.1" id="Layer_1" xmlns="http://www.w3.org/2000/svg" xmlns:xlink="http://www.w3.org/1999/xlink" x="0px" y="0px"
	 viewBox="0 0 512 512" style="enable-background:new 0 0 512 512;" xml:space="preserve">
<style type="text/css">
	.st0{fill:url(#SVGID_1_);stroke:url(#SVGID_2_);stroke-width:0.25;stroke-miterlimit:10;}
	.st1{fill:url(#SVGID_3_);stroke:url(#SVGID_4_);stroke-width:0.25;stroke-miterlimit:10;}
	.st2{fill:url(#SVGID_5_);stroke:url(#SVGID_6_);stroke-width:0.25;stroke-miterlimit:10;}
	.st3{fill:url(#SVGID_7_);stroke:url(#SVGID_8_);stroke-width:0.25;stroke-miterlimit:10;}
	.st4{fill:url(#SVGID_9_);stroke:url(#SVGID_10_);stroke-width:0.25;stroke-miterlimit:10;}
	.st5{fill:url(#SVGID_11_);stroke:url(#SVGID_12_);stroke-width:0.25;stroke-miterlimit:10;}
	.st6{fill:url(#SVGID_13_);stroke:url(#SVGID_14_);stroke-width:0.25;stroke-miterlimit:10;}
	.st7{fill:url(#SVGID_15_);stroke:url(#SVGID_16_);stroke-width:0.25;stroke-miterlimit:10;}
	.st8{fill:url(#SVGID_17_);stroke:url(#SVGID_18_);stroke-width:0.25;stroke-miterlimit:10;}
	.st9{fill:url(#SVGID_19_);stroke:url(#SVGID_20_);stroke-width:0.25;stroke-miterlimit:10;}
	.st10{fill:url(#SVGID_21_);stroke:url(#SVGID_22_);stroke-width:0.25;stroke-miterlimit:10;}
	.st11{fill:url(#SVGID_23_);stroke:url(#SVGID_24_);stroke-width:0.25;stroke-miterlimit:10;}
	.st12{fill:url(#SVGID_25_);stroke:url(#SVGID_26_);stroke-width:0.25;stroke-miterlimit:10;}
	.st13{fill:url(#SVGID_27_);stroke:url(#SVGID_28_);stroke-width:0.25;stroke-miterlimit:10;}
	.st14{fill:url(#SVGID_29_);stroke:url(#SVGID_30_);stroke-width:0.25;stroke-miterlimit:10;}
	.st15{fill:url(#SVGID_31_);stroke:url(#SVGID_32_);stroke-width:0.25;stroke-miterlimit:10;}
	.st16{fill:url(#SVGID_33_);stroke:url(#SVGID_34_);stroke-width:0.25;stroke-miterlimit:10;}
	.st17{fill:url(#SVGID_35_);stroke:url(#SVGID_36_);stroke-width:0.25;stroke-miterlimit:10;}
</style>
<g>
	
		<linearGradient id="SVGID_1_" gradientUnits="userSpaceOnUse" x1="0" y1="186.3" x2="511.9005" y2="186.3" gradientTransform="matrix(1 0 0 -1 0 514)">
		<stop  offset="0" style="stop-color:#00A2B9"/>
		<stop  offset="0.1624" style="stop-color:#08A0B9"/>
		<stop  offset="0.4101" style="stop-color:#1D9CBA"/>
		<stop  offset="0.7104" style="stop-color:#3F94BB"/>
		<stop  offset="1" style="stop-color:#678BBD"/>
	</linearGradient>
	<linearGradient id="SVGID_2_" gradientUnits="userSpaceOnUse" x1="-0.125" y1="327.7" x2="512.0255" y2="327.7">
		<stop  offset="0" style="stop-color:#000000"/>
		<stop  offset="9.804320e-02" style="stop-color:#000208"/>
		<stop  offset="0.2477" style="stop-color:#00081D"/>
		<stop  offset="0.4302" style="stop-color:#001240"/>
		<stop  offset="0.6388" style="stop-color:#002070"/>
		<stop  offset="0.8661" style="stop-color:#0032AD"/>
		<stop  offset="1" style="stop-color:#003DD4"/>
	</linearGradient>
	<path class="st0" d="M477.9,199.7H179.2c0-37.7-30.6-68.3-68.3-68.3S42.7,162,42.7,199.7h-8.5C15.3,199.7,0,215,0,233.9v256
		C0,508.7,15.3,524,34.1,524h443.7c18.9,0,34.1-15.3,34.1-34.1v-256C512,215,496.7,199.7,477.9,199.7L477.9,199.7z M110.9,148.5
		c28.3,0,51.2,22.9,51.2,51.2s-22.9,51.2-51.2,51.2S59.7,228,59.7,199.7C59.8,171.5,82.7,148.6,110.9,148.5z M59.7,250.9h6.2
		c25.7,22.8,64.3,22.8,90,0h91.5v42.7h17.1v-42.7h162.1v221.9H59.7V250.9z M494.9,489.9c0,9.4-7.6,17.1-17.1,17.1H34.1
		c-9.4,0-17.1-7.6-17.1-17.1v-256c0-9.4,7.6-17.1,17.1-17.1h10.8c1.5,6,3.9,11.7,7,17.1h-0.7c-4.7,0-8.5,3.8-8.5,8.5v238.9
		c0,4.7,3.8,8.5,8.5,8.5h384c4.7,0,8.5-3.8,8.5-8.5V242.4c0-4.7-3.8-8.5-8.5-8.5H170c3.1-5.3,5.4-11.1,7-17.1h300.9
		c9.4,0,17.1,7.6,17.1,17.1L494.9,489.9L494.9,489.9z"/>
	
		<linearGradient id="SVGID_3_" gradientUnits="userSpaceOnUse" x1="145" y1="139.5004" x2="358.3" y2="139.5004" gradientTransform="matrix(1 0 0 -1 0 514)">
		<stop  offset="0" style="stop-color:#00A2B9"/>
		<stop  offset="0.1624" style="stop-color:#08A0B9"/>
		<stop  offset="0.4101" style="stop-color:#1D9CBA"/>
		<stop  offset="0.7104" style="stop-color:#3F94BB"/>
		<stop  offset="1" style="stop-color:#678BBD"/>
	</linearGradient>
	<linearGradient id="SVGID_4_" gradientUnits="userSpaceOnUse" x1="144.875" y1="374.4996" x2="358.425" y2="374.4996">
		<stop  offset="0" style="stop-color:#000000"/>
		<stop  offset="9.804320e-02" style="stop-color:#000208"/>
		<stop  offset="0.2477" style="stop-color:#00081D"/>
		<stop  offset="0.4302" style="stop-color:#001240"/>
		<stop  offset="0.6388" style="stop-color:#002070"/>
		<stop  offset="0.8661" style="stop-color:#0032AD"/>
		<stop  offset="1" style="stop-color:#003DD4"/>
	</linearGradient>
	<path class="st1" d="M328.8,421.6c2.7-8.3,4-16.9,4-25.6c0.2-47.1-37.9-85.5-85-85.7s-85.5,37.9-85.7,85c0,8.9,1.3,17.8,4,26.3H145
		v17.1h213.3v-17.1L328.8,421.6L328.8,421.6z M264.5,421.6h-25.6v-17.1h25.6c4.7,0,8.5,3.8,8.5,8.5
		C273.1,417.8,269.2,421.6,264.5,421.6z M264.5,387.5h-25.6v-17.1h25.6c4.7,0,8.5,3.8,8.5,8.5C273.1,383.6,269.2,387.5,264.5,387.5z
		 M310.7,421.6h-22.1c3.3-8.8,1.3-18.7-5.1-25.6c9.5-10.3,8.8-26.4-1.6-35.8c-2.6-2.3-5.6-4.1-8.8-5.3v-10.1H256v8.5h-17.1v-8.5
		h-17.1v8.5h-8.5v17.1h8.5v51.2h-37.6c-3.3-8.1-5.1-16.8-5.1-25.6c0-37.7,30.6-68.3,68.3-68.3s68.3,30.6,68.3,68.3
		C315.7,404.8,314,413.5,310.7,421.6L310.7,421.6z"/>
	
		<linearGradient id="SVGID_5_" gradientUnits="userSpaceOnUse" x1="290.1" y1="399.6" x2="426.7" y2="399.6" gradientTransform="matrix(1 0 0 -1 0 514)">
		<stop  offset="0" style="stop-color:#00A2B9"/>
		<stop  offset="0.1624" style="stop-color:#08A0B9"/>
		<stop  offset="0.4101" style="stop-color:#1D9CBA"/>
		<stop  offset="0.7104" style="stop-color:#3F94BB"/>
		<stop  offset="1" style="stop-color:#678BBD"/>
	</linearGradient>
	<linearGradient id="SVGID_6_" gradientUnits="userSpaceOnUse" x1="289.975" y1="114.4" x2="426.825" y2="114.4">
		<stop  offset="0" style="stop-color:#000000"/>
		<stop  offset="9.804320e-02" style="stop-color:#000208"/>
		<stop  offset="0.2477" style="stop-color:#00081D"/>
		<stop  offset="0.4302" style="stop-color:#001240"/>
		<stop  offset="0.6388" style="stop-color:#002070"/>
		<stop  offset="0.8661" style="stop-color:#0032AD"/>
		<stop  offset="1" style="stop-color:#003DD4"/>
	</linearGradient>
	<path class="st2" d="M358.4,46.1c-37.7,0-68.2,30.6-68.3,68.3c0,37.7,30.6,68.3,68.3,68.3s68.3-30.6,68.3-68.3
		S396.1,46.1,358.4,46.1L358.4,46.1z M358.4,165.6c-28.3,0-51.2-22.9-51.2-51.2s22.9-51.2,51.2-51.2c28.3,0,51.2,22.9,51.2,51.2
		S386.7,165.6,358.4,165.6z"/>
	
		<linearGradient id="SVGID_7_" gradientUnits="userSpaceOnUse" x1="273.067" y1="472.15" x2="290.133" y2="472.15" gradientTransform="matrix(1 0 0 -1 0 514)">
		<stop  offset="0" style="stop-color:#00A2B9"/>
		<stop  offset="0.1624" style="stop-color:#08A0B9"/>
		<stop  offset="0.4101" style="stop-color:#1D9CBA"/>
		<stop  offset="0.7104" style="stop-color:#3F94BB"/>
		<stop  offset="1" style="stop-color:#678BBD"/>
	</linearGradient>
	<linearGradient id="SVGID_8_" gradientUnits="userSpaceOnUse" x1="272.975" y1="41.85" x2="290.325" y2="41.85">
		<stop  offset="0" style="stop-color:#000000"/>
		<stop  offset="9.804320e-02" style="stop-color:#000208"/>
		<stop  offset="0.2477" style="stop-color:#00081D"/>
		<stop  offset="0.4302" style="stop-color:#001240"/>
		<stop  offset="0.6388" style="stop-color:#002070"/>
		<stop  offset="0.8661" style="stop-color:#0032AD"/>
		<stop  offset="1" style="stop-color:#003DD4"/>
	</linearGradient>
	<path class="st3" d="M273.1,12h17.1v59.7h-17.1V12z"/>
	
		<linearGradient id="SVGID_9_" gradientUnits="userSpaceOnUse" x1="401.067" y1="489.2" x2="418.133" y2="489.2" gradientTransform="matrix(1 0 0 -1 0 514)">
		<stop  offset="0" style="stop-color:#00A2B9"/>
		<stop  offset="0.1624" style="stop-color:#08A0B9"/>
		<stop  offset="0.4101" style="stop-color:#1D9CBA"/>
		<stop  offset="0.7104" style="stop-color:#3F94BB"/>
		<stop  offset="1" style="stop-color:#678BBD"/>
	</linearGradient>
	<linearGradient id="SVGID_10_" gradientUnits="userSpaceOnUse" x1="400.975" y1="24.8" x2="418.325" y2="24.8">
		<stop  offset="0" style="stop-color:#000000"/>
		<stop  offset="9.804320e-02" style="stop-color:#000208"/>
		<stop  offset="0.2477" style="stop-color:#00081D"/>
		<stop  offset="0.4302" style="stop-color:#001240"/>
		<stop  offset="0.6388" style="stop-color:#002070"/>
		<stop  offset="0.8661" style="stop-color:#0032AD"/>
		<stop  offset="1" style="stop-color:#003DD4"/>
	</linearGradient>
	<path class="st4" d="M401.1,12h17.1v25.6h-17.1V12z"/>
	
		<linearGradient id="SVGID_11_" gradientUnits="userSpaceOnUse" x1="230.4" y1="403.9" x2="247.467" y2="403.9" gradientTransform="matrix(1 0 0 -1 0 514)">
		<stop  offset="0" style="stop-color:#00A2B9"/>
		<stop  offset="0.1624" style="stop-color:#08A0B9"/>
		<stop  offset="0.4101" style="stop-color:#1D9CBA"/>
		<stop  offset="0.7104" style="stop-color:#3F94BB"/>
		<stop  offset="1" style="stop-color:#678BBD"/>
	</linearGradient>
	<linearGradient id="SVGID_12_" gradientUnits="userSpaceOnUse" x1="230.275" y1="110.1" x2="247.625" y2="110.1">
		<stop  offset="0" style="stop-color:#000000"/>
		<stop  offset="9.804320e-02" style="stop-color:#000208"/>
		<stop  offset="0.2477" style="stop-color:#00081D"/>
		<stop  offset="0.4302" style="stop-color:#001240"/>
		<stop  offset="0.6388" style="stop-color:#002070"/>
		<stop  offset="0.8661" style="stop-color:#0032AD"/>
		<stop  offset="1" style="stop-color:#003DD4"/>
	</linearGradient>
	<path class="st5" d="M230.4,71.7h17.1v76.8h-17.1V71.7z"/>
	
		<linearGradient id="SVGID_13_" gradientUnits="userSpaceOnUse" x1="167.9" y1="463.6" x2="184.967" y2="463.6" gradientTransform="matrix(1 0 0 -1 0 514)">
		<stop  offset="0" style="stop-color:#00A2B9"/>
		<stop  offset="0.1624" style="stop-color:#08A0B9"/>
		<stop  offset="0.4101" style="stop-color:#1D9CBA"/>
		<stop  offset="0.7104" style="stop-color:#3F94BB"/>
		<stop  offset="1" style="stop-color:#678BBD"/>
	</linearGradient>
	<linearGradient id="SVGID_14_" gradientUnits="userSpaceOnUse" x1="167.775" y1="50.4" x2="185.125" y2="50.4">
		<stop  offset="0" style="stop-color:#000000"/>
		<stop  offset="9.804320e-02" style="stop-color:#000208"/>
		<stop  offset="0.2477" style="stop-color:#00081D"/>
		<stop  offset="0.4302" style="stop-color:#001240"/>
		<stop  offset="0.6388" style="stop-color:#002070"/>
		<stop  offset="0.8661" style="stop-color:#0032AD"/>
		<stop  offset="1" style="stop-color:#003DD4"/>
	</linearGradient>
	<path class="st6" d="M167.9,12H185v76.8h-17.1V12z"/>
	
		<linearGradient id="SVGID_15_" gradientUnits="userSpaceOnUse" x1="76.8" y1="489.2" x2="93.867" y2="489.2" gradientTransform="matrix(1 0 0 -1 0 514)">
		<stop  offset="0" style="stop-color:#00A2B9"/>
		<stop  offset="0.1624" style="stop-color:#08A0B9"/>
		<stop  offset="0.4101" style="stop-color:#1D9CBA"/>
		<stop  offset="0.7104" style="stop-color:#3F94BB"/>
		<stop  offset="1" style="stop-color:#678BBD"/>
	</linearGradient>
	<linearGradient id="SVGID_16_" gradientUnits="userSpaceOnUse" x1="76.675" y1="24.8" x2="94.025" y2="24.8">
		<stop  offset="0" style="stop-color:#000000"/>
		<stop  offset="9.804320e-02" style="stop-color:#000208"/>
		<stop  offset="0.2477" style="stop-color:#00081D"/>
		<stop  offset="0.4302" style="stop-color:#001240"/>
		<stop  offset="0.6388" style="stop-color:#002070"/>
		<stop  offset="0.8661" style="stop-color:#0032AD"/>
		<stop  offset="1" style="stop-color:#003DD4"/>
	</linearGradient>
	<path class="st7" d="M76.8,12h17.1v25.6H76.8V12z"/>
	
		<linearGradient id="SVGID_17_" gradientUnits="userSpaceOnUse" x1="332.8" y1="399.6" x2="384" y2="399.6" gradientTransform="matrix(1 0 0 -1 0 514)">
		<stop  offset="0" style="stop-color:#00A2B9"/>
		<stop  offset="0.1624" style="stop-color:#08A0B9"/>
		<stop  offset="0.4101" style="stop-color:#1D9CBA"/>
		<stop  offset="0.7104" style="stop-color:#3F94BB"/>
		<stop  offset="1" style="stop-color:#678BBD"/>
	</linearGradient>
	<linearGradient id="SVGID_18_" gradientUnits="userSpaceOnUse" x1="332.775" y1="114.4" x2="384.125" y2="114.4">
		<stop  offset="0" style="stop-color:#000000"/>
		<stop  offset="9.804320e-02" style="stop-color:#000208"/>
		<stop  offset="0.2477" style="stop-color:#00081D"/>
		<stop  offset="0.4302" style="stop-color:#001240"/>
		<stop  offset="0.6388" style="stop-color:#002070"/>
		<stop  offset="0.8661" style="stop-color:#0032AD"/>
		<stop  offset="1" style="stop-color:#003DD4"/>
	</linearGradient>
	<path class="st8" d="M384,101.6c0-11.8-9.6-21.3-21.3-21.3h-21.3c-4.7,0-8.5,3.8-8.5,8.5V140c0,4.7,3.8,8.5,8.5,8.5h21.3
		c11.8,0,21.3-9.6,21.3-21.3c0-4.6-1.6-9.1-4.4-12.8C382.4,110.7,384,106.2,384,101.6z M362.7,131.5h-12.8V123h12.8
		c2.4,0,4.3,1.9,4.3,4.3C366.9,129.6,365,131.5,362.7,131.5z M362.7,105.9h-12.8v-8.5h12.8c2.4,0,4.3,1.9,4.3,4.3
		C366.9,104,365,105.9,362.7,105.9z"/>
	
		<linearGradient id="SVGID_19_" gradientUnits="userSpaceOnUse" x1="273.067" y1="348.35" x2="290.133" y2="348.35" gradientTransform="matrix(1 0 0 -1 0 514)">
		<stop  offset="0" style="stop-color:#00A2B9"/>
		<stop  offset="0.1624" style="stop-color:#08A0B9"/>
		<stop  offset="0.4101" style="stop-color:#1D9CBA"/>
		<stop  offset="0.7104" style="stop-color:#3F94BB"/>
		<stop  offset="1" style="stop-color:#678BBD"/>
	</linearGradient>
	<linearGradient id="SVGID_20_" gradientUnits="userSpaceOnUse" x1="272.975" y1="165.65" x2="290.325" y2="165.65">
		<stop  offset="0" style="stop-color:#000000"/>
		<stop  offset="9.804320e-02" style="stop-color:#000208"/>
		<stop  offset="0.2477" style="stop-color:#00081D"/>
		<stop  offset="0.4302" style="stop-color:#001240"/>
		<stop  offset="0.6388" style="stop-color:#002070"/>
		<stop  offset="0.8661" style="stop-color:#0032AD"/>
		<stop  offset="1" style="stop-color:#003DD4"/>
	</linearGradient>
	<path class="st9" d="M273.1,157.1h17.1v17.1h-17.1V157.1z"/>
	
		<linearGradient id="SVGID_21_" gradientUnits="userSpaceOnUse" x1="167.9" y1="395.35" x2="184.967" y2="395.35" gradientTransform="matrix(1 0 0 -1 0 514)">
		<stop  offset="0" style="stop-color:#00A2B9"/>
		<stop  offset="0.1624" style="stop-color:#08A0B9"/>
		<stop  offset="0.4101" style="stop-color:#1D9CBA"/>
		<stop  offset="0.7104" style="stop-color:#3F94BB"/>
		<stop  offset="1" style="stop-color:#678BBD"/>
	</linearGradient>
	<linearGradient id="SVGID_22_" gradientUnits="userSpaceOnUse" x1="167.775" y1="118.65" x2="185.125" y2="118.65">
		<stop  offset="0" style="stop-color:#000000"/>
		<stop  offset="9.804320e-02" style="stop-color:#000208"/>
		<stop  offset="0.2477" style="stop-color:#00081D"/>
		<stop  offset="0.4302" style="stop-color:#001240"/>
		<stop  offset="0.6388" style="stop-color:#002070"/>
		<stop  offset="0.8661" style="stop-color:#0032AD"/>
		<stop  offset="1" style="stop-color:#003DD4"/>
	</linearGradient>
	<path class="st10" d="M167.9,110.1H185v17.1h-17.1V110.1z"/>
	
		<linearGradient id="SVGID_23_" gradientUnits="userSpaceOnUse" x1="136.533" y1="237.45" x2="153.6" y2="237.45" gradientTransform="matrix(1 0 0 -1 0 514)">
		<stop  offset="0" style="stop-color:#00A2B9"/>
		<stop  offset="0.1624" style="stop-color:#08A0B9"/>
		<stop  offset="0.4101" style="stop-color:#1D9CBA"/>
		<stop  offset="0.7104" style="stop-color:#3F94BB"/>
		<stop  offset="1" style="stop-color:#678BBD"/>
	</linearGradient>
	<linearGradient id="SVGID_24_" gradientUnits="userSpaceOnUse" x1="136.375" y1="276.55" x2="153.725" y2="276.55">
		<stop  offset="0" style="stop-color:#000000"/>
		<stop  offset="9.804320e-02" style="stop-color:#000208"/>
		<stop  offset="0.2477" style="stop-color:#00081D"/>
		<stop  offset="0.4302" style="stop-color:#001240"/>
		<stop  offset="0.6388" style="stop-color:#002070"/>
		<stop  offset="0.8661" style="stop-color:#0032AD"/>
		<stop  offset="1" style="stop-color:#003DD4"/>
	</linearGradient>
	<path class="st11" d="M136.5,268h17.1v17.1h-17.1V268z"/>
	
		<linearGradient id="SVGID_25_" gradientUnits="userSpaceOnUse" x1="136.533" y1="186.3" x2="153.6" y2="186.3" gradientTransform="matrix(1 0 0 -1 0 514)">
		<stop  offset="0" style="stop-color:#00A2B9"/>
		<stop  offset="0.1624" style="stop-color:#08A0B9"/>
		<stop  offset="0.4101" style="stop-color:#1D9CBA"/>
		<stop  offset="0.7104" style="stop-color:#3F94BB"/>
		<stop  offset="1" style="stop-color:#678BBD"/>
	</linearGradient>
	<linearGradient id="SVGID_26_" gradientUnits="userSpaceOnUse" x1="136.375" y1="327.7" x2="153.725" y2="327.7">
		<stop  offset="0" style="stop-color:#000000"/>
		<stop  offset="9.804320e-02" style="stop-color:#000208"/>
		<stop  offset="0.2477" style="stop-color:#00081D"/>
		<stop  offset="0.4302" style="stop-color:#001240"/>
		<stop  offset="0.6388" style="stop-color:#002070"/>
		<stop  offset="0.8661" style="stop-color:#0032AD"/>
		<stop  offset="1" style="stop-color:#003DD4"/>
	</linearGradient>
	<path class="st12" d="M136.5,302.1h17.1v51.2h-17.1V302.1z"/>
	
		<linearGradient id="SVGID_27_" gradientUnits="userSpaceOnUse" x1="102.4" y1="459.35" x2="119.467" y2="459.35" gradientTransform="matrix(1 0 0 -1 0 514)">
		<stop  offset="0" style="stop-color:#00A2B9"/>
		<stop  offset="0.1624" style="stop-color:#08A0B9"/>
		<stop  offset="0.4101" style="stop-color:#1D9CBA"/>
		<stop  offset="0.7104" style="stop-color:#3F94BB"/>
		<stop  offset="1" style="stop-color:#678BBD"/>
	</linearGradient>
	<linearGradient id="SVGID_28_" gradientUnits="userSpaceOnUse" x1="102.275" y1="54.65" x2="119.625" y2="54.65">
		<stop  offset="0" style="stop-color:#000000"/>
		<stop  offset="9.804320e-02" style="stop-color:#000208"/>
		<stop  offset="0.2477" style="stop-color:#00081D"/>
		<stop  offset="0.4302" style="stop-color:#001240"/>
		<stop  offset="0.6388" style="stop-color:#002070"/>
		<stop  offset="0.8661" style="stop-color:#0032AD"/>
		<stop  offset="1" style="stop-color:#003DD4"/>
	</linearGradient>
	<path class="st13" d="M102.4,46.1h17.1v17.1h-17.1V46.1z"/>
	
		<linearGradient id="SVGID_29_" gradientUnits="userSpaceOnUse" x1="102.4" y1="416.65" x2="119.467" y2="416.65" gradientTransform="matrix(1 0 0 -1 0 514)">
		<stop  offset="0" style="stop-color:#00A2B9"/>
		<stop  offset="0.1624" style="stop-color:#08A0B9"/>
		<stop  offset="0.4101" style="stop-color:#1D9CBA"/>
		<stop  offset="0.7104" style="stop-color:#3F94BB"/>
		<stop  offset="1" style="stop-color:#678BBD"/>
	</linearGradient>
	<linearGradient id="SVGID_30_" gradientUnits="userSpaceOnUse" x1="102.275" y1="97.35" x2="119.625" y2="97.35">
		<stop  offset="0" style="stop-color:#000000"/>
		<stop  offset="9.804320e-02" style="stop-color:#000208"/>
		<stop  offset="0.2477" style="stop-color:#00081D"/>
		<stop  offset="0.4302" style="stop-color:#001240"/>
		<stop  offset="0.6388" style="stop-color:#002070"/>
		<stop  offset="0.8661" style="stop-color:#0032AD"/>
		<stop  offset="1" style="stop-color:#003DD4"/>
	</linearGradient>
	<path class="st14" d="M102.4,80.3h17.1v34.1h-17.1V80.3z"/>
	
		<linearGradient id="SVGID_31_" gradientUnits="userSpaceOnUse" x1="230.4" y1="467.85" x2="247.467" y2="467.85" gradientTransform="matrix(1 0 0 -1 0 514)">
		<stop  offset="0" style="stop-color:#00A2B9"/>
		<stop  offset="0.1624" style="stop-color:#08A0B9"/>
		<stop  offset="0.4101" style="stop-color:#1D9CBA"/>
		<stop  offset="0.7104" style="stop-color:#3F94BB"/>
		<stop  offset="1" style="stop-color:#678BBD"/>
	</linearGradient>
	<linearGradient id="SVGID_32_" gradientUnits="userSpaceOnUse" x1="230.275" y1="46.15" x2="247.625" y2="46.15">
		<stop  offset="0" style="stop-color:#000000"/>
		<stop  offset="9.804320e-02" style="stop-color:#000208"/>
		<stop  offset="0.2477" style="stop-color:#00081D"/>
		<stop  offset="0.4302" style="stop-color:#001240"/>
		<stop  offset="0.6388" style="stop-color:#002070"/>
		<stop  offset="0.8661" style="stop-color:#0032AD"/>
		<stop  offset="1" style="stop-color:#003DD4"/>
	</linearGradient>
	<path class="st15" d="M230.4,37.6h17.1v17.1h-17.1V37.6z"/>
	
		<linearGradient id="SVGID_33_" gradientUnits="userSpaceOnUse" x1="324.3" y1="211.9" x2="392.5" y2="211.9" gradientTransform="matrix(1 0 0 -1 0 514)">
		<stop  offset="0" style="stop-color:#00A2B9"/>
		<stop  offset="0.1624" style="stop-color:#08A0B9"/>
		<stop  offset="0.4101" style="stop-color:#1D9CBA"/>
		<stop  offset="0.7104" style="stop-color:#3F94BB"/>
		<stop  offset="1" style="stop-color:#678BBD"/>
	</linearGradient>
	<linearGradient id="SVGID_34_" gradientUnits="userSpaceOnUse" x1="324.175" y1="302.1" x2="392.625" y2="302.1">
		<stop  offset="0" style="stop-color:#000000"/>
		<stop  offset="9.804320e-02" style="stop-color:#000208"/>
		<stop  offset="0.2477" style="stop-color:#00081D"/>
		<stop  offset="0.4302" style="stop-color:#001240"/>
		<stop  offset="0.6388" style="stop-color:#002070"/>
		<stop  offset="0.8661" style="stop-color:#0032AD"/>
		<stop  offset="1" style="stop-color:#003DD4"/>
	</linearGradient>
	<path class="st16" d="M358.4,268c-18.9,0-34.1,15.3-34.1,34.1s15.3,34.1,34.1,34.1s34.1-15.3,34.1-34.1S377.3,268,358.4,268z
		 M358.4,319.2c-9.4,0-17.1-7.6-17.1-17.1s7.6-17.1,17.1-17.1s17.1,7.6,17.1,17.1S367.8,319.2,358.4,319.2z"/>
	
		<linearGradient id="SVGID_35_" gradientUnits="userSpaceOnUse" x1="85.333" y1="314.3" x2="136.533" y2="314.3" gradientTransform="matrix(1 0 0 -1 0 514)">
		<stop  offset="0" style="stop-color:#00A2B9"/>
		<stop  offset="0.1624" style="stop-color:#08A0B9"/>
		<stop  offset="0.4101" style="stop-color:#1D9CBA"/>
		<stop  offset="0.7104" style="stop-color:#3F94BB"/>
		<stop  offset="1" style="stop-color:#678BBD"/>
	</linearGradient>
	<linearGradient id="SVGID_36_" gradientUnits="userSpaceOnUse" x1="85.275" y1="199.7" x2="136.625" y2="199.7">
		<stop  offset="0" style="stop-color:#000000"/>
		<stop  offset="9.804320e-02" style="stop-color:#000208"/>
		<stop  offset="0.2477" style="stop-color:#00081D"/>
		<stop  offset="0.4302" style="stop-color:#001240"/>
		<stop  offset="0.6388" style="stop-color:#002070"/>
		<stop  offset="0.8661" style="stop-color:#0032AD"/>
		<stop  offset="1" style="stop-color:#003DD4"/>
	</linearGradient>
	<path class="st17" d="M136.5,186.9c0-11.8-9.6-21.3-21.3-21.3H93.9c-4.7,0-8.5,3.8-8.5,8.5v51.2c0,4.7,3.8,8.5,8.5,8.5h21.3
		c11.8,0,21.3-9.6,21.3-21.3c0-4.6-1.6-9.1-4.4-12.8C135,196.1,136.5,191.6,136.5,186.9L136.5,186.9z M115.2,216.8h-12.8v-8.5h12.8
		c2.4,0,4.3,1.9,4.3,4.3C119.5,214.9,117.6,216.8,115.2,216.8z M115.2,191.2h-12.8v-8.5h12.8c2.4,0,4.3,1.9,4.3,4.3
		S117.6,191.2,115.2,191.2z"/>
</g>
</svg>
