<?xml version="1.0" encoding="utf-8"?>
<!-- Generator: Adobe Illustrator 23.0.0, SVG Export Plug-In . SVG Version: 6.00 Build 0)  -->
<svg version="1.1" id="Layer_1" xmlns="http://www.w3.org/2000/svg" xmlns:xlink="http://www.w3.org/1999/xlink" x="0px" y="0px"
	 viewBox="0 0 512 512" style="enable-background:new 0 0 512 512;" xml:space="preserve">
<style type="text/css">
	.st0{fill:url(#SVGID_1_);stroke:url(#SVGID_2_);stroke-width:0.25;stroke-miterlimit:10;}
	.st1{fill:url(#SVGID_3_);stroke:url(#SVGID_4_);stroke-width:0.25;stroke-miterlimit:10;}
	.st2{fill:url(#SVGID_5_);stroke:url(#SVGID_6_);stroke-width:0.25;stroke-miterlimit:10;}
	.st3{fill:url(#SVGID_7_);stroke:url(#SVGID_8_);stroke-width:0.25;stroke-miterlimit:10;}
	.st4{fill:url(#SVGID_9_);stroke:url(#SVGID_10_);stroke-width:0.25;stroke-miterlimit:10;}
	.st5{fill:url(#SVGID_11_);stroke:url(#SVGID_12_);stroke-width:0.25;stroke-miterlimit:10;}
</style>
<g>
	
		<linearGradient id="SVGID_1_" gradientUnits="userSpaceOnUse" x1="145.6" y1="258" x2="366.3729" y2="258" gradientTransform="matrix(1 0 0 -1 0 514)">
		<stop  offset="0" style="stop-color:#00A2B9"/>
		<stop  offset="0.1624" style="stop-color:#08A0B9"/>
		<stop  offset="0.4101" style="stop-color:#1D9CBA"/>
		<stop  offset="0.7104" style="stop-color:#3F94BB"/>
		<stop  offset="1" style="stop-color:#678BBD"/>
	</linearGradient>
	<linearGradient id="SVGID_2_" gradientUnits="userSpaceOnUse" x1="145.475" y1="256" x2="366.4979" y2="256">
		<stop  offset="0" style="stop-color:#000000"/>
		<stop  offset="9.804320e-02" style="stop-color:#000208"/>
		<stop  offset="0.2477" style="stop-color:#00081D"/>
		<stop  offset="0.4302" style="stop-color:#001240"/>
		<stop  offset="0.6388" style="stop-color:#002070"/>
		<stop  offset="0.8661" style="stop-color:#0032AD"/>
		<stop  offset="1" style="stop-color:#003DD4"/>
	</linearGradient>
	<path class="st0" d="M329.6,173.7c-45.4-40.6-115.2-36.8-155.9,8.7c-18.1,20.2-28.1,46.4-28.1,73.6c0,31.4,13.4,61.3,36.8,82.3
		c45.4,40.6,115.2,36.8,155.9-8.7C378.9,284.1,375,214.3,329.6,173.7L329.6,173.7z M318.3,325.6c-38.4,34.4-97.5,31.1-131.9-7.4
		c-15.3-17.1-23.8-39.3-23.8-62.3c0-26.6,11.3-51.9,31.1-69.6c38.4-34.4,97.5-31.1,131.9,7.4C360,232.1,356.7,291.2,318.3,325.6
		L318.3,325.6z"/>
	
		<linearGradient id="SVGID_3_" gradientUnits="userSpaceOnUse" x1="213.5" y1="257.95" x2="306.9467" y2="257.95" gradientTransform="matrix(1 0 0 -1 0 514)">
		<stop  offset="0" style="stop-color:#00A2B9"/>
		<stop  offset="0.1624" style="stop-color:#08A0B9"/>
		<stop  offset="0.4101" style="stop-color:#1D9CBA"/>
		<stop  offset="0.7104" style="stop-color:#3F94BB"/>
		<stop  offset="1" style="stop-color:#678BBD"/>
	</linearGradient>
	<linearGradient id="SVGID_4_" gradientUnits="userSpaceOnUse" x1="213.375" y1="256.05" x2="307.0717" y2="256.05">
		<stop  offset="0" style="stop-color:#000000"/>
		<stop  offset="9.804320e-02" style="stop-color:#000208"/>
		<stop  offset="0.2477" style="stop-color:#00081D"/>
		<stop  offset="0.4302" style="stop-color:#001240"/>
		<stop  offset="0.6388" style="stop-color:#002070"/>
		<stop  offset="0.8661" style="stop-color:#0032AD"/>
		<stop  offset="1" style="stop-color:#003DD4"/>
	</linearGradient>
	<path class="st1" d="M305.9,273.3c-1.7-6.7-5.4-12.8-10.7-17.3c14.1-12.1,15.7-33.4,3.6-47.5c-4.5-5.3-10.6-9-17.3-10.7v-18.2h-17
		v17h-17v-17h-17v17h-17v17h8.5v84.9h-8.5v17h17v17h17v-17h17v17h17v-18.2C299.5,309.6,310.5,291.3,305.9,273.3z M273,298.4h-34v-34
		h34c9.4,0,17,7.6,17,17S282.4,298.4,273,298.4z M273,247.5h-34v-34h34c9.4,0,17,7.6,17,17S282.4,247.5,273,247.5z"/>
	<linearGradient id="SVGID_5_" gradientUnits="userSpaceOnUse" x1="1.2" y1="256.0874" x2="510.7134" y2="256.0874">
		<stop  offset="0" style="stop-color:#00A2B9"/>
		<stop  offset="0.1624" style="stop-color:#08A0B9"/>
		<stop  offset="0.4101" style="stop-color:#1D9CBA"/>
		<stop  offset="0.7104" style="stop-color:#3F94BB"/>
		<stop  offset="1" style="stop-color:#678BBD"/>
	</linearGradient>
	<linearGradient id="SVGID_6_" gradientUnits="userSpaceOnUse" x1="1.075" y1="256.0874" x2="510.8384" y2="256.0874">
		<stop  offset="0" style="stop-color:#000000"/>
		<stop  offset="9.804320e-02" style="stop-color:#000208"/>
		<stop  offset="0.2477" style="stop-color:#00081D"/>
		<stop  offset="0.4302" style="stop-color:#001240"/>
		<stop  offset="0.6388" style="stop-color:#002070"/>
		<stop  offset="0.8661" style="stop-color:#0032AD"/>
		<stop  offset="1" style="stop-color:#003DD4"/>
	</linearGradient>
	<path class="st2" d="M493.7,279.9c13.2-4.7,20.2-19.2,15.6-32.4c-4.7-13.2-19.2-20.2-32.4-15.6c-7.3,2.6-13,8.3-15.6,15.6h-61.4
		c-3-50.1-31.7-95.1-76-118.8v-51h95c2.6,7.2,8.2,12.9,15.4,15.4v69.5c0,4.7,3.8,8.5,8.5,8.5h67.9v-17h-59.4v-61
		c13.2-4.7,20.2-19.2,15.6-32.4s-19.2-20.2-32.4-15.6c-7.3,2.6-13,8.3-15.6,15.6H315.4c-4.7,0-8.5,3.8-8.5,8.5v51.9
		c-16.3-6.2-33.5-9.4-50.9-9.5c-5.7,0-11.3,0.4-17,1.1v-11.1c13.2-4.6,20.2-19,15.6-32.2c-2.5-7.3-8.3-13-15.6-15.6V18.2h271.7v-17
		H230.5c-4.7,0-8.5,3.8-8.5,8.5v44c-7.2,2.6-12.9,8.2-15.4,15.4h-78V50.6c13.2-4.7,20.2-19.2,15.6-32.4C139.5,5,125-2,111.8,2.7
		c-7.3,2.6-13,8.3-15.6,15.6h-95v17h95c2.6,7.2,8.2,12.9,15.4,15.4v27c0,4.7,3.8,8.5,8.5,8.5h86.5c2.6,7.2,8.2,12.9,15.4,15.4v14.3
		c-61.5,15-106.1,68.4-109.9,131.6H60.7V212c13.2-4.6,20.2-19,15.6-32.2c-2.5-7.3-8.3-13-15.6-15.6v-52.5c0-4.7-3.8-8.5-8.5-8.5H1.3
		v17h42.5v44c-13.2,4.6-20.2,19-15.6,32.2c2.5,7.3,8.3,13,15.6,15.6v44c0,4.7,3.8,8.5,8.5,8.5h59.9c1.2,20.8,6.8,41.1,16.6,59.4
		H86.2c-4.7,0-8.5,3.8-8.5,8.5v42.5H1.3v17h76.4v17c0,4.7,3.8,8.5,8.5,8.5h59.4v18.5c-7.2,2.6-12.9,8.2-15.4,15.4H1.3v17h128.9
		c4.7,13.2,19.2,20.2,32.4,15.6c13.2-4.7,20.2-19.2,15.6-32.4c-2.6-7.3-8.3-13-15.6-15.6v-27c0-4.7-3.8-8.5-8.5-8.5H94.7V341h44.9
		c25.4,34.8,65,56.5,108,59v59.9c0,4.7,3.8,8.5,8.5,8.5H324v42.5h17V460c0-4.7-3.8-8.5-8.5-8.5h-67.9v-51.4c35.3-2,68.7-17,93.6-42
		h50.7v103.4c-13.3,4.7-20.2,19.2-15.5,32.5s19.2,20.2,32.5,15.5s20.2-19.2,15.5-32.5c-2.6-7.3-8.3-13-15.5-15.5V349.3
		c0-4.7-3.8-8.5-8.5-8.5h-44.9c16.3-22.3,25.9-48.8,27.4-76.4h61.4c2.6,7.2,8.2,12.9,15.4,15.4v111.9c0,4.7,3.8,8.5,8.5,8.5h25.5
		v-17h-17V279.9z M442.8,60.7c4.7,0,8.5,3.8,8.5,8.5c0,4.7-3.8,8.5-8.5,8.5s-8.5-3.8-8.5-8.5S438.1,60.7,442.8,60.7z M120.1,35.2
		c-4.7,0-8.5-3.8-8.5-8.5s3.8-8.5,8.5-8.5c4.7,0,8.5,3.8,8.5,8.5S124.8,35.2,120.1,35.2z M52.2,196.5c-4.7,0-8.5-3.8-8.5-8.5
		s3.8-8.5,8.5-8.5s8.5,3.8,8.5,8.5S56.9,196.5,52.2,196.5z M154.1,451.2c4.7,0,8.5,3.8,8.5,8.5s-3.8,8.5-8.5,8.5s-8.5-3.8-8.5-8.5
		S149.4,451.2,154.1,451.2z M417.3,476.7c4.7,0,8.5,3.8,8.5,8.5s-3.8,8.5-8.5,8.5s-8.5-3.8-8.5-8.5S412.6,476.7,417.3,476.7z
		 M230.5,69.2c4.7,0,8.5,3.8,8.5,8.5s-3.8,8.5-8.5,8.5s-8.5-3.8-8.5-8.5S225.8,69.2,230.5,69.2z M256,383.3
		c-70.3,0-127.4-57-127.4-127.4c0.1-70.3,57.1-127.3,127.4-127.4c70.3,0,127.4,57,127.4,127.4S326.3,383.3,256,383.3z M485.2,264.4
		c-4.7,0-8.5-3.8-8.5-8.5c0-4.7,3.8-8.5,8.5-8.5s8.5,3.8,8.5,8.5C493.7,260.6,489.9,264.4,485.2,264.4z"/>
	
		<linearGradient id="SVGID_7_" gradientUnits="userSpaceOnUse" x1="1.3" y1="164.6" x2="52.2" y2="164.6" gradientTransform="matrix(1 0 0 -1 0 514)">
		<stop  offset="0" style="stop-color:#00A2B9"/>
		<stop  offset="0.1624" style="stop-color:#08A0B9"/>
		<stop  offset="0.4101" style="stop-color:#1D9CBA"/>
		<stop  offset="0.7104" style="stop-color:#3F94BB"/>
		<stop  offset="1" style="stop-color:#678BBD"/>
	</linearGradient>
	<linearGradient id="SVGID_8_" gradientUnits="userSpaceOnUse" x1="1.175" y1="349.4" x2="52.325" y2="349.4">
		<stop  offset="0" style="stop-color:#000000"/>
		<stop  offset="9.804320e-02" style="stop-color:#000208"/>
		<stop  offset="0.2477" style="stop-color:#00081D"/>
		<stop  offset="0.4302" style="stop-color:#001240"/>
		<stop  offset="0.6388" style="stop-color:#002070"/>
		<stop  offset="0.8661" style="stop-color:#0032AD"/>
		<stop  offset="1" style="stop-color:#003DD4"/>
	</linearGradient>
	<path class="st3" d="M1.3,340.9h50.9v17H1.3V340.9z"/>
	
		<linearGradient id="SVGID_9_" gradientUnits="userSpaceOnUse" x1="281.464" y1="88.2" x2="298.445" y2="88.2" gradientTransform="matrix(1 0 0 -1 0 514)">
		<stop  offset="0" style="stop-color:#00A2B9"/>
		<stop  offset="0.1624" style="stop-color:#08A0B9"/>
		<stop  offset="0.4101" style="stop-color:#1D9CBA"/>
		<stop  offset="0.7104" style="stop-color:#3F94BB"/>
		<stop  offset="1" style="stop-color:#678BBD"/>
	</linearGradient>
	<linearGradient id="SVGID_10_" gradientUnits="userSpaceOnUse" x1="281.375" y1="425.8" x2="298.625" y2="425.8">
		<stop  offset="0" style="stop-color:#000000"/>
		<stop  offset="9.804320e-02" style="stop-color:#000208"/>
		<stop  offset="0.2477" style="stop-color:#00081D"/>
		<stop  offset="0.4302" style="stop-color:#001240"/>
		<stop  offset="0.6388" style="stop-color:#002070"/>
		<stop  offset="0.8661" style="stop-color:#0032AD"/>
		<stop  offset="1" style="stop-color:#003DD4"/>
	</linearGradient>
	<path class="st4" d="M281.5,417.3h17v17h-17V417.3z"/>
	
		<linearGradient id="SVGID_11_" gradientUnits="userSpaceOnUse" x1="400.329" y1="389.65" x2="417.31" y2="389.65" gradientTransform="matrix(1 0 0 -1 0 514)">
		<stop  offset="0" style="stop-color:#00A2B9"/>
		<stop  offset="0.1624" style="stop-color:#08A0B9"/>
		<stop  offset="0.4101" style="stop-color:#1D9CBA"/>
		<stop  offset="0.7104" style="stop-color:#3F94BB"/>
		<stop  offset="1" style="stop-color:#678BBD"/>
	</linearGradient>
	<linearGradient id="SVGID_12_" gradientUnits="userSpaceOnUse" x1="400.175" y1="124.35" x2="417.425" y2="124.35">
		<stop  offset="0" style="stop-color:#000000"/>
		<stop  offset="9.804320e-02" style="stop-color:#000208"/>
		<stop  offset="0.2477" style="stop-color:#00081D"/>
		<stop  offset="0.4302" style="stop-color:#001240"/>
		<stop  offset="0.6388" style="stop-color:#002070"/>
		<stop  offset="0.8661" style="stop-color:#0032AD"/>
		<stop  offset="1" style="stop-color:#003DD4"/>
	</linearGradient>
	<path class="st5" d="M400.3,111.6h17v25.5h-17V111.6z"/>
</g>
</svg>
