<?xml version="1.0" encoding="utf-8"?>
<!-- Generator: Adobe Illustrator 23.0.0, SVG Export Plug-In . SVG Version: 6.00 Build 0)  -->
<svg version="1.1" id="Capa_1" xmlns="http://www.w3.org/2000/svg" xmlns:xlink="http://www.w3.org/1999/xlink" x="0px" y="0px"
	 viewBox="0 0 612 792" style="enable-background:new 0 0 612 792;" xml:space="preserve">
<style type="text/css">
	.st0{fill:none;stroke:#E4FF13;stroke-width:6;stroke-miterlimit:10;}
	.st1{fill:none;stroke:url(#SVGID_1_);stroke-miterlimit:10;}
	.st2{fill:none;stroke:url(#SVGID_2_);stroke-miterlimit:10;}
	.st3{fill:none;stroke:#FFFFFF;stroke-width:6;stroke-miterlimit:10;}
	.st4{fill:none;stroke:#E4FF13;stroke-width:5;stroke-miterlimit:10;}
	.st5{fill:none;stroke:url(#SVGID_3_);stroke-miterlimit:10;}
	.st6{fill:none;stroke:url(#SVGID_4_);stroke-miterlimit:10;}
	.st7{fill:#E4FF13;stroke:#E4FF13;stroke-miterlimit:10;}
	.st8{fill:#E4FF13;stroke:#E4FF13;stroke-width:5;stroke-miterlimit:10;}
	.st9{fill:none;stroke:#E4FF13;stroke-width:4;stroke-miterlimit:10;}
	.st10{fill:none;stroke:#E4FF13;stroke-miterlimit:10;}
	.st11{fill:none;stroke:#E4FF13;stroke-width:3;stroke-miterlimit:10;}
</style>
<path class="st0" d="M198.7,541.8V421.2l103.5-56.7l102.6,56.7v120.6l-102.6,59.3L198.7,541.8z"/>
<linearGradient id="SVGID_1_" gradientUnits="userSpaceOnUse" x1="198.4518" y1="802.933" x2="302.7" y2="802.933" gradientTransform="matrix(1 0 0 1 0 -292)">
	<stop  offset="0" style="stop-color:#6666FF"/>
	<stop  offset="1" style="stop-color:#897DE4"/>
</linearGradient>
<path class="st1" d="M302.2,601.1V480.4l-103.5-59.2"/>
<linearGradient id="SVGID_2_" gradientUnits="userSpaceOnUse" x1="301.9501" y1="742.8" x2="405.0499" y2="742.8" gradientTransform="matrix(1 0 0 1 0 -292)">
	<stop  offset="0" style="stop-color:#6666FF"/>
	<stop  offset="1" style="stop-color:#897DE4"/>
</linearGradient>
<path class="st2" d="M404.8,421.2l-102.6,59.2"/>
<path class="st3" d="M501.1,363.6L302.7,478.3 M333.8,271.1l167.3,92.5V597L302.7,711.6L102.4,597V363.6l168.2-92.1"/>
<path class="st3" d="M302.7,711.6V478.3L102.4,363.6"/>
<path class="st4" d="M238.9,256.2v-73.5l63.1-34.5l62.6,34.5v73.5L302,292.4L238.9,256.2z"/>
<linearGradient id="SVGID_3_" gradientUnits="userSpaceOnUse" x1="238.6517" y1="492.75" x2="302.2483" y2="492.75" gradientTransform="matrix(1 0 0 1 0 -292)">
	<stop  offset="0" style="stop-color:#6666FF"/>
	<stop  offset="1" style="stop-color:#897DE4"/>
</linearGradient>
<path class="st5" d="M302,218.8l-63.1-36.1"/>
<linearGradient id="SVGID_4_" gradientUnits="userSpaceOnUse" x1="301.7502" y1="492.75" x2="364.7812" y2="492.75" gradientTransform="matrix(1 0 0 1 0 -292)">
	<stop  offset="0" style="stop-color:#6666FF"/>
	<stop  offset="1" style="stop-color:#897DE4"/>
</linearGradient>
<path class="st6" d="M364.6,182.7L302,218.8"/>
<circle class="st7" cx="582.1" cy="391.9" r="3"/>
<circle class="st7" cx="529.9" cy="305.6" r="3"/>
<circle class="st7" cx="470.6" cy="268.2" r="3"/>
<circle class="st7" cx="302.7" cy="309.8" r="3"/>
<circle class="st7" cx="302.7" cy="342.8" r="3"/>
<circle class="st7" cx="152.5" cy="570.3" r="3"/>
<circle class="st7" cx="181.5" cy="553.8" r="3"/>
<circle class="st7" cx="120.6" cy="588.4" r="3"/>
<circle class="st7" cx="456.6" cy="567.7" r="3"/>
<circle class="st7" cx="485.6" cy="584.2" r="3"/>
<circle class="st7" cx="424.7" cy="549.6" r="3"/>
<circle class="st7" cx="561.6" cy="324" r="3"/>
<circle class="st7" cx="501.1" cy="286.3" r="3"/>
<circle class="st7" cx="440.5" cy="251" r="3"/>
<circle class="st7" cx="383.2" cy="215.1" r="3"/>
<circle class="st7" cx="411.6" cy="232.6" r="3"/>
<circle class="st7" cx="582.7" cy="356.2" r="3"/>
<circle class="st7" cx="582.1" cy="426.4" r="3"/>
<circle class="st7" cx="582.1" cy="461.8" r="3"/>
<circle class="st7" cx="582.1" cy="495.2" r="3"/>
<circle class="st7" cx="582.7" cy="531.7" r="3"/>
<circle class="st7" cx="494.5" cy="688.3" r="3"/>
<circle class="st7" cx="580.8" cy="635.3" r="3"/>
<circle class="st7" cx="582.1" cy="565.4" r="3"/>
<circle class="st7" cx="582.1" cy="601.1" r="3"/>
<circle class="st7" cx="555.3" cy="654.9" r="3"/>
<circle class="st7" cx="526.8" cy="670.9" r="3"/>
<circle class="st7" cx="463.4" cy="703.2" r="3"/>
<circle class="st7" cx="432.5" cy="721.1" r="3"/>
<circle class="st7" cx="401.8" cy="737.5" r="3"/>
<circle class="st7" cx="371.7" cy="752.3" r="3"/>
<circle class="st7" cx="340.8" cy="769.6" r="3"/>
<path class="st7" d="M307.8,786.3c0-1.7,1.3-3,3-3s3,1.3,3,3"/>
<circle class="st7" cx="280.1" cy="780.4" r="3"/>
<circle class="st7" cx="247.5" cy="761.5" r="3"/>
<circle class="st7" cx="220.2" cy="746.4" r="3"/>
<circle class="st7" cx="157.8" cy="711.6" r="3"/>
<circle class="st7" cx="125.1" cy="694.7" r="3"/>
<circle class="st7" cx="188.1" cy="727" r="3"/>
<circle class="st7" cx="66.1" cy="660.3" r="3"/>
<circle class="st7" cx="97.9" cy="677.2" r="3"/>
<circle class="st7" cx="36.3" cy="644" r="3"/>
<circle class="st7" cx="29.3" cy="611.6" r="3"/>
<circle class="st7" cx="30.4" cy="579.4" r="3"/>
<circle class="st7" cx="30.4" cy="542.5" r="3"/>
<circle class="st7" cx="29.3" cy="510.2" r="3"/>
<circle class="st7" cx="29.3" cy="473.5" r="3"/>
<circle class="st7" cx="29.3" cy="440.9" r="3"/>
<circle class="st7" cx="29.3" cy="405" r="3"/>
<circle class="st7" cx="29.3" cy="369.1" r="3"/>
<circle class="st7" cx="202.5" cy="225" r="3"/>
<circle class="st7" cx="169" cy="243.9" r="3"/>
<circle class="st7" cx="139.2" cy="258.9" r="3"/>
<circle class="st7" cx="29.3" cy="333.5" r="3"/>
<circle class="st7" cx="48.1" cy="308.6" r="3"/>
<circle class="st7" cx="229.9" cy="209.2" r="3"/>
<circle class="st7" cx="108.1" cy="277.2" r="3"/>
<circle class="st7" cx="78.4" cy="292.4" r="3"/>
<path class="st7" d="M363.5,183.8l-61.2,35.3"/>
<path class="st7" d="M301.3,220.2l1.3-1.7l1.2,1.7C303.8,220.2,302.9,221,301.3,220.2z"/>
<path class="st8" d="M302.6,219.1l-61.8-35.3"/>
<path class="st8" d="M363.7,183.8l-61.1,35.3"/>
<path class="st9" d="M274.7,114.4V82.8L301.9,68l26.9,14.8v31.6L301.9,130L274.7,114.4z"/>
<path class="st10" d="M301.9,98.3l-27.2-15.5"/>
<path class="st10" d="M328.8,82.8l-26.9,15.5"/>
<path class="st10" d="M328.3,83.3L302,98.5"/>
<path class="st10" d="M301.6,98.9l0.6-0.7l0.5,0.7C302.6,98.9,302.2,99.3,301.6,98.9z"/>
<path class="st9" d="M302.1,98.5l-26.5-15.2"/>
<path class="st9" d="M328.4,83.3l-26.3,15.2"/>
<path class="st11" d="M282.4,42.6V20l19.4-10.6L321.1,20v22.6l-19.3,11.1L282.4,42.6z"/>
<path class="st10" d="M301.8,31.1L282.4,20"/>
<path class="st10" d="M321.1,20l-19.3,11.1"/>
<path class="st10" d="M320.7,20.4l-18.8,10.8"/>
<path class="st10" d="M301.6,31.6l0.4-0.5l0.4,0.5C302.4,31.6,302.1,31.8,301.6,31.6z"/>
<path class="st11" d="M302,31.2l-19-10.8"/>
<path class="st11" d="M320.8,20.4L302,31.2"/>
</svg>
