<?xml version="1.0" encoding="utf-8"?>
<!-- Generator: Adobe Illustrator 23.0.0, SVG Export Plug-In . SVG Version: 6.00 Build 0)  -->
<svg version="1.1" id="Capa_1" xmlns="http://www.w3.org/2000/svg" xmlns:xlink="http://www.w3.org/1999/xlink" x="0px" y="0px"
	 viewBox="0 0 612 792" style="enable-background:new 0 0 612 792;" xml:space="preserve">
<style type="text/css">
	.st0{fill:#F9FF0F;stroke:#F9FF0F;stroke-miterlimit:10;}
	.st1{enable-background:new    ;}
	.st2{fill:none;stroke:#FFFF00;stroke-width:5;stroke-miterlimit:10;}
	.st3{fill:none;stroke:#F9FF0F;stroke-width:5;stroke-miterlimit:10;}
	.st4{fill:none;stroke:#FFFFFF;stroke-width:5;stroke-miterlimit:10;}
	.st5{fill:none;stroke:#FFFF00;stroke-width:6;stroke-miterlimit:10;}
	.st6{fill:none;stroke:#F9FF0F;stroke-width:6;stroke-miterlimit:10;}
</style>
<circle class="st0" cx="159.5" cy="157.7" r="4.3"/>
<circle class="st0" cx="158.6" cy="106.3" r="4.3"/>
<circle class="st0" cx="161.1" cy="207.4" r="4.3"/>
<circle class="st0" cx="162.8" cy="258.3" r="4.3"/>
<g class="st1">
	<path d="M-2897.4-3331.5v-6.2h0.9v0.9c0.2-0.3,0.5-0.5,0.8-0.7s0.7-0.3,1.1-0.3c0.5,0,0.8,0.1,1.1,0.3s0.5,0.5,0.6,0.8
		c0.5-0.7,1.1-1.1,1.9-1.1c0.6,0,1.1,0.2,1.4,0.5s0.5,0.9,0.5,1.6v4.3h-1v-3.9c0-0.4,0-0.7-0.1-0.9s-0.2-0.3-0.4-0.4
		s-0.4-0.2-0.6-0.2c-0.4,0-0.8,0.1-1.1,0.4s-0.4,0.8-0.4,1.4v3.6h-1.1v-4c0-0.5-0.1-0.8-0.3-1.1s-0.5-0.4-0.8-0.4
		c-0.3,0-0.6,0.1-0.8,0.2s-0.4,0.4-0.5,0.7s-0.2,0.7-0.2,1.3v3.2H-2897.4z"/>
	<path d="M-2883.3-3332.3c-0.4,0.3-0.8,0.6-1.1,0.7s-0.7,0.2-1.2,0.2c-0.7,0-1.2-0.2-1.6-0.5s-0.6-0.8-0.6-1.3
		c0-0.3,0.1-0.6,0.2-0.8s0.3-0.5,0.5-0.6s0.5-0.3,0.8-0.3c0.2-0.1,0.5-0.1,0.9-0.2c0.9-0.1,1.5-0.2,1.9-0.4c0-0.1,0-0.2,0-0.3
		c0-0.4-0.1-0.7-0.3-0.9c-0.3-0.2-0.7-0.4-1.2-0.4c-0.5,0-0.9,0.1-1.1,0.3s-0.4,0.5-0.5,0.9l-1-0.1c0.1-0.4,0.2-0.8,0.5-1.1
		s0.5-0.5,0.9-0.6s0.9-0.2,1.4-0.2c0.5,0,1,0.1,1.3,0.2s0.6,0.3,0.7,0.5s0.3,0.4,0.3,0.7c0,0.2,0.1,0.5,0.1,1v1.4c0,1,0,1.6,0.1,1.9
		s0.1,0.5,0.3,0.7h-1.1C-2883.2-3331.7-2883.3-3332-2883.3-3332.3z M-2883.4-3334.6c-0.4,0.2-1,0.3-1.7,0.4
		c-0.4,0.1-0.7,0.1-0.9,0.2s-0.3,0.2-0.4,0.3s-0.1,0.3-0.1,0.5c0,0.3,0.1,0.5,0.3,0.7s0.5,0.3,0.9,0.3c0.4,0,0.8-0.1,1.1-0.3
		s0.5-0.4,0.7-0.7c0.1-0.2,0.2-0.6,0.2-1.1V-3334.6z"/>
	<path d="M-2881.4-3331.5l2.3-3.2l-2.1-3h1.3l1,1.5c0.2,0.3,0.3,0.5,0.4,0.7c0.2-0.3,0.3-0.5,0.5-0.7l1-1.5h1.3l-2.2,2.9l2.3,3.3
		h-1.3l-1.3-1.9l-0.3-0.5l-1.6,2.5H-2881.4z"/>
	<path d="M-2875.1-3334.1v-1.1h3.2v1.1H-2875.1z"/>
	<path d="M-2869.6-3331.5l-1.9-6.2h1.1l1,3.6l0.4,1.3c0-0.1,0.1-0.5,0.3-1.3l1-3.6h1.1l0.9,3.6l0.3,1.2l0.4-1.2l1.1-3.6h1l-1.9,6.2
		h-1.1l-1-3.7l-0.2-1.1l-1.3,4.8H-2869.6z"/>
	<path d="M-2862-3338.9v-1.2h1.1v1.2H-2862z M-2862-3331.5v-6.2h1.1v6.2H-2862z"/>
	<path d="M-2855.3-3331.5v-0.8c-0.4,0.6-1,0.9-1.7,0.9c-0.5,0-1-0.1-1.4-0.4s-0.7-0.7-1-1.1s-0.3-1.1-0.3-1.7c0-0.6,0.1-1.2,0.3-1.7
		s0.5-0.9,0.9-1.2s0.9-0.4,1.4-0.4c0.4,0,0.7,0.1,1,0.2s0.5,0.4,0.7,0.6v-3.1h1v8.6H-2855.3z M-2858.7-3334.6c0,0.8,0.2,1.4,0.5,1.8
		s0.7,0.6,1.2,0.6c0.5,0,0.9-0.2,1.2-0.6s0.5-1,0.5-1.7c0-0.9-0.2-1.5-0.5-1.9s-0.7-0.6-1.2-0.6c-0.5,0-0.9,0.2-1.2,0.6
		S-2858.7-3335.4-2858.7-3334.6z"/>
	<path d="M-2850.4-3332.4l0.2,0.9c-0.3,0.1-0.6,0.1-0.8,0.1c-0.4,0-0.7-0.1-0.9-0.2s-0.4-0.3-0.4-0.5s-0.1-0.6-0.1-1.2v-3.6h-0.8
		v-0.8h0.8v-1.5l1-0.6v2.2h1.1v0.8h-1.1v3.6c0,0.3,0,0.5,0.1,0.6s0.1,0.2,0.2,0.2s0.2,0.1,0.4,0.1
		C-2850.7-3332.4-2850.6-3332.4-2850.4-3332.4z"/>
	<path d="M-2849.4-3331.5v-8.6h1.1v3.1c0.5-0.6,1.1-0.9,1.9-0.9c0.5,0,0.9,0.1,1.2,0.3s0.6,0.4,0.7,0.8s0.2,0.8,0.2,1.4v3.9h-1.1
		v-3.9c0-0.5-0.1-0.9-0.3-1.2s-0.6-0.4-1-0.4c-0.3,0-0.6,0.1-0.9,0.2s-0.5,0.4-0.6,0.7s-0.2,0.7-0.2,1.1v3.4H-2849.4z"/>
	<path d="M-2842.4-3336.5v-1.2h1.2v1.2H-2842.4z M-2842.4-3331.5v-1.2h1.2v1.2H-2842.4z"/>
	<path d="M-2831.9-3334.7l-0.2,1.3c-0.3-0.2-0.4-0.3-0.6-0.5c-0.2-0.2-0.4-0.5-0.5-0.9c-0.1-0.4-0.2-1-0.2-1.6c0-0.2,0-0.5,0-0.7
		c0-0.1,0-0.5,0.1-1.2c-0.2,0-0.3,0.1-0.4,0.1c-0.3,0.1-0.5,0.1-0.7,0.1c-0.6,0-1-0.1-1.2-0.2c-0.1-0.1-0.2-0.3-0.2-0.6
		c0-0.1,0-0.3,0-0.6s0-0.5,0-0.6l0.2,0c0.1,0.2,0.2,0.4,0.3,0.4c0.2,0.1,0.5,0.2,0.9,0.2c0.3,0,0.7,0,1-0.1c0.1,0,0.3-0.1,0.6-0.1
		c-0.1,0.4-0.1,0.7-0.1,0.9c0,0.3-0.1,0.6-0.1,0.9c0,0.6,0.1,1.2,0.2,1.6c0.1,0.3,0.2,0.7,0.4,0.9
		C-2832.3-3335.2-2832.1-3335-2831.9-3334.7z"/>
	<path d="M-2826.4-3335.9c-0.1,0.3-0.2,0.6-0.2,0.8s-0.1,0.5-0.2,0.9c-0.3-0.2-0.6-0.3-0.8-0.5c-0.1-0.1-0.4-0.3-0.7-0.5
		c0.1-0.4,0.2-0.6,0.2-0.9s0.2-0.5,0.3-0.9c0.2,0.2,0.4,0.4,0.7,0.5C-2826.9-3336.3-2826.7-3336.1-2826.4-3335.9z"/>
	<path d="M-2820.1-3335.9c-0.1,0.3-0.2,0.6-0.2,0.8s-0.1,0.5-0.2,0.9c-0.3-0.2-0.6-0.3-0.8-0.5c-0.1-0.1-0.4-0.3-0.7-0.5
		c0.1-0.4,0.2-0.6,0.2-0.9s0.2-0.5,0.3-0.9c0.2,0.2,0.4,0.4,0.7,0.5C-2820.6-3336.3-2820.4-3336.1-2820.1-3335.9z"/>
	<path d="M-2817.1-3329.1v-8.6h1v0.8c0.2-0.3,0.5-0.6,0.8-0.7s0.6-0.2,1-0.2c0.5,0,1,0.1,1.4,0.4s0.7,0.7,0.9,1.2s0.3,1,0.3,1.6
		c0,0.6-0.1,1.2-0.3,1.7s-0.6,0.9-1,1.2s-0.9,0.4-1.4,0.4c-0.4,0-0.7-0.1-0.9-0.2s-0.5-0.3-0.7-0.6v3H-2817.1z M-2816.1-3334.6
		c0,0.8,0.2,1.4,0.5,1.8s0.7,0.6,1.2,0.6c0.5,0,0.9-0.2,1.2-0.6s0.5-1,0.5-1.8c0-0.8-0.2-1.4-0.5-1.8s-0.7-0.6-1.2-0.6
		c-0.4,0-0.8,0.2-1.2,0.6S-2816.1-3335.4-2816.1-3334.6z"/>
	<path d="M-2811.1-3331.5l2.3-3.2l-2.1-3h1.3l1,1.5c0.2,0.3,0.3,0.5,0.4,0.7c0.2-0.3,0.3-0.5,0.5-0.7l1-1.5h1.3l-2.2,2.9l2.3,3.3
		h-1.3l-1.3-1.9l-0.3-0.5l-1.6,2.5H-2811.1z"/>
	<path d="M-2804.1-3331.5v-1.2h1.2v1.2c0,0.4-0.1,0.8-0.2,1.1s-0.4,0.5-0.7,0.6l-0.3-0.5c0.2-0.1,0.4-0.2,0.5-0.4s0.2-0.5,0.2-0.8
		H-2804.1z M-2804.1-3336.5v-1.2h1.2v1.2H-2804.1z"/>
</g>
<g class="st1">
	<path d="M-2897.4-3317.1v-6.2h0.9v0.9c0.2-0.3,0.5-0.5,0.8-0.7s0.7-0.3,1.1-0.3c0.5,0,0.8,0.1,1.1,0.3s0.5,0.5,0.6,0.8
		c0.5-0.7,1.1-1.1,1.9-1.1c0.6,0,1.1,0.2,1.4,0.5s0.5,0.9,0.5,1.6v4.3h-1v-3.9c0-0.4,0-0.7-0.1-0.9s-0.2-0.3-0.4-0.4
		s-0.4-0.2-0.6-0.2c-0.4,0-0.8,0.1-1.1,0.4s-0.4,0.8-0.4,1.4v3.6h-1.1v-4c0-0.5-0.1-0.8-0.3-1.1s-0.5-0.4-0.8-0.4
		c-0.3,0-0.6,0.1-0.8,0.2s-0.4,0.4-0.5,0.7s-0.2,0.7-0.2,1.3v3.2H-2897.4z"/>
	<path d="M-2883.3-3317.9c-0.4,0.3-0.8,0.6-1.1,0.7s-0.7,0.2-1.2,0.2c-0.7,0-1.2-0.2-1.6-0.5s-0.6-0.8-0.6-1.3
		c0-0.3,0.1-0.6,0.2-0.8s0.3-0.5,0.5-0.6s0.5-0.3,0.8-0.3c0.2-0.1,0.5-0.1,0.9-0.2c0.9-0.1,1.5-0.2,1.9-0.4c0-0.1,0-0.2,0-0.3
		c0-0.4-0.1-0.7-0.3-0.9c-0.3-0.2-0.7-0.4-1.2-0.4c-0.5,0-0.9,0.1-1.1,0.3s-0.4,0.5-0.5,0.9l-1-0.1c0.1-0.4,0.2-0.8,0.5-1.1
		s0.5-0.5,0.9-0.6s0.9-0.2,1.4-0.2c0.5,0,1,0.1,1.3,0.2s0.6,0.3,0.7,0.5s0.3,0.4,0.3,0.7c0,0.2,0.1,0.5,0.1,1v1.4c0,1,0,1.6,0.1,1.9
		s0.1,0.5,0.3,0.7h-1.1C-2883.2-3317.3-2883.3-3317.6-2883.3-3317.9z M-2883.4-3320.2c-0.4,0.2-1,0.3-1.7,0.4
		c-0.4,0.1-0.7,0.1-0.9,0.2s-0.3,0.2-0.4,0.3s-0.1,0.3-0.1,0.5c0,0.3,0.1,0.5,0.3,0.7s0.5,0.3,0.9,0.3c0.4,0,0.8-0.1,1.1-0.3
		s0.5-0.4,0.7-0.7c0.1-0.2,0.2-0.6,0.2-1.1V-3320.2z"/>
	<path d="M-2880.7-3317.1v-6.2h0.9v0.9c0.2-0.4,0.5-0.7,0.7-0.9s0.4-0.2,0.7-0.2c0.4,0,0.7,0.1,1.1,0.3l-0.4,1
		c-0.3-0.2-0.5-0.2-0.8-0.2c-0.2,0-0.4,0.1-0.6,0.2s-0.3,0.3-0.4,0.6c-0.1,0.4-0.2,0.8-0.2,1.2v3.3H-2880.7z"/>
	<path d="M-2876.9-3316.6l1,0.2c0,0.3,0.2,0.5,0.4,0.7c0.3,0.2,0.6,0.3,1.1,0.3c0.5,0,0.9-0.1,1.1-0.3s0.4-0.5,0.5-0.8
		c0.1-0.2,0.1-0.7,0.1-1.4c-0.5,0.5-1,0.8-1.7,0.8c-0.9,0-1.5-0.3-2-0.9s-0.7-1.4-0.7-2.2c0-0.6,0.1-1.1,0.3-1.6s0.5-0.9,0.9-1.2
		s0.9-0.4,1.4-0.4c0.7,0,1.3,0.3,1.8,0.9v-0.8h1v5.4c0,1-0.1,1.7-0.3,2.1s-0.5,0.7-0.9,1s-1,0.4-1.6,0.4c-0.7,0-1.3-0.2-1.8-0.5
		S-2876.9-3315.9-2876.9-3316.6z M-2876-3320.3c0,0.8,0.2,1.4,0.5,1.8s0.7,0.6,1.2,0.6c0.5,0,0.9-0.2,1.2-0.6s0.5-1,0.5-1.8
		c0-0.8-0.2-1.3-0.5-1.7s-0.7-0.6-1.2-0.6c-0.5,0-0.9,0.2-1.2,0.6S-2876-3321.1-2876-3320.3z"/>
	<path d="M-2870-3324.5v-1.2h1.1v1.2H-2870z M-2870-3317.1v-6.2h1.1v6.2H-2870z"/>
	<path d="M-2867.4-3317.1v-6.2h0.9v0.9c0.5-0.7,1.1-1,2-1c0.4,0,0.7,0.1,1,0.2s0.5,0.3,0.7,0.5s0.3,0.5,0.3,0.8c0,0.2,0.1,0.5,0.1,1
		v3.8h-1.1v-3.8c0-0.4,0-0.8-0.1-1s-0.2-0.4-0.4-0.5s-0.5-0.2-0.7-0.2c-0.4,0-0.8,0.1-1.2,0.4s-0.5,0.8-0.5,1.6v3.4H-2867.4z"/>
	<path d="M-2860.4-3322.1v-1.2h1.2v1.2H-2860.4z M-2860.4-3317.1v-1.2h1.2v1.2H-2860.4z"/>
	<path d="M-2850.7-3321.5c-0.1,0.3-0.2,0.6-0.2,0.8s-0.1,0.5-0.2,0.9c-0.3-0.2-0.6-0.3-0.8-0.5c-0.1-0.1-0.4-0.3-0.7-0.5
		c0.1-0.4,0.2-0.6,0.2-0.9s0.2-0.5,0.3-0.9c0.2,0.2,0.4,0.4,0.7,0.5C-2851.3-3321.9-2851-3321.7-2850.7-3321.5z"/>
	<path d="M-2840.3-3317.9c-0.4,0.3-0.8,0.6-1.1,0.7s-0.7,0.2-1.2,0.2c-0.7,0-1.2-0.2-1.6-0.5s-0.6-0.8-0.6-1.3
		c0-0.3,0.1-0.6,0.2-0.8s0.3-0.5,0.5-0.6s0.5-0.3,0.8-0.3c0.2-0.1,0.5-0.1,0.9-0.2c0.9-0.1,1.5-0.2,1.9-0.4c0-0.1,0-0.2,0-0.3
		c0-0.4-0.1-0.7-0.3-0.9c-0.3-0.2-0.7-0.4-1.2-0.4c-0.5,0-0.9,0.1-1.1,0.3s-0.4,0.5-0.5,0.9l-1-0.1c0.1-0.4,0.2-0.8,0.5-1.1
		s0.5-0.5,0.9-0.6s0.9-0.2,1.4-0.2c0.5,0,1,0.1,1.3,0.2s0.6,0.3,0.7,0.5s0.3,0.4,0.3,0.7c0,0.2,0.1,0.5,0.1,1v1.4c0,1,0,1.6,0.1,1.9
		s0.1,0.5,0.3,0.7h-1.1C-2840.2-3317.3-2840.3-3317.6-2840.3-3317.9z M-2840.4-3320.2c-0.4,0.2-1,0.3-1.7,0.4
		c-0.4,0.1-0.7,0.1-0.9,0.2s-0.3,0.2-0.4,0.3s-0.1,0.3-0.1,0.5c0,0.3,0.1,0.5,0.3,0.7s0.5,0.3,0.9,0.3c0.4,0,0.8-0.1,1.1-0.3
		s0.5-0.4,0.7-0.7c0.1-0.2,0.2-0.6,0.2-1.1V-3320.2z"/>
	<path d="M-2833.6-3317.1v-0.9c-0.5,0.7-1.1,1.1-2,1.1c-0.4,0-0.7-0.1-1-0.2s-0.6-0.3-0.7-0.5s-0.3-0.5-0.3-0.8c0-0.2-0.1-0.5-0.1-1
		v-3.9h1.1v3.5c0,0.6,0,0.9,0.1,1.1c0.1,0.3,0.2,0.5,0.4,0.7s0.5,0.2,0.8,0.2s0.6-0.1,0.9-0.2s0.5-0.4,0.6-0.7s0.2-0.7,0.2-1.2v-3.3
		h1.1v6.2H-2833.6z"/>
	<path d="M-2828.7-3318l0.2,0.9c-0.3,0.1-0.6,0.1-0.8,0.1c-0.4,0-0.7-0.1-0.9-0.2s-0.4-0.3-0.4-0.5s-0.1-0.6-0.1-1.2v-3.6h-0.8v-0.8
		h0.8v-1.5l1-0.6v2.2h1.1v0.8h-1.1v3.6c0,0.3,0,0.5,0.1,0.6s0.1,0.2,0.2,0.2s0.2,0.1,0.4,0.1C-2829.1-3318-2828.9-3318-2828.7-3318z
		"/>
	<path d="M-2828.1-3320.2c0-1.2,0.3-2,1-2.6c0.5-0.5,1.2-0.7,2-0.7c0.9,0,1.6,0.3,2.1,0.8s0.8,1.3,0.8,2.3c0,0.8-0.1,1.4-0.4,1.9
		s-0.6,0.8-1,1.1s-1,0.4-1.5,0.4c-0.9,0-1.6-0.3-2.1-0.8S-2828.1-3319.2-2828.1-3320.2z M-2827-3320.2c0,0.8,0.2,1.4,0.5,1.8
		s0.8,0.6,1.3,0.6c0.5,0,1-0.2,1.3-0.6s0.5-1,0.5-1.8c0-0.8-0.2-1.4-0.5-1.7s-0.8-0.6-1.3-0.6c-0.5,0-1,0.2-1.3,0.6
		S-2827-3321-2827-3320.2z"/>
	<path d="M-2820.8-3317.1v-1.2h1.2v1.2c0,0.4-0.1,0.8-0.2,1.1s-0.4,0.5-0.7,0.6l-0.3-0.5c0.2-0.1,0.4-0.2,0.5-0.4s0.2-0.5,0.2-0.8
		H-2820.8z M-2820.8-3322.1v-1.2h1.2v1.2H-2820.8z"/>
</g>
<circle class="st0" cx="106.9" cy="69.9" r="4.3"/>
<circle class="st0" cx="107.2" cy="120.9" r="4.3"/>
<circle class="st0" cx="107.5" cy="169" r="4.3"/>
<circle class="st0" cx="108.7" cy="221.5" r="4.3"/>
<path class="st2" d="M305.6,260.3l-75.9-43.4v-88.4l75.9-41.6l75.2,42.8v87.2L305.6,260.3z"/>
<path class="st3" d="M229.7,128.5l76.2,43.7l73.5-42.5"/>
<path class="st4" d="M257,235.1L77.4,337.8v262.1l229.5,127.9L534,598v-23"/>
<path class="st4" d="M354,235.2l180,100.7v88.4L306.6,556.1L77.4,427.4"/>
<path class="st4" d="M77.4,337.8l230.1,130.8L534,335.9"/>
<path class="st4" d="M152.9,642V381.1l227.8-131.3"/>
<path class="st4" d="M154.3,293.8L383,423.5l0.4,88.5l-1,87 M229.7,684.5l1.1-85.4L77.4,514.2 M382.4,684.6V599l76.1-43.3l0.3,85.8"
	/>
<path class="st2" d="M588.3,456.4l-73.5,41.7l-53.4-31l73.2-42.2l54.7,30.3l0.8,88.4l-76,43.4l-55-30.7l-0.6-176.2L230.2,250.4"/>
<path class="st4" d="M305.3,292.8L306,380 M230.8,599.1l-0.7-86.3v-88.7L457,292.8"/>
<path class="st5" d="M351.3,530.7l32.1,18.1l-1,88.2l-75.8,42.4L230.3,636l-0.2-88.4l28.1-15.9l2.1-1"/>
<path class="st5" d="M230.1,547.6l76.8,43.7l76.5-42.5"/>
<path class="st6" d="M306.6,679.4l0.3-88.1"/>
<path class="st4" d="M230.1,512.8l76.5,43.3l76.8-44.1 M231.2,251.1l226.4,128.4l0.9,186"/>
<path class="st4" d="M457,468.9l77.6-44L534,409"/>
</svg>
