<?xml version="1.0" encoding="utf-8"?>
<!-- Generator: Adobe Illustrator 23.0.0, SVG Export Plug-In . SVG Version: 6.00 Build 0)  -->
<svg version="1.1" id="Capa_1" xmlns="http://www.w3.org/2000/svg" xmlns:xlink="http://www.w3.org/1999/xlink" x="0px" y="0px"
	 viewBox="0 0 612 792" style="enable-background:new 0 0 612 792;" xml:space="preserve">
<style type="text/css">
	.st0{fill:#FFFF00;stroke:#FFFF00;stroke-miterlimit:10;}
	.st1{enable-background:new    ;}
	.st2{fill:none;stroke:#FFFF00;stroke-width:6;stroke-miterlimit:10;}
	.st3{fill:none;stroke:#FFFFFF;stroke-width:4;stroke-miterlimit:10;}
	.st4{fill:none;stroke:#FFFFFF;stroke-width:6;stroke-miterlimit:10;}
	.st5{fill:none;stroke:#FFFF00;stroke-width:4;stroke-miterlimit:10;}
</style>
<ellipse transform="matrix(0.9999 -1.020247e-02 1.020247e-02 0.9999 -6.3654 0.6232)" class="st0" cx="57.9" cy="624.2" rx="3.3" ry="3.3"/>
<ellipse transform="matrix(0.9999 -1.020247e-02 1.020247e-02 0.9999 -5.943 0.6211)" class="st0" cx="57.9" cy="582.8" rx="3.3" ry="3.3"/>
<circle class="st0" cx="56.7" cy="546.6" r="3.3"/>
<circle class="st0" cx="56.7" cy="505.3" r="3.3"/>
<circle class="st0" cx="56.7" cy="468.7" r="3.3"/>
<circle class="st0" cx="56.7" cy="428.4" r="3.3"/>
<circle class="st0" cx="490.8" cy="248.8" r="3.3"/>
<circle class="st0" cx="490.8" cy="208.6" r="3.3"/>
<g class="st1">
	<path d="M-2897.4-3331.5v-6.2h0.9v0.9c0.2-0.3,0.5-0.5,0.8-0.7s0.7-0.3,1.1-0.3c0.5,0,0.8,0.1,1.1,0.3s0.5,0.5,0.6,0.8
		c0.5-0.7,1.1-1.1,1.9-1.1c0.6,0,1.1,0.2,1.4,0.5s0.5,0.9,0.5,1.6v4.3h-1v-3.9c0-0.4,0-0.7-0.1-0.9s-0.2-0.3-0.4-0.4
		s-0.4-0.2-0.6-0.2c-0.4,0-0.8,0.1-1.1,0.4s-0.4,0.8-0.4,1.4v3.6h-1.1v-4c0-0.5-0.1-0.8-0.3-1.1s-0.5-0.4-0.8-0.4
		c-0.3,0-0.6,0.1-0.8,0.2s-0.4,0.4-0.5,0.7s-0.2,0.7-0.2,1.3v3.2H-2897.4z"/>
	<path d="M-2883.3-3332.3c-0.4,0.3-0.8,0.6-1.1,0.7s-0.7,0.2-1.2,0.2c-0.7,0-1.2-0.2-1.6-0.5s-0.6-0.8-0.6-1.3
		c0-0.3,0.1-0.6,0.2-0.8s0.3-0.5,0.5-0.6s0.5-0.3,0.8-0.3c0.2-0.1,0.5-0.1,0.9-0.2c0.9-0.1,1.5-0.2,1.9-0.4c0-0.1,0-0.2,0-0.3
		c0-0.4-0.1-0.7-0.3-0.9c-0.3-0.2-0.7-0.4-1.2-0.4c-0.5,0-0.9,0.1-1.1,0.3s-0.4,0.5-0.5,0.9l-1-0.1c0.1-0.4,0.2-0.8,0.5-1.1
		s0.5-0.5,0.9-0.6s0.9-0.2,1.4-0.2c0.5,0,1,0.1,1.3,0.2s0.6,0.3,0.7,0.5s0.3,0.4,0.3,0.7c0,0.2,0.1,0.5,0.1,1v1.4c0,1,0,1.6,0.1,1.9
		s0.1,0.5,0.3,0.7h-1.1C-2883.2-3331.7-2883.3-3332-2883.3-3332.3z M-2883.4-3334.6c-0.4,0.2-1,0.3-1.7,0.4
		c-0.4,0.1-0.7,0.1-0.9,0.2s-0.3,0.2-0.4,0.3s-0.1,0.3-0.1,0.5c0,0.3,0.1,0.5,0.3,0.7s0.5,0.3,0.9,0.3c0.4,0,0.8-0.1,1.1-0.3
		s0.5-0.4,0.7-0.7c0.1-0.2,0.2-0.6,0.2-1.1V-3334.6z"/>
	<path d="M-2881.4-3331.5l2.3-3.2l-2.1-3h1.3l1,1.5c0.2,0.3,0.3,0.5,0.4,0.7c0.2-0.3,0.3-0.5,0.5-0.7l1-1.5h1.3l-2.2,2.9l2.3,3.3
		h-1.3l-1.3-1.9l-0.3-0.5l-1.6,2.5H-2881.4z"/>
	<path d="M-2875.1-3334.1v-1.1h3.2v1.1H-2875.1z"/>
	<path d="M-2869.6-3331.5l-1.9-6.2h1.1l1,3.6l0.4,1.3c0-0.1,0.1-0.5,0.3-1.3l1-3.6h1.1l0.9,3.6l0.3,1.2l0.4-1.2l1.1-3.6h1l-1.9,6.2
		h-1.1l-1-3.7l-0.2-1.1l-1.3,4.8H-2869.6z"/>
	<path d="M-2862-3338.9v-1.2h1.1v1.2H-2862z M-2862-3331.5v-6.2h1.1v6.2H-2862z"/>
	<path d="M-2855.3-3331.5v-0.8c-0.4,0.6-1,0.9-1.7,0.9c-0.5,0-1-0.1-1.4-0.4s-0.7-0.7-1-1.1s-0.3-1.1-0.3-1.7c0-0.6,0.1-1.2,0.3-1.7
		s0.5-0.9,0.9-1.2s0.9-0.4,1.4-0.4c0.4,0,0.7,0.1,1,0.2s0.5,0.4,0.7,0.6v-3.1h1v8.6H-2855.3z M-2858.7-3334.6c0,0.8,0.2,1.4,0.5,1.8
		s0.7,0.6,1.2,0.6c0.5,0,0.9-0.2,1.2-0.6s0.5-1,0.5-1.7c0-0.9-0.2-1.5-0.5-1.9s-0.7-0.6-1.2-0.6c-0.5,0-0.9,0.2-1.2,0.6
		S-2858.7-3335.4-2858.7-3334.6z"/>
	<path d="M-2850.4-3332.4l0.2,0.9c-0.3,0.1-0.6,0.1-0.8,0.1c-0.4,0-0.7-0.1-0.9-0.2s-0.4-0.3-0.4-0.5s-0.1-0.6-0.1-1.2v-3.6h-0.8
		v-0.8h0.8v-1.5l1-0.6v2.2h1.1v0.8h-1.1v3.6c0,0.3,0,0.5,0.1,0.6s0.1,0.2,0.2,0.2s0.2,0.1,0.4,0.1
		C-2850.7-3332.4-2850.6-3332.4-2850.4-3332.4z"/>
	<path d="M-2849.4-3331.5v-8.6h1.1v3.1c0.5-0.6,1.1-0.9,1.9-0.9c0.5,0,0.9,0.1,1.2,0.3s0.6,0.4,0.7,0.8s0.2,0.8,0.2,1.4v3.9h-1.1
		v-3.9c0-0.5-0.1-0.9-0.3-1.2s-0.6-0.4-1-0.4c-0.3,0-0.6,0.1-0.9,0.2s-0.5,0.4-0.6,0.7s-0.2,0.7-0.2,1.1v3.4H-2849.4z"/>
	<path d="M-2842.4-3336.5v-1.2h1.2v1.2H-2842.4z M-2842.4-3331.5v-1.2h1.2v1.2H-2842.4z"/>
	<path d="M-2831.9-3334.7l-0.2,1.3c-0.3-0.2-0.4-0.3-0.6-0.5c-0.2-0.2-0.4-0.5-0.5-0.9c-0.1-0.4-0.2-1-0.2-1.6c0-0.2,0-0.5,0-0.7
		c0-0.1,0-0.5,0.1-1.2c-0.2,0-0.3,0.1-0.4,0.1c-0.3,0.1-0.5,0.1-0.7,0.1c-0.6,0-1-0.1-1.2-0.2c-0.1-0.1-0.2-0.3-0.2-0.6
		c0-0.1,0-0.3,0-0.6s0-0.5,0-0.6l0.2,0c0.1,0.2,0.2,0.4,0.3,0.4c0.2,0.1,0.5,0.2,0.9,0.2c0.3,0,0.7,0,1-0.1c0.1,0,0.3-0.1,0.6-0.1
		c-0.1,0.4-0.1,0.7-0.1,0.9c0,0.3-0.1,0.6-0.1,0.9c0,0.6,0.1,1.2,0.2,1.6c0.1,0.3,0.2,0.7,0.4,0.9
		C-2832.3-3335.2-2832.1-3335-2831.9-3334.7z"/>
	<path d="M-2826.4-3335.9c-0.1,0.3-0.2,0.6-0.2,0.8s-0.1,0.5-0.2,0.9c-0.3-0.2-0.6-0.3-0.8-0.5c-0.1-0.1-0.4-0.3-0.7-0.5
		c0.1-0.4,0.2-0.6,0.2-0.9s0.2-0.5,0.3-0.9c0.2,0.2,0.4,0.4,0.7,0.5C-2826.9-3336.3-2826.7-3336.1-2826.4-3335.9z"/>
	<path d="M-2820.1-3335.9c-0.1,0.3-0.2,0.6-0.2,0.8s-0.1,0.5-0.2,0.9c-0.3-0.2-0.6-0.3-0.8-0.5c-0.1-0.1-0.4-0.3-0.7-0.5
		c0.1-0.4,0.2-0.6,0.2-0.9s0.2-0.5,0.3-0.9c0.2,0.2,0.4,0.4,0.7,0.5C-2820.6-3336.3-2820.4-3336.1-2820.1-3335.9z"/>
	<path d="M-2817.1-3329.1v-8.6h1v0.8c0.2-0.3,0.5-0.6,0.8-0.7s0.6-0.2,1-0.2c0.5,0,1,0.1,1.4,0.4s0.7,0.7,0.9,1.2s0.3,1,0.3,1.6
		c0,0.6-0.1,1.2-0.3,1.7s-0.6,0.9-1,1.2s-0.9,0.4-1.4,0.4c-0.4,0-0.7-0.1-0.9-0.2s-0.5-0.3-0.7-0.6v3H-2817.1z M-2816.1-3334.6
		c0,0.8,0.2,1.4,0.5,1.8s0.7,0.6,1.2,0.6c0.5,0,0.9-0.2,1.2-0.6s0.5-1,0.5-1.8c0-0.8-0.2-1.4-0.5-1.8s-0.7-0.6-1.2-0.6
		c-0.4,0-0.8,0.2-1.2,0.6S-2816.1-3335.4-2816.1-3334.6z"/>
	<path d="M-2811.1-3331.5l2.3-3.2l-2.1-3h1.3l1,1.5c0.2,0.3,0.3,0.5,0.4,0.7c0.2-0.3,0.3-0.5,0.5-0.7l1-1.5h1.3l-2.2,2.9l2.3,3.3
		h-1.3l-1.3-1.9l-0.3-0.5l-1.6,2.5H-2811.1z"/>
	<path d="M-2804.1-3331.5v-1.2h1.2v1.2c0,0.4-0.1,0.8-0.2,1.1s-0.4,0.5-0.7,0.6l-0.3-0.5c0.2-0.1,0.4-0.2,0.5-0.4s0.2-0.5,0.2-0.8
		H-2804.1z M-2804.1-3336.5v-1.2h1.2v1.2H-2804.1z"/>
</g>
<g class="st1">
	<path d="M-2897.4-3317.1v-6.2h0.9v0.9c0.2-0.3,0.5-0.5,0.8-0.7s0.7-0.3,1.1-0.3c0.5,0,0.8,0.1,1.1,0.3s0.5,0.5,0.6,0.8
		c0.5-0.7,1.1-1.1,1.9-1.1c0.6,0,1.1,0.2,1.4,0.5s0.5,0.9,0.5,1.6v4.3h-1v-3.9c0-0.4,0-0.7-0.1-0.9s-0.2-0.3-0.4-0.4
		s-0.4-0.2-0.6-0.2c-0.4,0-0.8,0.1-1.1,0.4s-0.4,0.8-0.4,1.4v3.6h-1.1v-4c0-0.5-0.1-0.8-0.3-1.1s-0.5-0.4-0.8-0.4
		c-0.3,0-0.6,0.1-0.8,0.2s-0.4,0.4-0.5,0.7s-0.2,0.7-0.2,1.3v3.2H-2897.4z"/>
	<path d="M-2883.3-3317.9c-0.4,0.3-0.8,0.6-1.1,0.7s-0.7,0.2-1.2,0.2c-0.7,0-1.2-0.2-1.6-0.5s-0.6-0.8-0.6-1.3
		c0-0.3,0.1-0.6,0.2-0.8s0.3-0.5,0.5-0.6s0.5-0.3,0.8-0.3c0.2-0.1,0.5-0.1,0.9-0.2c0.9-0.1,1.5-0.2,1.9-0.4c0-0.1,0-0.2,0-0.3
		c0-0.4-0.1-0.7-0.3-0.9c-0.3-0.2-0.7-0.4-1.2-0.4c-0.5,0-0.9,0.1-1.1,0.3s-0.4,0.5-0.5,0.9l-1-0.1c0.1-0.4,0.2-0.8,0.5-1.1
		s0.5-0.5,0.9-0.6s0.9-0.2,1.4-0.2c0.5,0,1,0.1,1.3,0.2s0.6,0.3,0.7,0.5s0.3,0.4,0.3,0.7c0,0.2,0.1,0.5,0.1,1v1.4c0,1,0,1.6,0.1,1.9
		s0.1,0.5,0.3,0.7h-1.1C-2883.2-3317.3-2883.3-3317.6-2883.3-3317.9z M-2883.4-3320.2c-0.4,0.2-1,0.3-1.7,0.4
		c-0.4,0.1-0.7,0.1-0.9,0.2s-0.3,0.2-0.4,0.3s-0.1,0.3-0.1,0.5c0,0.3,0.1,0.5,0.3,0.7s0.5,0.3,0.9,0.3c0.4,0,0.8-0.1,1.1-0.3
		s0.5-0.4,0.7-0.7c0.1-0.2,0.2-0.6,0.2-1.1V-3320.2z"/>
	<path d="M-2880.7-3317.1v-6.2h0.9v0.9c0.2-0.4,0.5-0.7,0.7-0.9s0.4-0.2,0.7-0.2c0.4,0,0.7,0.1,1.1,0.3l-0.4,1
		c-0.3-0.2-0.5-0.2-0.8-0.2c-0.2,0-0.4,0.1-0.6,0.2s-0.3,0.3-0.4,0.6c-0.1,0.4-0.2,0.8-0.2,1.2v3.3H-2880.7z"/>
	<path d="M-2876.9-3316.6l1,0.2c0,0.3,0.2,0.5,0.4,0.7c0.3,0.2,0.6,0.3,1.1,0.3c0.5,0,0.9-0.1,1.1-0.3s0.4-0.5,0.5-0.8
		c0.1-0.2,0.1-0.7,0.1-1.4c-0.5,0.5-1,0.8-1.7,0.8c-0.9,0-1.5-0.3-2-0.9s-0.7-1.4-0.7-2.2c0-0.6,0.1-1.1,0.3-1.6s0.5-0.9,0.9-1.2
		s0.9-0.4,1.4-0.4c0.7,0,1.3,0.3,1.8,0.9v-0.8h1v5.4c0,1-0.1,1.7-0.3,2.1s-0.5,0.7-0.9,1s-1,0.4-1.6,0.4c-0.7,0-1.3-0.2-1.8-0.5
		S-2876.9-3315.9-2876.9-3316.6z M-2876-3320.3c0,0.8,0.2,1.4,0.5,1.8s0.7,0.6,1.2,0.6c0.5,0,0.9-0.2,1.2-0.6s0.5-1,0.5-1.8
		c0-0.8-0.2-1.3-0.5-1.7s-0.7-0.6-1.2-0.6c-0.5,0-0.9,0.2-1.2,0.6S-2876-3321.1-2876-3320.3z"/>
	<path d="M-2870-3324.5v-1.2h1.1v1.2H-2870z M-2870-3317.1v-6.2h1.1v6.2H-2870z"/>
	<path d="M-2867.4-3317.1v-6.2h0.9v0.9c0.5-0.7,1.1-1,2-1c0.4,0,0.7,0.1,1,0.2s0.5,0.3,0.7,0.5s0.3,0.5,0.3,0.8c0,0.2,0.1,0.5,0.1,1
		v3.8h-1.1v-3.8c0-0.4,0-0.8-0.1-1s-0.2-0.4-0.4-0.5s-0.5-0.2-0.7-0.2c-0.4,0-0.8,0.1-1.2,0.4s-0.5,0.8-0.5,1.6v3.4H-2867.4z"/>
	<path d="M-2860.4-3322.1v-1.2h1.2v1.2H-2860.4z M-2860.4-3317.1v-1.2h1.2v1.2H-2860.4z"/>
	<path d="M-2850.7-3321.5c-0.1,0.3-0.2,0.6-0.2,0.8s-0.1,0.5-0.2,0.9c-0.3-0.2-0.6-0.3-0.8-0.5c-0.1-0.1-0.4-0.3-0.7-0.5
		c0.1-0.4,0.2-0.6,0.2-0.9s0.2-0.5,0.3-0.9c0.2,0.2,0.4,0.4,0.7,0.5C-2851.3-3321.9-2851-3321.7-2850.7-3321.5z"/>
	<path d="M-2840.3-3317.9c-0.4,0.3-0.8,0.6-1.1,0.7s-0.7,0.2-1.2,0.2c-0.7,0-1.2-0.2-1.6-0.5s-0.6-0.8-0.6-1.3
		c0-0.3,0.1-0.6,0.2-0.8s0.3-0.5,0.5-0.6s0.5-0.3,0.8-0.3c0.2-0.1,0.5-0.1,0.9-0.2c0.9-0.1,1.5-0.2,1.9-0.4c0-0.1,0-0.2,0-0.3
		c0-0.4-0.1-0.7-0.3-0.9c-0.3-0.2-0.7-0.4-1.2-0.4c-0.5,0-0.9,0.1-1.1,0.3s-0.4,0.5-0.5,0.9l-1-0.1c0.1-0.4,0.2-0.8,0.5-1.1
		s0.5-0.5,0.9-0.6s0.9-0.2,1.4-0.2c0.5,0,1,0.1,1.3,0.2s0.6,0.3,0.7,0.5s0.3,0.4,0.3,0.7c0,0.2,0.1,0.5,0.1,1v1.4c0,1,0,1.6,0.1,1.9
		s0.1,0.5,0.3,0.7h-1.1C-2840.2-3317.3-2840.3-3317.6-2840.3-3317.9z M-2840.4-3320.2c-0.4,0.2-1,0.3-1.7,0.4
		c-0.4,0.1-0.7,0.1-0.9,0.2s-0.3,0.2-0.4,0.3s-0.1,0.3-0.1,0.5c0,0.3,0.1,0.5,0.3,0.7s0.5,0.3,0.9,0.3c0.4,0,0.8-0.1,1.1-0.3
		s0.5-0.4,0.7-0.7c0.1-0.2,0.2-0.6,0.2-1.1V-3320.2z"/>
	<path d="M-2833.6-3317.1v-0.9c-0.5,0.7-1.1,1.1-2,1.1c-0.4,0-0.7-0.1-1-0.2s-0.6-0.3-0.7-0.5s-0.3-0.5-0.3-0.8c0-0.2-0.1-0.5-0.1-1
		v-3.9h1.1v3.5c0,0.6,0,0.9,0.1,1.1c0.1,0.3,0.2,0.5,0.4,0.7s0.5,0.2,0.8,0.2s0.6-0.1,0.9-0.2s0.5-0.4,0.6-0.7s0.2-0.7,0.2-1.2v-3.3
		h1.1v6.2H-2833.6z"/>
	<path d="M-2828.7-3318l0.2,0.9c-0.3,0.1-0.6,0.1-0.8,0.1c-0.4,0-0.7-0.1-0.9-0.2s-0.4-0.3-0.4-0.5s-0.1-0.6-0.1-1.2v-3.6h-0.8v-0.8
		h0.8v-1.5l1-0.6v2.2h1.1v0.8h-1.1v3.6c0,0.3,0,0.5,0.1,0.6s0.1,0.2,0.2,0.2s0.2,0.1,0.4,0.1C-2829.1-3318-2828.9-3318-2828.7-3318z
		"/>
	<path d="M-2828.1-3320.2c0-1.2,0.3-2,1-2.6c0.5-0.5,1.2-0.7,2-0.7c0.9,0,1.6,0.3,2.1,0.8s0.8,1.3,0.8,2.3c0,0.8-0.1,1.4-0.4,1.9
		s-0.6,0.8-1,1.1s-1,0.4-1.5,0.4c-0.9,0-1.6-0.3-2.1-0.8S-2828.1-3319.2-2828.1-3320.2z M-2827-3320.2c0,0.8,0.2,1.4,0.5,1.8
		s0.8,0.6,1.3,0.6c0.5,0,1-0.2,1.3-0.6s0.5-1,0.5-1.8c0-0.8-0.2-1.4-0.5-1.7s-0.8-0.6-1.3-0.6c-0.5,0-1,0.2-1.3,0.6
		S-2827-3321-2827-3320.2z"/>
	<path d="M-2820.8-3317.1v-1.2h1.2v1.2c0,0.4-0.1,0.8-0.2,1.1s-0.4,0.5-0.7,0.6l-0.3-0.5c0.2-0.1,0.4-0.2,0.5-0.4s0.2-0.5,0.2-0.8
		H-2820.8z M-2820.8-3322.1v-1.2h1.2v1.2H-2820.8z"/>
</g>
<path class="st2" d="M271.4,451.7l86.3-47.3l85.6,47.3v100.5l-85.6,49.4l-86.3-49.4L271.4,451.7z"/>
<path class="st2" d="M271.4,451.7l87.1,48.9l84.8-48.9"/>
<path class="st3" d="M459.5,118.5l31.7-17.4l31.5,17.4v36.9l-31.5,18.1l-31.7-18.1V118.5z"/>
<path class="st3" d="M459.5,118.5l32,18l31.2-18"/>
<path class="st2" d="M524.9,385.6L465,351.3v-69.7l59.9-32.8l59.3,32.8v69.7L524.9,385.6z"/>
<path class="st2" d="M466.8,282.6l58.5,33.9l58.9-34.9"/>
<path class="st4" d="M465,436.8V367l14-7.7l45.9,26.3l46.5-27l12.8,8.4v69.8L524.9,471L465,436.8z"/>
<path class="st4" d="M465,367l60.4,34l58.8-34 M524.9,554.6L465,521.8l-2-71.2l14.3-6.8l47.6,27.2l47-27.2l12.3,6.8v69.7
	L524.9,554.6z"/>
<path class="st4" d="M463,450.6l62,34.5l59.2-34.5 M524.9,638.6L465,604.3v-69.8l11.5-6.4l48.4,26.5l46.7-27.1l12.6,7v69.8
	L524.9,638.6z"/>
<path class="st4" d="M465,534.5l60.4,34l58.8-34"/>
<path class="st2" d="M466.8,351.5l58.5,33.9l58.9-34.9"/>
<path class="st4" d="M423.2,206.8l20.4,10.7v100.6l-85.5,49.4l-86.3-47.2V217.5l18.3-10.1"/>
<path class="st4" d="M271.8,217.5l87,49.8l84.8-49.8"/>
<path class="st2" d="M271.2,94.8l86.3-47.3l85.6,47.3v100.5l-85.6,49.4l-86.3-49.4V94.8z"/>
<path class="st2" d="M271.2,94.8l87.1,48.9l84.8-48.9"/>
<path class="st5" d="M27.9,330.9l29.6-16.2l29.4,16.2v34.5l-29.4,17l-29.6-17L27.9,330.9z"/>
<path class="st5" d="M27.9,330.9l29.8,16.8l29.2-16.8"/>
<path class="st4" d="M110.1,306.9l73.4-40.3l72.9,40.3v85.5l-72.9,42.1l-73.4-42.1V306.9z"/>
<path class="st4" d="M110.1,306.9l74.1,41.6l72.2-41.6 M236.7,403.8l16.2,9v82.5l-70.2,40.5l-70.8-40.5v-82.5l17.2-9.5"/>
<path class="st4" d="M111.9,412.8l71.4,40.2l69.6-40.2 M236.7,503.7l16.2,8.9v82.5l-70.2,40.5l-70.8-40.5v-82.5l17.2-9.4"/>
<path class="st4" d="M111.9,512.6l71.4,40.2l69.6-40.2 M236.7,603.6l16.2,8.9V695l-70.2,40.5L111.9,695v-82.5l17.2-9.4"/>
<path class="st4" d="M111.9,612.5l71.4,40.2l69.6-40.2"/>
</svg>
