<?xml version="1.0" encoding="utf-8"?>
<!-- Generator: Adobe Illustrator 23.0.0, SVG Export Plug-In . SVG Version: 6.00 Build 0)  -->
<svg version="1.1" id="Capa_1" xmlns="http://www.w3.org/2000/svg" xmlns:xlink="http://www.w3.org/1999/xlink" x="0px" y="0px"
	 viewBox="0 0 512 512" style="enable-background:new 0 0 512 512;" xml:space="preserve">
<style type="text/css">
	.st0{opacity:0.2;fill:#1E1A21;enable-background:new    ;}
	.st1{fill:url(#XMLID_2_);}
	.st2{fill:url(#XMLID_3_);}
	.st3{fill:url(#XMLID_4_);}
	.st4{fill:url(#XMLID_5_);}
	.st5{clip-path:url(#SVGID_2_);fill:url(#XMLID_6_);}
	.st6{clip-path:url(#SVGID_4_);fill:url(#XMLID_7_);}
	.st7{clip-path:url(#SVGID_6_);fill:url(#XMLID_8_);}
	.st8{clip-path:url(#SVGID_8_);fill:url(#XMLID_9_);}
	.st9{clip-path:url(#SVGID_10_);fill:url(#XMLID_10_);}
	.st10{clip-path:url(#SVGID_12_);fill:url(#XMLID_11_);}
	.st11{clip-path:url(#SVGID_14_);fill:url(#XMLID_12_);}
	.st12{clip-path:url(#SVGID_16_);fill:url(#XMLID_13_);}
	.st13{fill:none;stroke:url(#XMLID_14_);stroke-miterlimit:10;}
	.st14{fill:url(#XMLID_15_);}
	.st15{fill:#70E7FF;}
	.st16{fill:url(#XMLID_16_);}
	.st17{fill:url(#XMLID_17_);}
	.st18{fill:url(#SVGID_17_);}
	.st19{fill:url(#SVGID_18_);}
	.st20{fill:url(#SVGID_19_);}
	.st21{fill:url(#SVGID_20_);}
	.st22{fill:url(#SVGID_21_);}
	.st23{fill:url(#SVGID_22_);}
	.st24{fill:url(#SVGID_23_);}
	.st25{fill:url(#SVGID_24_);}
	.st26{fill:url(#SVGID_25_);}
	.st27{opacity:0.6;fill:url(#SVGID_26_);enable-background:new    ;}
	.st28{fill:url(#SVGID_27_);}
	.st29{fill:url(#SVGID_28_);}
	.st30{fill:url(#SVGID_29_);}
	.st31{fill:url(#SVGID_30_);}
	.st32{fill:url(#SVGID_31_);}
	.st33{fill:url(#SVGID_32_);}
	.st34{fill:url(#SVGID_33_);}
	.st35{fill:url(#SVGID_34_);}
	.st36{opacity:0.5;}
	.st37{fill:none;stroke:#0053FB;stroke-miterlimit:10;}
</style>
<path class="st0" d="M118.6,424.5c0,0-5,2.4,0.8,8.8c5.7,6.3,126.7,72.9,126.7,72.9s10,5.2,17.4,0l110.2-64.6c0,0,2.8-4.2-3.1-7.1
	l-126.5-73.3c0,0-6.4-5-14.9,0S118.6,424.5,118.6,424.5L118.6,424.5z"/>
<linearGradient id="XMLID_2_" gradientUnits="userSpaceOnUse" x1="222.4646" y1="17204.1074" x2="289.5604" y2="16953.6992" gradientTransform="matrix(1 0 0 1 0 -16726)">
	<stop  offset="0" style="stop-color:#3F91FF"/>
	<stop  offset="0.526" style="stop-color:#053268"/>
	<stop  offset="1" style="stop-color:#0051BF"/>
</linearGradient>
<path id="XMLID_20_" class="st1" d="M140,420.1V285.8l115.6-67.2L372,285.7v134.4l-115.6,67.1L140,420.1z"/>
<linearGradient id="XMLID_3_" gradientUnits="userSpaceOnUse" x1="239.2391" y1="17074.3008" x2="272.7609" y2="16949.1992" gradientTransform="matrix(1 0 0 1 0 -16726)">
	<stop  offset="0" style="stop-color:#3F91FF"/>
	<stop  offset="0.526" style="stop-color:#053268"/>
	<stop  offset="1" style="stop-color:#0051BF"/>
</linearGradient>
<path id="XMLID_49_" class="st2" d="M255.6,218.6L372,285.7l-115.6,67.2L140,285.8L255.6,218.6z"/>
<linearGradient id="XMLID_4_" gradientUnits="userSpaceOnUse" x1="292.8844" y1="17032.8984" x2="335.5156" y2="17192.002" gradientTransform="matrix(1 0 0 1 0 -16726)">
	<stop  offset="0" style="stop-color:#3F91FF"/>
	<stop  offset="0.526" style="stop-color:#053268"/>
	<stop  offset="1" style="stop-color:#0051BF"/>
</linearGradient>
<path id="XMLID_50_" class="st3" d="M256.4,487.2V352.9L372,285.7v134.4L256.4,487.2z"/>
<g id="XMLID_97_">
	<g>
		
			<linearGradient id="XMLID_5_" gradientUnits="userSpaceOnUse" x1="186.2" y1="233.75" x2="322.9" y2="233.75" gradientTransform="matrix(1 0 0 -1 0 514)">
			<stop  offset="0" style="stop-color:#0000FF;stop-opacity:0.4"/>
			<stop  offset="1" style="stop-color:#3D00FF;stop-opacity:0.6"/>
		</linearGradient>
		<path id="XMLID_98_" class="st4" d="M254.4,240.7l68.5,39.6l-68.1,39.5l-68.6-39.5L254.4,240.7z"/>
	</g>
	<g>
		<defs>
			<polygon id="SVGID_1_" points="254.4,240.7 322.9,280.3 254.8,319.8 186.2,280.3 			"/>
		</defs>
		<clipPath id="SVGID_2_">
			<use xlink:href="#SVGID_1_"  style="overflow:visible;"/>
		</clipPath>
		
			<linearGradient id="XMLID_6_" gradientUnits="userSpaceOnUse" x1="244.6396" y1="16981.7148" x2="264.4671" y2="17055.709" gradientTransform="matrix(1 0 0 1 0 -16726)">
			<stop  offset="0" style="stop-color:#1E27FF;stop-opacity:0.4"/>
			<stop  offset="1" style="stop-color:#3D00FF;stop-opacity:0.6"/>
		</linearGradient>
		<path id="XMLID_109_" class="st5" d="M254.4,253.1l68.5,39.6l-68.1,39.6l-68.6-39.6L254.4,253.1z"/>
	</g>
	<g>
		<defs>
			<polygon id="SVGID_3_" points="254.4,240.7 322.9,280.3 254.8,319.8 186.2,280.3 			"/>
		</defs>
		<clipPath id="SVGID_4_">
			<use xlink:href="#SVGID_3_"  style="overflow:visible;"/>
		</clipPath>
		
			<linearGradient id="XMLID_7_" gradientUnits="userSpaceOnUse" x1="244.6396" y1="16993.916" x2="264.4671" y2="17067.9102" gradientTransform="matrix(1 0 0 1 0 -16726)">
			<stop  offset="0" style="stop-color:#0096FF;stop-opacity:0.4"/>
			<stop  offset="1" style="stop-color:#3D00FF;stop-opacity:0.6"/>
		</linearGradient>
		<path id="XMLID_108_" class="st6" d="M254.4,265.3l68.5,39.6l-68.1,39.6l-68.6-39.6L254.4,265.3z"/>
	</g>
	<g>
		<defs>
			<polygon id="SVGID_5_" points="254.4,240.7 322.9,280.3 254.8,319.8 186.2,280.3 			"/>
		</defs>
		<clipPath id="SVGID_6_">
			<use xlink:href="#SVGID_5_"  style="overflow:visible;"/>
		</clipPath>
		
			<linearGradient id="XMLID_8_" gradientUnits="userSpaceOnUse" x1="244.6396" y1="17006.1152" x2="264.4671" y2="17080.1094" gradientTransform="matrix(1 0 0 1 0 -16726)">
			<stop  offset="0" style="stop-color:#22C1FF;stop-opacity:0.4"/>
			<stop  offset="1" style="stop-color:#3D00FF;stop-opacity:0.6"/>
		</linearGradient>
		<path id="XMLID_107_" class="st7" d="M254.4,277.5l68.5,39.6l-68.1,39.6l-68.6-39.6L254.4,277.5z"/>
	</g>
	<g>
		<defs>
			<polygon id="SVGID_7_" points="254.4,240.7 322.9,280.3 254.8,319.8 186.2,280.3 			"/>
		</defs>
		<clipPath id="SVGID_8_">
			<use xlink:href="#SVGID_7_"  style="overflow:visible;"/>
		</clipPath>
		
			<linearGradient id="XMLID_9_" gradientUnits="userSpaceOnUse" x1="244.6396" y1="17018.3164" x2="264.4671" y2="17092.3105" gradientTransform="matrix(1 0 0 1 0 -16726)">
			<stop  offset="0" style="stop-color:#7FB5FF;stop-opacity:0.4"/>
			<stop  offset="1" style="stop-color:#3D00FF;stop-opacity:0.6"/>
		</linearGradient>
		<path id="XMLID_105_" class="st8" d="M254.4,289.7l68.5,39.6l-68.1,39.6l-68.6-39.6L254.4,289.7z"/>
	</g>
	<g>
		<defs>
			<polygon id="SVGID_9_" points="254.4,240.7 322.9,280.3 254.8,319.8 186.2,280.3 			"/>
		</defs>
		<clipPath id="SVGID_10_">
			<use xlink:href="#SVGID_9_"  style="overflow:visible;"/>
		</clipPath>
		
			<linearGradient id="XMLID_10_" gradientUnits="userSpaceOnUse" x1="244.6646" y1="17030.6094" x2="264.4671" y2="17104.5098" gradientTransform="matrix(1 0 0 1 0 -16726)">
			<stop  offset="0" style="stop-color:#50FFF7;stop-opacity:0.4"/>
			<stop  offset="1" style="stop-color:#3D00FF;stop-opacity:0.6"/>
		</linearGradient>
		<path id="XMLID_104_" class="st9" d="M254.4,302l68.5,39.5l-68.1,39.6l-68.6-39.6L254.4,302z"/>
	</g>
	<g>
		<defs>
			<polygon id="SVGID_11_" points="254.4,240.7 322.9,280.3 254.8,319.8 186.2,280.3 			"/>
		</defs>
		<clipPath id="SVGID_12_">
			<use xlink:href="#SVGID_11_"  style="overflow:visible;"/>
		</clipPath>
		
			<linearGradient id="XMLID_11_" gradientUnits="userSpaceOnUse" x1="244.6646" y1="17042.8086" x2="264.4671" y2="17116.709" gradientTransform="matrix(1 0 0 1 0 -16726)">
			<stop  offset="0" style="stop-color:#7FAAFF;stop-opacity:0.4"/>
			<stop  offset="1" style="stop-color:#3D00FF;stop-opacity:0.6"/>
		</linearGradient>
		<path id="XMLID_103_" class="st10" d="M254.4,314.2l68.5,39.5l-68.1,39.6l-68.6-39.6L254.4,314.2z"/>
	</g>
	<g>
		<defs>
			<polygon id="SVGID_13_" points="254.4,240.7 322.9,280.3 254.8,319.8 186.2,280.3 			"/>
		</defs>
		<clipPath id="SVGID_14_">
			<use xlink:href="#SVGID_13_"  style="overflow:visible;"/>
		</clipPath>
		
			<linearGradient id="XMLID_12_" gradientUnits="userSpaceOnUse" x1="244.6646" y1="17055.0078" x2="264.4671" y2="17128.9102" gradientTransform="matrix(1 0 0 1 0 -16726)">
			<stop  offset="0" style="stop-color:#7F00FF;stop-opacity:0.4"/>
			<stop  offset="1" style="stop-color:#3D00FF;stop-opacity:0.6"/>
		</linearGradient>
		<path id="XMLID_101_" class="st11" d="M254.4,326.4l68.5,39.5l-68.1,39.6l-68.6-39.6L254.4,326.4z"/>
	</g>
	<g>
		<defs>
			<polygon id="SVGID_15_" points="254.4,240.7 322.9,280.3 254.8,319.8 186.2,280.3 			"/>
		</defs>
		<clipPath id="SVGID_16_">
			<use xlink:href="#SVGID_15_"  style="overflow:visible;"/>
		</clipPath>
		
			<linearGradient id="XMLID_13_" gradientUnits="userSpaceOnUse" x1="244.6521" y1="17067.2129" x2="264.4546" y2="17141.1133" gradientTransform="matrix(1 0 0 1 0 -16726)">
			<stop  offset="0" style="stop-color:#7F00FF;stop-opacity:0.4"/>
			<stop  offset="1" style="stop-color:#3D00FF;stop-opacity:0.6"/>
		</linearGradient>
		<path id="XMLID_100_" class="st12" d="M254.4,338.6l68.5,39.5l-68.1,39.6l-68.6-39.5L254.4,338.6z"/>
	</g>
</g>
<linearGradient id="XMLID_14_" gradientUnits="userSpaceOnUse" x1="306.6" y1="383.65" x2="331.6" y2="383.65">
	<stop  offset="0" style="stop-color:#00FF99"/>
	<stop  offset="2.400000e-02" style="stop-color:#02FD9E"/>
	<stop  offset="0.213" style="stop-color:#14EBC1"/>
	<stop  offset="0.406" style="stop-color:#22DDDC"/>
	<stop  offset="0.6" style="stop-color:#2BD4F0"/>
	<stop  offset="0.796" style="stop-color:#31CEFB"/>
	<stop  offset="1" style="stop-color:#33CCFF"/>
</linearGradient>
<path id="XMLID_56_" class="st13" d="M331.1,309.5V392l-24,15.9v49.9"/>
<linearGradient id="XMLID_15_" gradientUnits="userSpaceOnUse" x1="266.037" y1="17023.8008" x2="267.572" y2="17023.8008" gradientTransform="matrix(1 0 0 1 0 -16726)">
	<stop  offset="0" style="stop-color:#3F00FC"/>
	<stop  offset="0.208" style="stop-color:#3F02F7"/>
	<stop  offset="0.467" style="stop-color:#3E09E7"/>
	<stop  offset="0.753" style="stop-color:#3E14CE"/>
	<stop  offset="1" style="stop-color:#3D20B2"/>
</linearGradient>
<circle id="XMLID_304_" class="st14" cx="266.8" cy="297.8" r="0.8"/>
<circle id="XMLID_302_" class="st15" cx="221.3" cy="194" r="0.8"/>
<circle id="XMLID_37_" class="st15" cx="316.2" cy="123.5" r="1.8"/>
<circle id="XMLID_43_" class="st15" cx="334.9" cy="43.5" r="0.7"/>
<circle id="XMLID_143_" class="st15" cx="207.3" cy="119" r="1.8"/>
<circle id="XMLID_142_" class="st15" cx="328.1" cy="202.9" r="0.7"/>
<circle id="XMLID_140_" class="st15" cx="254.6" cy="136.6" r="1"/>
<linearGradient id="XMLID_16_" gradientUnits="userSpaceOnUse" x1="259.151" y1="16983.1992" x2="262.724" y2="16983.1992" gradientTransform="matrix(1 0 0 1 0 -16726)">
	<stop  offset="0" style="stop-color:#3F00FC"/>
	<stop  offset="0.208" style="stop-color:#3F02F7"/>
	<stop  offset="0.467" style="stop-color:#3E09E7"/>
	<stop  offset="0.753" style="stop-color:#3E14CE"/>
	<stop  offset="1" style="stop-color:#3D20B2"/>
</linearGradient>
<circle id="XMLID_73_" class="st16" cx="260.9" cy="257.2" r="1.8"/>
<circle id="XMLID_72_" class="st15" cx="245" cy="177.8" r="0.7"/>
<linearGradient id="XMLID_17_" gradientUnits="userSpaceOnUse" x1="236.267" y1="17012.4004" x2="238.201" y2="17012.4004" gradientTransform="matrix(1 0 0 1 0 -16726)">
	<stop  offset="0" style="stop-color:#3F00FC"/>
	<stop  offset="0.208" style="stop-color:#3F02F7"/>
	<stop  offset="0.467" style="stop-color:#3E09E7"/>
	<stop  offset="0.753" style="stop-color:#3E14CE"/>
	<stop  offset="1" style="stop-color:#3D20B2"/>
</linearGradient>
<circle id="XMLID_71_" class="st17" cx="237.2" cy="286.4" r="1"/>
<circle id="XMLID_70_" class="st15" cx="285.8" cy="234.9" r="1"/>
<circle id="XMLID_369_" class="st15" cx="221.3" cy="25.9" r="1.8"/>
<circle id="XMLID_359_" class="st15" cx="259.2" cy="84.5" r="1.8"/>
<circle id="XMLID_358_" class="st15" cx="272.8" cy="65.1" r="1"/>
<path class="st0" d="M117.5,461.1c0,0-2.1,1,0.3,3.7c2.4,2.6,52.9,30.4,52.9,30.4s4.2,2.2,7.2,0l46-27c0,0,1.2-1.8-1.3-3l-52.8-30.6
	c0,0-2.7-2.1-6.2,0C160,436.7,117.5,461.1,117.5,461.1z"/>
<linearGradient id="SVGID_17_" gradientUnits="userSpaceOnUse" x1="116.6496" y1="793.2222" x2="224.1879" y2="793.2222" gradientTransform="matrix(1 0 0 1 0 -342)">
	<stop  offset="0" style="stop-color:#3F91FF"/>
	<stop  offset="0.526" style="stop-color:#053268"/>
	<stop  offset="1" style="stop-color:#0051BF"/>
</linearGradient>
<path class="st18" d="M117.5,447.4c0,0-2.1,1,0.3,3.7c2.4,2.6,52.9,30.4,52.9,30.4s4.2,2.2,7.2,0l46-27c0,0,1.2-1.8-1.3-3
	l-52.8-30.6c0,0-2.7-2.1-6.2,0C160,423,117.5,447.4,117.5,447.4z"/>
<linearGradient id="SVGID_18_" gradientUnits="userSpaceOnUse" x1="116.6992" y1="810.6496" x2="224.416" y2="810.6496" gradientTransform="matrix(1 0 0 1 0 -342)">
	<stop  offset="0" style="stop-color:#00FF99"/>
	<stop  offset="2.400000e-02" style="stop-color:#02FD9E"/>
	<stop  offset="0.213" style="stop-color:#14EBC1"/>
	<stop  offset="0.406" style="stop-color:#22DDDC"/>
	<stop  offset="0.6" style="stop-color:#2BD4F0"/>
	<stop  offset="0.796" style="stop-color:#31CEFB"/>
	<stop  offset="1" style="stop-color:#33CCFF"/>
</linearGradient>
<path class="st19" d="M116.7,454.9v-6.3c0,0-0.1,1.7,1.9,2.9c1.9,1.3,14.7,8.8,14.7,8.8l19.1,10.8l18.2,10.1c0,0,4,2.2,7.3,0.3
	c3.2-1.9,46.2-27.1,46.2-27.1s0.4-0.5,0.3-1.5v6.8c0,0.6-0.3,1.1-0.8,1.4l-45.1,26.3c0,0-4.6,3.4-9.1-0.8l-51.8-30.3
	C117,456.2,116.7,455.6,116.7,454.9L116.7,454.9z"/>
<linearGradient id="SVGID_19_" gradientUnits="userSpaceOnUse" x1="116.6496" y1="778.3222" x2="224.1879" y2="778.3222" gradientTransform="matrix(1 0 0 1 0 -342)">
	<stop  offset="0" style="stop-color:#3F91FF"/>
	<stop  offset="0.526" style="stop-color:#053268"/>
	<stop  offset="1" style="stop-color:#0051BF"/>
</linearGradient>
<path class="st20" d="M117.5,432.5c0,0-2.1,1,0.3,3.7c2.4,2.6,52.9,30.4,52.9,30.4s4.2,2.2,7.2,0l46-27c0,0,1.2-1.8-1.3-3L169.8,406
	c0,0-2.7-2.1-6.2,0C160,408.1,117.5,432.5,117.5,432.5z"/>
<linearGradient id="SVGID_20_" gradientUnits="userSpaceOnUse" x1="116.6992" y1="795.7496" x2="224.416" y2="795.7496" gradientTransform="matrix(1 0 0 1 0 -342)">
	<stop  offset="0" style="stop-color:#00FF99"/>
	<stop  offset="2.400000e-02" style="stop-color:#02FD9E"/>
	<stop  offset="0.213" style="stop-color:#14EBC1"/>
	<stop  offset="0.406" style="stop-color:#22DDDC"/>
	<stop  offset="0.6" style="stop-color:#2BD4F0"/>
	<stop  offset="0.796" style="stop-color:#31CEFB"/>
	<stop  offset="1" style="stop-color:#33CCFF"/>
</linearGradient>
<path class="st21" d="M116.7,440v-6.3c0,0-0.1,1.7,1.9,2.9c1.9,1.3,14.7,8.8,14.7,8.8l19.1,10.8l18.2,10.1c0,0,4,2.2,7.3,0.3
	c3.2-1.9,46.2-27.1,46.2-27.1s0.4-0.5,0.3-1.5v6.8c0,0.6-0.3,1.1-0.8,1.4l-45.1,26.3c0,0-4.6,3.4-9.1-0.8l-51.8-30.3
	C117,441.2,116.7,440.7,116.7,440L116.7,440z"/>
<linearGradient id="SVGID_21_" gradientUnits="userSpaceOnUse" x1="116.6496" y1="763.3222" x2="224.1879" y2="763.3222" gradientTransform="matrix(1 0 0 1 0 -342)">
	<stop  offset="0" style="stop-color:#3F91FF"/>
	<stop  offset="0.526" style="stop-color:#053268"/>
	<stop  offset="1" style="stop-color:#0051BF"/>
</linearGradient>
<path class="st22" d="M117.5,417.5c0,0-2.1,1,0.3,3.7c2.4,2.6,52.9,30.4,52.9,30.4s4.2,2.2,7.2,0l46-27c0,0,1.2-1.8-1.3-3L169.8,391
	c0,0-2.7-2.1-6.2,0C160,393.2,117.5,417.5,117.5,417.5z"/>
<linearGradient id="SVGID_22_" gradientUnits="userSpaceOnUse" x1="116.6992" y1="780.8496" x2="224.416" y2="780.8496" gradientTransform="matrix(1 0 0 1 0 -342)">
	<stop  offset="0" style="stop-color:#00FF99"/>
	<stop  offset="2.400000e-02" style="stop-color:#02FD9E"/>
	<stop  offset="0.213" style="stop-color:#14EBC1"/>
	<stop  offset="0.406" style="stop-color:#22DDDC"/>
	<stop  offset="0.6" style="stop-color:#2BD4F0"/>
	<stop  offset="0.796" style="stop-color:#31CEFB"/>
	<stop  offset="1" style="stop-color:#33CCFF"/>
</linearGradient>
<path class="st23" d="M116.7,425.1v-6.3c0,0-0.1,1.7,1.9,2.9c1.9,1.3,14.7,8.8,14.7,8.8l19.1,10.8l18.2,10.1c0,0,4,2.2,7.3,0.3
	s46.2-27.1,46.2-27.1s0.4-0.5,0.3-1.5v6.8c0,0.6-0.3,1.1-0.8,1.4l-45.1,26.3c0,0-4.6,3.4-9.1-0.8l-51.8-30.3
	C117,426.3,116.7,425.7,116.7,425.1L116.7,425.1z"/>
<linearGradient id="SVGID_23_" gradientUnits="userSpaceOnUse" x1="164.8762" y1="789.4327" x2="178.8083" y2="737.4384" gradientTransform="matrix(1 0 0 1 0 -342)">
	<stop  offset="0" style="stop-color:#3F91FF"/>
	<stop  offset="0.526" style="stop-color:#053268"/>
	<stop  offset="1" style="stop-color:#0051BF"/>
</linearGradient>
<path class="st24" d="M123.2,417.9c0,0-1.9,1,0.3,3.4s48.6,27.9,48.6,27.9s3.8,2,6.7,0l42.2-24.7c0,0,1.1-1.6-1.2-2.8l-48.5-28
	c0,0-2.5-1.9-5.7,0C162.3,395.5,123.2,417.9,123.2,417.9L123.2,417.9z"/>
<linearGradient id="SVGID_24_" gradientUnits="userSpaceOnUse" x1="116.6496" y1="748.4222" x2="224.1879" y2="748.4222" gradientTransform="matrix(1 0 0 1 0 -342)">
	<stop  offset="0" style="stop-color:#3F91FF"/>
	<stop  offset="0.526" style="stop-color:#053268"/>
	<stop  offset="1" style="stop-color:#0051BF"/>
</linearGradient>
<path class="st25" d="M117.5,402.6c0,0-2.1,1,0.3,3.7c2.4,2.6,52.9,30.4,52.9,30.4s4.2,2.2,7.2,0l46-27c0,0,1.2-1.8-1.3-3
	l-52.8-30.6c0,0-2.7-2.1-6.2,0C160,378.3,117.5,402.6,117.5,402.6z"/>
<linearGradient id="SVGID_25_" gradientUnits="userSpaceOnUse" x1="116.6992" y1="765.9496" x2="224.416" y2="765.9496" gradientTransform="matrix(1 0 0 1 0 -342)">
	<stop  offset="0" style="stop-color:#00FF99"/>
	<stop  offset="2.400000e-02" style="stop-color:#02FD9E"/>
	<stop  offset="0.213" style="stop-color:#14EBC1"/>
	<stop  offset="0.406" style="stop-color:#22DDDC"/>
	<stop  offset="0.6" style="stop-color:#2BD4F0"/>
	<stop  offset="0.796" style="stop-color:#31CEFB"/>
	<stop  offset="1" style="stop-color:#33CCFF"/>
</linearGradient>
<path class="st26" d="M116.7,410.2v-6.3c0,0-0.1,1.7,1.9,2.9c1.9,1.3,14.7,8.8,14.7,8.8l19.1,10.8l18.2,10.1c0,0,4,2.2,7.3,0.3
	c3.2-1.9,46.2-27.1,46.2-27.1s0.4-0.5,0.3-1.5v6.8c0,0.6-0.3,1.1-0.8,1.4l-45.1,26.3c0,0-4.6,3.4-9.1-0.8l-51.8-30.3
	C117,411.4,116.7,410.8,116.7,410.2L116.7,410.2z"/>
<linearGradient id="SVGID_26_" gradientUnits="userSpaceOnUse" x1="140.7" y1="752.8" x2="211.2" y2="752.8" gradientTransform="matrix(1 0 0 1 0 -342)">
	<stop  offset="0" style="stop-color:#463780"/>
	<stop  offset="0.143" style="stop-color:#382E68"/>
	<stop  offset="0.331" style="stop-color:#292550"/>
	<stop  offset="0.529" style="stop-color:#1F1F3F"/>
	<stop  offset="0.743" style="stop-color:#191B34"/>
	<stop  offset="1" style="stop-color:#171A31"/>
</linearGradient>
<path class="st27" d="M140.7,402.8l36.2,21.8l34.3-18.3l-3.4-0.3l-35.6-9L140.7,402.8z"/>
<linearGradient id="SVGID_27_" gradientUnits="userSpaceOnUse" x1="140.7" y1="746.3" x2="174.65" y2="746.3" gradientTransform="matrix(1 0 0 1 0 -342)">
	<stop  offset="0" style="stop-color:#E7FF9B"/>
	<stop  offset="1" style="stop-color:#2270B8"/>
</linearGradient>
<path class="st28" d="M140.7,400.7l10.5-6.2l23.5,13.5l-10.6,6.1L140.7,400.7z"/>
<linearGradient id="SVGID_28_" gradientUnits="userSpaceOnUse" x1="164.1" y1="414.45" x2="186.4" y2="414.45">
	<stop  offset="0" style="stop-color:#E7FF9B"/>
	<stop  offset="1" style="stop-color:#2270B8"/>
</linearGradient>
<path class="st29" d="M186.4,414.8l-11.8-6.8l-10.5,6.2l11.7,6.7L186.4,414.8z"/>
<linearGradient id="SVGID_29_" gradientUnits="userSpaceOnUse" x1="160.0198" y1="737.4741" x2="167.9454" y2="767.0549" gradientTransform="matrix(1 0 0 1 0 -342)">
	<stop  offset="0" style="stop-color:#00FF99"/>
	<stop  offset="2.400000e-02" style="stop-color:#02FD9E"/>
	<stop  offset="0.213" style="stop-color:#14EBC1"/>
	<stop  offset="0.406" style="stop-color:#22DDDC"/>
	<stop  offset="0.6" style="stop-color:#2BD4F0"/>
	<stop  offset="0.796" style="stop-color:#31CEFB"/>
	<stop  offset="1" style="stop-color:#33CCFF"/>
</linearGradient>
<path class="st30" d="M140.7,400.7v1.8l35.1,20.5l10.6-6.2v-2l-10.5,6.1L140.7,400.7z"/>
<linearGradient id="SVGID_30_" gradientUnits="userSpaceOnUse" x1="156.065" y1="735.6" x2="171.565" y2="735.6" gradientTransform="matrix(1 0 0 1 0 -342)">
	<stop  offset="0" style="stop-color:#E7FF9B"/>
	<stop  offset="1" style="stop-color:#2270B8"/>
</linearGradient>
<path class="st31" d="M156.1,395.1l1.5-4.2l13-7.7l1,20.8L156.1,395.1z"/>
<linearGradient id="SVGID_31_" gradientUnits="userSpaceOnUse" x1="174.039" y1="746.85" x2="205.739" y2="746.85" gradientTransform="matrix(1 0 0 1 0 -342)">
	<stop  offset="0" style="stop-color:#E7FF9B"/>
	<stop  offset="1" style="stop-color:#2270B8"/>
</linearGradient>
<path class="st32" d="M174,405.4l0.1-9.4l31.6,7.5l-17.4,10.2L174,405.4z"/>
<linearGradient id="SVGID_32_" gradientUnits="userSpaceOnUse" x1="156.1" y1="405.5" x2="205.7" y2="405.5">
	<stop  offset="0" style="stop-color:#00FF99"/>
	<stop  offset="2.400000e-02" style="stop-color:#02FD9E"/>
	<stop  offset="0.213" style="stop-color:#14EBC1"/>
	<stop  offset="0.406" style="stop-color:#22DDDC"/>
	<stop  offset="0.6" style="stop-color:#2BD4F0"/>
	<stop  offset="0.796" style="stop-color:#31CEFB"/>
	<stop  offset="1" style="stop-color:#33CCFF"/>
</linearGradient>
<path class="st33" d="M174,405.4l14.3,8.3l17.4-10.2v1.9l-17.4,10.5l-14.3-8.2V405.4z M156.1,395.1v2.2l15.4,8.9l0.1-2.2
	L156.1,395.1z"/>
<linearGradient id="SVGID_33_" gradientUnits="userSpaceOnUse" x1="180.4262" y1="758.3853" x2="181.7582" y2="763.3563" gradientTransform="matrix(1 0 0 1 0 -342)">
	<stop  offset="0" style="stop-color:#3F00FC"/>
	<stop  offset="0.12" style="stop-color:#3D01F7"/>
	<stop  offset="0.27" style="stop-color:#3804E7"/>
	<stop  offset="0.436" style="stop-color:#2F08CE"/>
	<stop  offset="0.614" style="stop-color:#230EAA"/>
	<stop  offset="0.8" style="stop-color:#14167C"/>
	<stop  offset="0.992" style="stop-color:#012045"/>
	<stop  offset="1" style="stop-color:#002043"/>
</linearGradient>
<path class="st34" d="M175.9,420.9l-0.1,2.1l10.6-6.2v-2L175.9,420.9z"/>
<linearGradient id="SVGID_34_" gradientUnits="userSpaceOnUse" x1="196.0388" y1="748.1137" x2="197.9618" y2="755.2887" gradientTransform="matrix(1 0 0 1 0 -342)">
	<stop  offset="0" style="stop-color:#00FF99"/>
	<stop  offset="2.400000e-02" style="stop-color:#02FD9E"/>
	<stop  offset="0.213" style="stop-color:#14EBC1"/>
	<stop  offset="0.406" style="stop-color:#22DDDC"/>
	<stop  offset="0.6" style="stop-color:#2BD4F0"/>
	<stop  offset="0.796" style="stop-color:#31CEFB"/>
	<stop  offset="1" style="stop-color:#33CCFF"/>
</linearGradient>
<path class="st35" d="M188.3,413.7v2.2l17.4-10.5v-1.9L188.3,413.7z"/>
<g class="st36">
	<path class="st37" d="M254.6,0v297.1"/>
</g>
</svg>
